<?xml version="1.0" encoding="UTF-8"?>
<svg id="Layer_1" data-name="Layer 1" xmlns="http://www.w3.org/2000/svg" viewBox="0 0 40 40">
  <defs>
    <style>
      .cls-1 {
        fill: #fff;
        fill-rule: evenodd;
      }
    </style>
  </defs>
  <path class="cls-1" d="m20,4.94c-.69.02-1.09.16-1.35.44-.3.31-.51.85-.78,1.58-.12.32-.25.61-.52.9-.25.28-.6.52-1.13.72-1.65.62-2.69,1.56-3.35,2.66-.67,1.12-.95,2.45-1.07,3.81-.1,1.14-.08,2.28-.06,3.38.03,1.76.05,3.39-.37,4.66-.24.7-.74,1.43-1.28,2.21-.3.43-.61.88-.89,1.34-.36.6-.67,1.23-.82,1.86-.11.47-.13.95-.02,1.44h23.27c.11-.49.09-.97-.02-1.44-.15-.64-.45-1.26-.82-1.86-.28-.46-.59-.91-.89-1.34-.55-.79-1.05-1.51-1.28-2.21-.43-1.27-.4-2.9-.37-4.66.02-1.09.04-2.24-.06-3.38-.12-1.37-.4-2.69-1.07-3.81-.66-1.1-1.7-2.04-3.35-2.66-.52-.2-.87-.44-1.13-.72-.26-.29-.4-.58-.52-.9-.27-.73-.48-1.27-.78-1.58-.26-.27-.66-.41-1.35-.44h0Zm-2.28-.46c.51-.53,1.18-.8,2.27-.83h.04c1.08.03,1.76.3,2.27.83.47.49.74,1.15,1.06,2.04.07.18.14.34.25.47.12.13.31.26.63.38,1.96.74,3.21,1.87,4.01,3.21.79,1.32,1.12,2.83,1.25,4.37.1,1.16.08,2.36.06,3.5-.03,1.64-.05,3.16.3,4.23.17.52.63,1.17,1.12,1.88.31.45.64.91.94,1.41.42.7.78,1.45.97,2.24.19.83.18,1.7-.15,2.61l-.16.42H7.44l-.16-.42c-.34-.91-.34-1.78-.15-2.61.18-.8.55-1.54.97-2.24.3-.5.63-.97.94-1.41.49-.71.95-1.36,1.12-1.88.36-1.07.33-2.59.3-4.23-.02-1.14-.04-2.34.06-3.5.13-1.54.46-3.04,1.25-4.37.8-1.34,2.05-2.47,4.01-3.21.32-.12.51-.25.63-.38.11-.13.19-.29.25-.47.32-.89.59-1.55,1.06-2.04h0Zm7.28,28.01c-.31,1.07-.97,2.07-1.88,2.78-.83.65-1.89,1.06-3.1,1.08h-.02c-1.21-.02-2.27-.43-3.1-1.08-.92-.71-1.57-1.71-1.88-2.78l-.24-.83h5.23s5.23,0,5.23,0l-.24.83h0Zm-2.68,1.76c.46-.35.83-.8,1.09-1.29h-3.41s-3.41,0-3.41,0c.27.49.64.94,1.09,1.29.62.49,1.41.8,2.31.81.9-.02,1.69-.33,2.31-.81Z"/>
</svg>