<?xml version="1.0" encoding="UTF-8"?>
<svg id="Layer_1" data-name="Layer 1" xmlns="http://www.w3.org/2000/svg" viewBox="0 0 45.76 45.76">
  <defs>
    <style>
      .cls-1 {
        fill: #F68609;
      }

      .cls-2 {
        fill: #fff;
        fill-rule: evenodd;
      }
    </style>
  </defs>
  <circle class="cls-1" cx="22.88" cy="22.88" r="20.53"/>
  <path class="cls-2" d="m16.84,9.8h12.08c3.88,0,7.07,3.19,7.07,7.07v12.02c0,3.88-3.19,7.07-7.07,7.07h-12.08c-3.88,0-7.07-3.19-7.07-7.07v-12.02c0-3.88,3.19-7.07,7.07-7.07h0Zm13.08,4.57h0c.81,0,1.5.69,1.5,1.5h0c0,.81-.69,1.5-1.5,1.5h0c-.88,0-1.5-.69-1.5-1.5h0c0-.81.63-1.5,1.5-1.5h0Zm-7.07,1.38h.06c3.88,0,7.13,3.25,7.13,7.13h0c0,3.94-3.25,7.13-7.13,7.13h-.06c-3.88,0-7.07-3.19-7.07-7.13h0c0-3.88,3.19-7.13,7.07-7.13h0Zm0,2.44h.06c2.57,0,4.69,2.13,4.69,4.69h0c0,2.63-2.13,4.76-4.69,4.76h-.06c-2.57,0-4.69-2.13-4.69-4.76h0c0-2.57,2.13-4.69,4.69-4.69h0Zm-5.95-6.13h11.95c2.69,0,4.88,2.19,4.88,4.88v11.89c0,2.69-2.19,4.88-4.88,4.88h-11.95c-2.69,0-4.88-2.19-4.88-4.88v-11.89c0-2.69,2.19-4.88,4.88-4.88h0Z"/>
</svg>