<?xml version="1.0" encoding="UTF-8"?>
<svg id="Layer_1" data-name="Layer 1" xmlns="http://www.w3.org/2000/svg" viewBox="0 0 45.76 45.76">
  <defs>
    <style>
      .cls-1, .cls-2 {
        fill: #F68609;
      }

      .cls-3 {
        fill: #fff;
      }

      .cls-3, .cls-2 {
        fill-rule: evenodd;
      }
    </style>
  </defs>
  <circle class="cls-1" cx="22.88" cy="22.88" r="20.53"/>
  <path class="cls-3" d="m15.34,14.2c2.46-.2,5.36-.3,7.57-.3h0c2.21,0,5.06.1,7.57.3,2.9.25,4.38.74,4.77,3.64.2,1.33.3,3.15.3,5.02h0c0,1.87-.1,3.74-.3,5.02-.39,2.95-1.87,3.39-4.77,3.64-2.51.25-5.36.3-7.57.3h0c-2.21,0-5.11-.05-7.57-.3-2.9-.25-4.43-.69-4.82-3.64-.15-1.28-.25-3.15-.25-5.02h0c0-1.87.1-3.69.25-5.02.39-2.9,1.92-3.39,4.82-3.64h0Z"/>
  <polygon class="cls-2" points="20.36 19.06 26.95 22.85 20.36 26.68 20.36 19.06"/>
</svg>