<?xml version="1.0" encoding="UTF-8"?>
<svg id="Layer_1" data-name="Layer 1" xmlns="http://www.w3.org/2000/svg" viewBox="0 0 32.68 6.44">
  <defs>
    <style>
      .cls-1 {
        fill: #f68609;
      }

      .cls-2 {
        fill: #0979f6;
      }
    </style>
  </defs>
  <g>
    <path class="cls-1" d="m2.37,5.18c.1.05.17.14.19.27.02.11,0,.24-.04.37-.12.32-.29.48-.51.48-.5,0-.87-.22-1.1-.67-.19-.36-.28-.85-.29-1.46v-1.28h-.18c-.12,0-.23-.04-.32-.13-.09-.09-.13-.19-.13-.32h0c0-.13.04-.23.13-.32.09-.09.19-.13.32-.13h.18v-.37c0-.22.09-.4.26-.53.17-.13.36-.17.58-.11h.02c.14.04.26.12.35.24.09.12.14.26.14.4v.37h.4c.12,0,.22.04.31.13.09.09.13.19.13.31h0c0,.13-.04.24-.13.32-.09.09-.19.13-.31.13h-.4v1.37c0,.48.14.8.41.93Z"/>
    <path class="cls-2" d="m4.43,1.43c-.14.14-.31.21-.51.21s-.37-.07-.52-.21c-.14-.14-.21-.32-.21-.52s.07-.37.21-.51c.14-.14.32-.21.52-.21s.37.07.51.21c.14.14.22.31.22.51s-.07.37-.22.52Z"/>
    <path class="cls-1" d="m3.93,6.3c-.2,0-.36-.07-.5-.21-.14-.14-.2-.3-.2-.5v-2.86c0-.19.07-.36.2-.5.14-.14.31-.21.5-.21h.01c.19,0,.36.07.5.21.14.14.21.3.21.5v2.86c0,.2-.07.36-.21.5-.14.14-.3.21-.5.21h-.01Z"/>
    <path class="cls-1" d="m8.53,5.78c0,.11-.03.21-.1.29-.07.09-.15.15-.26.17-.22.06-.44.09-.67.09-.66,0-1.22-.21-1.68-.64-.47-.43-.7-.94-.7-1.54s.23-1.12.7-1.55c.46-.43,1.03-.64,1.68-.64.23,0,.46.03.67.09.1.03.19.09.26.17.06.09.1.19.1.29v.03c0,.16-.06.28-.18.38-.12.1-.26.13-.42.1-.31-.06-.61-.04-.91.08-.17.07-.31.19-.41.37-.1.17-.15.37-.15.58v.05c0,.33.11.6.32.83.21.23.47.35.77.35.12.01.25.01.4-.01.15-.02.28.01.39.11.12.1.17.22.17.37h0Z"/>
    <path class="cls-1" d="m12.98,5.28c.15.2.16.41.05.63-.11.22-.29.33-.54.33h-.02c-.22,0-.4-.1-.51-.29l-1.15-1.63-.19.18v1.03c0,.19-.07.36-.21.5-.14.14-.3.21-.5.21h-.01c-.2,0-.36-.07-.5-.21-.14-.14-.21-.3-.21-.5V.71c0-.19.07-.36.21-.5.14-.14.3-.21.5-.21h.01c.2,0,.36.07.5.21.14.14.21.3.21.5v2.02c0,.05.03.07.08.06.05-.01.1-.05.14-.1l1.2-1.25c.11-.12.25-.19.41-.19h.01c.23,0,.39.1.49.31.1.21.07.4-.07.58l-1.13,1.3,1.23,1.85Z"/>
    <path class="cls-1" d="m17.85,5.9c-.03.11-.08.2-.17.28-.09.07-.2.11-.31.11-.42,0-.86,0-1.3,0-.04,0-.09,0-.13,0-.04,0-.09,0-.13,0-.62,0-1.15-.21-1.59-.64-.44-.43-.66-.94-.66-1.54s.22-1.12.66-1.55c.44-.43.97-.64,1.59-.64.04,0,.09,0,.13,0,.04,0,.09,0,.13,0,.62,0,1.15.21,1.59.64.44.43.66.94.66,1.55h0c0,.12-.04.21-.13.29-.08.08-.18.12-.3.12h-3.07c.09.22.23.41.43.54.2.14.43.21.68.21h1.43c.16,0,.29.06.39.19.1.13.14.27.1.43h0Zm-1.92-2.95c-.25,0-.47.07-.67.2-.2.13-.34.31-.43.52h2.2c-.09-.22-.23-.39-.43-.52-.2-.14-.43-.2-.67-.2Z"/>
    <path class="cls-1" d="m21.16,5.18c.1.05.17.14.19.27.02.11,0,.24-.04.37-.12.32-.29.48-.51.48-.5,0-.87-.22-1.1-.67-.19-.36-.28-.85-.29-1.46v-1.28h-.18c-.12,0-.23-.04-.32-.13-.09-.09-.13-.19-.13-.32h0c0-.13.04-.23.13-.32.09-.09.19-.13.32-.13h.18v-.37c0-.22.09-.4.26-.53.17-.13.36-.17.58-.11h.02c.14.04.26.12.35.24.09.12.14.26.14.4v.37h.4c.12,0,.22.04.31.13.09.09.13.19.13.31h0c0,.13-.04.24-.13.32-.09.09-.19.13-.31.13h-.4v1.37c0,.48.14.8.41.93Z"/>
  </g>
  <g>
    <path class="cls-2" d="m26.88,3.02c.16,0,.29.06.41.17.11.11.17.25.17.41v1.78c0,.22-.07.42-.21.59-.14.17-.32.28-.53.32-.11.02-.21.04-.32.06-.34.07-.7.1-1.08.1-1.06,0-1.88-.28-2.47-.85-.56-.53-.83-1.23-.83-2.1,0-.97.34-1.74,1.01-2.31.63-.54,1.44-.81,2.44-.81.25,0,.52.01.83.03.14,0,.25.07.32.19.07.12.09.24.04.37h0c-.1.27-.3.4-.58.4h-.71c-.6,0-1.1.22-1.5.66-.41.44-.58.96-.53,1.56.04.51.27.94.68,1.31.41.36.88.55,1.39.55h.19c.14,0,.26-.05.35-.15.1-.1.15-.21.15-.35v-.68c0-.09-.03-.17-.1-.23-.06-.06-.14-.1-.23-.1h-.4c-.16,0-.26-.08-.31-.24h0c-.05-.18-.02-.33.09-.47.11-.14.25-.21.42-.21h1.33Z"/>
    <path class="cls-2" d="m30.41,1.83c.63,0,1.16.22,1.6.67.44.44.67.98.67,1.6s-.22,1.16-.67,1.6c-.44.44-.98.67-1.6.67-.04,0-.09,0-.13,0-.05,0-.09,0-.13,0-.63,0-1.16-.22-1.6-.67-.44-.44-.66-.98-.66-1.6s.22-1.16.66-1.6c.44-.44.98-.67,1.6-.67.04,0,.09,0,.13,0,.04,0,.08,0,.13,0Zm-.13,3.47c.29,0,.55-.12.76-.35.21-.23.31-.51.31-.84s-.1-.61-.31-.84c-.21-.23-.46-.35-.76-.35s-.55.12-.76.35c-.21.23-.32.51-.32.84s.11.61.32.84c.21.24.46.35.76.35Z"/>
  </g>
</svg>