<?xml version="1.0" encoding="UTF-8"?>
<svg id="Layer_1" data-name="Layer 1" xmlns="http://www.w3.org/2000/svg" viewBox="0 0 600 500">
  <defs>
    <style>
      .cls-1 {
        fill: #f68609;
      }

      .cls-2 {
        fill: #fff;
      }

      .cls-3 {
        fill: #0979f6;
      }
    </style>
  </defs>
  <rect class="cls-1" x="-48" y="-32" width="718" height="570"/>
  <path class="cls-3" d="M183.46,232.43c-1.37,1.37-3.03,2.06-4.99,2.06s-3.62-.69-5.09-2.06c-1.37-1.37-2.06-3.13-2.06-5.09s.69-3.62,2.06-4.99,3.13-2.06,5.09-2.06,3.62,.69,4.99,2.06,2.15,3.03,2.15,4.99-.69,3.62-2.15,5.09Z"/>
  <g>
    <path class="cls-2" d="M163.3,269.14c.98,.49,1.66,1.37,1.86,2.64,.2,1.08,0,2.35-.39,3.62-1.17,3.13-2.84,4.7-4.99,4.7-4.89,0-8.52-2.15-10.77-6.56-1.86-3.52-2.74-8.32-2.84-14.29v-12.53h-1.76c-1.17,0-2.25-.39-3.13-1.27s-1.27-1.86-1.27-3.13h0c0-1.27,.39-2.25,1.27-3.13s1.86-1.27,3.13-1.27h1.76v-3.62c0-2.15,.88-3.92,2.55-5.19s3.52-1.66,5.68-1.08h.2c1.37,.39,2.55,1.17,3.43,2.35s1.37,2.55,1.37,3.92v3.62h3.92c1.17,0,2.15,.39,3.03,1.27s1.27,1.86,1.27,3.03h0c0,1.27-.39,2.35-1.27,3.13-.88,.88-1.86,1.27-3.03,1.27h-3.92v13.41c0,4.7,1.37,7.83,4.01,9.1h-.11Z"/>
    <path class="cls-2" d="M178.57,280.1c-1.96,0-3.52-.69-4.89-2.06s-1.96-2.94-1.96-4.89v-28c0-1.86,.69-3.52,1.96-4.89,1.37-1.37,3.03-2.06,4.89-2.06h.1c1.86,0,3.52,.69,4.89,2.06s2.06,2.94,2.06,4.89v28c0,1.96-.69,3.52-2.06,4.89s-2.94,2.06-4.89,2.06h-.1Z"/>
    <path class="cls-2" d="M223.6,275.01c0,1.08-.29,2.06-.98,2.84-.69,.88-1.47,1.47-2.55,1.66-2.15,.59-4.31,.88-6.56,.88-6.46,0-11.94-2.06-16.45-6.26-4.6-4.21-6.85-9.2-6.85-15.07s2.25-10.96,6.85-15.17c4.5-4.21,10.08-6.26,16.45-6.26,2.25,0,4.5,.29,6.56,.88,.98,.29,1.86,.88,2.55,1.66,.59,.88,.98,1.86,.98,2.84v.29c0,1.57-.59,2.74-1.76,3.72s-2.55,1.27-4.11,.98c-3.03-.59-5.97-.39-8.91,.78-1.66,.69-3.03,1.86-4.01,3.62-.98,1.66-1.47,3.62-1.47,5.68v.49c0,3.23,1.08,5.87,3.13,8.12s4.6,3.43,7.54,3.43c1.17,.1,2.45,.1,3.92-.1s2.74,.1,3.82,1.08c1.17,.98,1.66,2.15,1.66,3.62h0l.2,.29h-.01Z"/>
    <path class="cls-2" d="M267.16,270.12c1.47,1.96,1.57,4.01,.49,6.17-1.08,2.15-2.84,3.23-5.29,3.23h-.2c-2.15,0-3.92-.98-4.99-2.84l-11.26-15.96-1.86,1.76v10.08c0,1.86-.69,3.52-2.06,4.89s-2.94,2.06-4.89,2.06h-.1c-1.96,0-3.52-.69-4.89-2.06s-2.06-2.94-2.06-4.89v-47.18c0-1.86,.69-3.52,2.06-4.89s2.94-2.06,4.89-2.06h.1c1.96,0,3.52,.69,4.89,2.06s2.06,2.94,2.06,4.89v19.77c0,.49,.29,.69,.78,.59s.98-.49,1.37-.98l11.75-12.24c1.08-1.17,2.45-1.86,4.01-1.86h.1c2.25,0,3.82,.98,4.8,3.03,.98,2.06,.69,3.92-.69,5.68l-11.06,12.73,12.04,18.11v-.1h.01Z"/>
    <path class="cls-2" d="M314.83,276.19c-.29,1.08-.78,1.96-1.66,2.74-.88,.69-1.96,1.08-3.03,1.08h-15.27c-6.07,0-11.26-2.06-15.56-6.26-4.31-4.21-6.46-9.2-6.46-15.07s2.15-10.96,6.46-15.17,9.5-6.26,15.56-6.26h2.55c6.07,0,11.26,2.06,15.56,6.26s6.46,9.2,6.46,15.17h0c0,1.17-.39,2.06-1.27,2.84-.78,.78-1.76,1.17-2.94,1.17h-30.05c.88,2.15,2.25,4.01,4.21,5.29,1.96,1.37,4.21,2.06,6.66,2.06h14c1.57,0,2.84,.59,3.82,1.86s1.37,2.64,.98,4.21h0v.1l-.02-.02Zm-18.79-28.88c-2.45,0-4.6,.69-6.56,1.96s-3.33,3.03-4.21,5.09h21.54c-.88-2.15-2.25-3.82-4.21-5.09-1.96-1.37-4.21-1.96-6.56-1.96h0Z"/>
    <path class="cls-2" d="M347.23,269.14c.98,.49,1.66,1.37,1.86,2.64,.2,1.08,0,2.35-.39,3.62-1.17,3.13-2.84,4.7-4.99,4.7-4.89,0-8.52-2.15-10.77-6.56-1.86-3.52-2.74-8.32-2.84-14.29v-12.53h-1.76c-1.17,0-2.25-.39-3.13-1.27s-1.27-1.86-1.27-3.13h0c0-1.27,.39-2.25,1.27-3.13,.88-.88,1.86-1.27,3.13-1.27h1.76v-3.62c0-2.15,.88-3.92,2.55-5.19s3.52-1.66,5.68-1.08h.2c1.37,.39,2.55,1.17,3.43,2.35s1.37,2.55,1.37,3.92v3.62h3.92c1.17,0,2.15,.39,3.03,1.27s1.27,1.86,1.27,3.03h0c0,1.27-.39,2.35-1.27,3.13-.88,.88-1.86,1.27-3.03,1.27h-3.92v13.41c0,4.7,1.37,7.83,4.01,9.1h-.11Z"/>
  </g>
  <path class="cls-3" d="M403.22,247.99c1.57,0,2.84,.59,4.01,1.66,1.08,1.08,1.66,2.45,1.66,4.01v17.42c0,2.15-.69,4.11-2.06,5.78s-3.13,2.74-5.19,3.13c-1.08,.2-2.06,.39-3.13,.59-3.33,.69-6.85,.98-10.57,.98-10.38,0-18.4-2.74-24.18-8.32-5.48-5.19-8.12-12.04-8.12-20.56,0-9.5,3.33-17.03,9.89-22.61,6.17-5.29,14.1-7.93,23.88-7.93,2.45,0,5.09,.1,8.12,.29,1.37,0,2.45,.69,3.13,1.86,.69,1.17,.88,2.35,.39,3.62h0c-.98,2.64-2.94,3.92-5.68,3.92h-6.95c-5.87,0-10.77,2.15-14.68,6.46-4.01,4.31-5.68,9.4-5.19,15.27,.39,4.99,2.64,9.2,6.66,12.82,4.01,3.52,8.61,5.38,13.61,5.38h1.86c1.37,0,2.55-.49,3.43-1.47,.98-.98,1.47-2.06,1.47-3.43v-6.66c0-.88-.29-1.66-.98-2.25-.59-.59-1.37-.98-2.25-.98h-3.92c-1.57,0-2.55-.78-3.03-2.35h0c-.49-1.76-.2-3.23,.88-4.6s2.45-2.06,4.11-2.06h12.82v.03Z"/>
  <path class="cls-3" d="M437.78,236.34c6.17,0,11.36,2.15,15.66,6.56,4.31,4.31,6.56,9.59,6.56,15.66s-2.15,11.36-6.56,15.66c-4.31,4.31-9.59,6.56-15.66,6.56h-2.55c-6.17,0-11.36-2.15-15.66-6.56-4.31-4.31-6.46-9.59-6.46-15.66s2.15-11.36,6.46-15.66,9.59-6.56,15.66-6.56h2.55Zm-1.27,33.97c2.84,0,5.38-1.17,7.44-3.43,2.06-2.25,3.03-4.99,3.03-8.22s-.98-5.97-3.03-8.22c-2.06-2.25-4.5-3.43-7.44-3.43s-5.38,1.17-7.44,3.43c-2.06,2.25-3.13,4.99-3.13,8.22s1.08,5.97,3.13,8.22c2.06,2.35,4.5,3.43,7.44,3.43Z"/>
  <path class="cls-3" d="M724.98,81.14c-54.45,30.75-109,61.58-173.9,78.83-64.91,17.26-140.36,20.92-186.92-17.42-46.53-38.52-64.36-119.09-113.24-155.13C202.03-48.61-45.19-106.1-125.14-97.62L439.94-316.59,724.98,81.14Z"/>
  <path class="cls-3" d="M-213.27,292.43c61.35-27.52,122.64-55.15,182.52-44.05,59.76,11.16,118.11,61.05,157.53,105.14,39.42,44.08,84.53,73.49,131.21,101.48,46.57,28.04,231.3,73.36,304,91L-11.37,729.2-213.27,292.43Z"/>
</svg>