<?xml version="1.0" encoding="UTF-8"?>
<svg id="Layer_1" data-name="Layer 1" xmlns="http://www.w3.org/2000/svg" viewBox="0 0 40 40">
  <defs>
    <style>
      .cls-1 {
        fill: #c4a9f9;
      }
    </style>
  </defs>
  <path class="cls-1" d="m27.69,37.78h-15.38c-1.46,0-2.65-1.19-2.65-2.65v-2.4h20.68v2.4c0,1.46-1.19,2.65-2.65,2.65h0ZM12.31,2.22h15.38c1.46,0,2.65,1.19,2.65,2.65v1.73H9.66v-1.73c0-1.46,1.19-2.65,2.65-2.65h0Zm-2.65,6.6h20.68v21.68H9.66V8.82h0ZM27.69,0h-15.38C9.62,0,7.44,2.19,7.44,4.87v30.26c0,2.69,2.19,4.87,4.87,4.87h15.38c2.69,0,4.87-2.19,4.87-4.87V4.87C32.56,2.19,30.38,0,27.69,0h0Z"/>
  <path class="cls-1" d="m17.41,5.37h5.18c.44,0,.79-.36.79-.79s-.36-.79-.79-.79h-5.18c-.44,0-.79.36-.79.79s.36.79.79.79h0Z"/>
  <path class="cls-1" d="m20,33.37c-.88,0-1.59.71-1.59,1.59s.71,1.59,1.59,1.59,1.59-.71,1.59-1.59-.71-1.59-1.59-1.59h0Z"/>
</svg>