<?xml version="1.0" encoding="UTF-8"?>
<svg id="Layer_1" data-name="Layer 1" xmlns="http://www.w3.org/2000/svg" viewBox="0 0 40 40">
  <defs>
    <style>
      .cls-1 {
        fill: #c4a9f9;
        fill-rule: evenodd;
      }
    </style>
  </defs>
  <path class="cls-1" d="m32.3,4.67l-24.81-.29,3.04-3.03c.18-.18.18-.48,0-.66-.18-.18-.48-.18-.66,0l-3.81,3.8c-.09.09-.14.22-.14.34h0c0,.17.08.31.21.4l3.74,3.75c.09.09.21.14.33.14s.24-.05.33-.14c.18-.18.18-.48,0-.66l-2.99-3,24.75.29c3.74.04,6.78,3.08,6.78,6.77s-3.04,6.77-6.77,6.77h-2.88l.02-2.57s0,0,0,0c0,0,0,0,0,0h0s0-.02,0-.03c0-.01,0-.02,0-.04,0-.01,0-.02,0-.03,0,0,0-.02,0-.03,0-.01,0-.02-.01-.04,0-.02-.01-.03-.02-.05,0,0,0-.02-.01-.02,0-.01-.01-.02-.02-.03,0,0,0-.01-.01-.02,0-.01-.02-.02-.03-.03,0,0,0-.01-.01-.02,0,0-.02-.02-.03-.03,0,0,0,0-.02-.01-.01,0-.02-.02-.03-.02,0,0,0,0-.01,0,0,0,0,0,0,0,0,0,0,0-.01,0l-13.48-7.65c-.14-.08-.31-.08-.45,0l-6.58,3.45L.27,15.95s0,0-.01,0c-.01,0-.03.01-.04.02-.14.09-.22.24-.22.4v17.05c0,.19.12.37.3.44l14.08,5.55s0,0,0,0c.01,0,.02,0,.04.01,0,0,.01,0,.02,0,0,0,.01,0,.02,0,0,0,.01,0,.02,0,0,0,.02,0,.02,0,0,0,0,0,.01,0,.01,0,.03,0,.04,0s.03,0,.04,0c0,0,0,0,.01,0,0,0,.02,0,.03,0,0,0,0,0,.01,0,.01,0,.02,0,.03,0,0,0,0,0,0,0,.01,0,.03,0,.04-.01,0,0,0,0,0,0l4.92-2.02s.07-.02.1-.04l3.42-1.4c.12,0,.23-.05.32-.13l5.51-2.26c.18-.07.29-.24.29-.43l.1-13.04h2.89c4.25,0,7.71-3.46,7.71-7.71,0-4.2-3.46-7.66-7.7-7.71Zm-16.82,4.78l12.47,7.08-4.75,2.26-11.91-7.14,4.19-2.2Zm-8.75,4.48l11.81,7.08-2.22,1.06-1.78.85-.97-.49L1.54,16.39l5.18-2.46ZM.94,33.11v-15.97l13.12,6.58v2.68s0,.05,0,.07l.02,11.82L.94,33.11Zm14.08,5.17l-.03-12.05v-2.5l2.94-1.4,1.12-.53v14.83l-4.03,1.65Zm4.97-2.04v-15.19s0-.01,0-.02c0-.01,0-.02,0-.03,0,0,0-.02,0-.03,0-.01,0-.02,0-.03,0,0,0-.02,0-.03,0-.01,0-.02-.01-.03,0,0,0-.02-.01-.02,0-.01,0-.02-.02-.03,0,0,0,0,0-.01-.02-.04-.06-.08-.09-.11,0,0,0,0-.01-.01,0,0-.02-.01-.03-.02,0,0-.01,0-.02-.01,0,0,0,0,0,0,0,0,0,0,0,0l-12.03-7.2,1.37-.65,1.2-.63,12.39,7.42v15.54l-2.71,1.11Zm3.64-1.49v-15.13l4.85-2.3-.02,2.31s0,0,0,0c0,0,0,0,0,0l-.1,13.18-4.73,1.94Z"/>
</svg>