<?xml version="1.0" encoding="UTF-8"?>
<svg id="Layer_1" data-name="Layer 1" xmlns="http://www.w3.org/2000/svg" viewBox="0 0 40 40">
  <defs>
    <style>
      .cls-1 {
        fill: #c4a9f9;
      }
    </style>
  </defs>
  <path class="cls-1" d="m38.71,21.05h-.28c.29.6.49,1.24.59,1.92h.16c.25,0,.46.21.46.46s-.21.46-.46.46h-.09s0,0,0,.01c0,.39-.04.78-.1,1.16h-2.31c.17.28.29.59.36.92h2.33c.21,0,.4-.15.45-.35.14-.57.2-1.15.2-1.73,0-1.26-.31-2.44-.87-3.48.02.05.03.11.03.17,0,.25-.21.46-.46.46h0Z"/>
  <polygon class="cls-1" points="39.1 20.35 39.1 20.36 39.1 20.35 39.1 20.35"/>
  <path class="cls-1" d="m30.61,17.32h1.71s.08.02.12.02c.01,0,.02,0,.03,0,.37,0,.74.03,1.1.09v-.09c0-.25.21-.46.46-.46s.46.21.46.46v.31c1.38.44,2.57,1.33,3.39,2.48h.83c.16,0,.3.08.38.2-1.26-2.31-3.71-3.89-6.52-3.92-.04,0-.08-.02-.12-.02h-1.83v.92h0Z"/>
  <path class="cls-1" d="m31.4,25.06h-.79v.46c0,.25-.21.46-.46.46h.89c.07-.33.19-.64.36-.92h0Z"/>
  <path class="cls-1" d="m14.78,13.12v11.96c.23-.39.54-.73.92-.99v-10.51h13.99v9.85c0-.25.21-.46.46-.46h.46v-9.85c0-.25-.21-.46-.46-.46h-14.91c-.25,0-.46.21-.46.46h0Z"/>
  <path class="cls-1" d="m30.61,25.52v-1.63h-.46c-.25,0-.46-.21-.46-.46v1.63h-9.64c.17.28.29.59.36.92h9.74c.25,0,.46-.21.46-.46h0Z"/>
  <path class="cls-1" d="m19.56,26.62c0,1.18-.96,2.14-2.14,2.14s-2.14-.96-2.14-2.14.96-2.14,2.14-2.14,2.14.96,2.14,2.14h0Zm.49-1.55c-.53-.9-1.51-1.5-2.63-1.5-.64,0-1.23.2-1.72.53-.37.26-.69.59-.92.99-.26.45-.42.98-.42,1.54,0,1.69,1.37,3.06,3.06,3.06s3.06-1.37,3.06-3.06c0-.22-.02-.43-.07-.63-.07-.33-.19-.64-.36-.92h0Z"/>
  <path class="cls-1" d="m17.42,25.3c-.73,0-1.32.59-1.32,1.32s.59,1.32,1.32,1.32,1.32-.59,1.32-1.32-.59-1.32-1.32-1.32h0Z"/>
  <path class="cls-1" d="m36.17,26.62c0,1.18-.96,2.14-2.14,2.14s-2.14-.96-2.14-2.14.96-2.14,2.14-2.14,2.14.96,2.14,2.14h0Zm.49-1.55c-.3-.5-.73-.91-1.25-1.17h-2.76c-.52.26-.96.67-1.25,1.17-.17.28-.29.59-.36.92-.04.2-.07.42-.07.63,0,1.69,1.37,3.06,3.06,3.06s3.06-1.37,3.06-3.06c0-.22-.02-.43-.07-.63-.07-.33-.19-.64-.36-.92h0Z"/>
  <path class="cls-1" d="m30.15,23.89h9.02c.25,0,.46-.21.46-.46s-.21-.46-.46-.46h-9.02c-.25,0-.46.21-.46.46s.21.46.46.46h0Z"/>
  <path class="cls-1" d="m38.71,20.13h-4.22v-2.8c0-.25-.21-.46-.46-.46s-.46.21-.46.46v3.26c0,.25.21.46.46.46h4.68c.25,0,.46-.21.46-.46,0-.06-.01-.12-.03-.17,0-.02-.02-.04-.03-.06,0,0,0,0,0,0,0,0,0-.02-.01-.02-.08-.12-.22-.2-.38-.2h0Z"/>
  <path class="cls-1" d="m34.03,25.3c-.73,0-1.32.59-1.32,1.32s.59,1.32,1.32,1.32,1.32-.59,1.32-1.32-.59-1.32-1.32-1.32h0Z"/>
  <path class="cls-1" d="m9.37,13.11h4.53c.25,0,.46-.21.46-.46s-.21-.46-.46-.46h-4.53c-.25,0-.46.21-.46.46s.21.46.46.46h0Z"/>
  <path class="cls-1" d="m9.77,14.99c-.25,0-.46.21-.46.46s.21.46.46.46h3.46c.25,0,.46-.21.46-.46s-.21-.46-.46-.46h-3.46Z"/>
  <path class="cls-1" d="m12.85,21.53c.25,0,.46-.21.46-.46s-.21-.46-.46-.46h-3.46c-.25,0-.46.21-.46.46s.21.46.46.46h3.46Z"/>
  <path class="cls-1" d="m13.34,11.24h5.4c.25,0,.46-.21.46-.46s-.21-.46-.46-.46h-5.4c-.25,0-.46.21-.46.46s.21.46.46.46h0Z"/>
  <path class="cls-1" d="m6.66,15.9h1.12c.25,0,.46-.21.46-.46s-.21-.46-.46-.46h-1.12c-.25,0-.46.21-.46.46s.21.46.46.46h0Z"/>
  <path class="cls-1" d="m.46,18.12h12.98c.25,0,.46-.21.46-.46s-.21-.46-.46-.46H.46c-.25,0-.46.21-.46.46s.21.46.46.46H.46Z"/>
  <path class="cls-1" d="m1.67,23.88c0,.25.21.46.46.46h11.31c.25,0,.46-.21.46-.46s-.21-.46-.46-.46H2.13c-.25,0-.46.21-.46.46h0Z"/>
  <path class="cls-1" d="m17.42,16.43h8.05c.25,0,.46-.21.46-.46s-.21-.46-.46-.46h-8.05c-.25,0-.46.21-.46.46s.21.46.46.46h0Z"/>
  <path class="cls-1" d="m25.47,19.42c.25,0,.46-.21.46-.46s-.21-.46-.46-.46h-8.05c-.25,0-.46.21-.46.46s.21.46.46.46h8.05Z"/>
</svg>