<?xml version="1.0" encoding="UTF-8"?>
<svg id="Layer_1" data-name="Layer 1" xmlns="http://www.w3.org/2000/svg" viewBox="0 0 1920 532">
  <defs>
    <style>
      .cls-1 {
        fill: #aa8de5;
      }

      .cls-2 {
        fill: #5c3cab;
      }

      .cls-3 {
        fill: #c4a9f9;
      }

      .cls-4 {
        fill: #9071d2;
      }

      .cls-5 {
        fill: #7656be;
      }
    </style>
  </defs>
  <path class="cls-2" d="m-.41,25.99l45.88,1.49c45.88,1.28,137.63,4.27,228.96,13.87,91.54,9.6,182.44,25.82,273.98,21.98,91.33-3.84,183.08-28.17,274.41-19.2,91.54,8.96,182.44,50.78,273.98,68.71,91.33,17.71,183.08,11.31,274.41-6.4,91.54-17.92,182.44-46.94,273.98-65.51,91.33-18.56,183.08-26.25,228.96-30.3l45.88-3.84v531.31H-.41V25.99Z"/>
  <path class="cls-5" d="m-.41,209.49l45.88-14.51c45.88-14.72,137.63-43.74,228.96-57.61,91.54-13.87,182.44-12.59,273.98-14.94,91.33-2.56,183.08-8.96,274.41-10.03,91.54-1.07,182.44,3.2,273.98,26.25,91.33,23.26,183.08,65.08,274.41,87.91,91.54,22.83,182.44,26.25,273.98,8.11,91.33-18.14,183.08-57.83,228.96-77.88l45.88-19.84v401.15H-.41V209.49Z"/>
  <path class="cls-4" d="m-.41,260.71l45.88,8.96c45.88,8.75,137.63,26.67,228.96,23.69,91.54-2.77,182.44-26.25,273.98-27.31,91.33-1.07,183.08,20.27,274.41,29.87,91.54,9.6,182.44,7.47,273.98-2.77,91.33-10.46,183.08-28.81,274.41-32.86,91.54-3.84,182.44,6.83,273.98,4.27,91.33-2.35,183.08-18.14,228.96-25.82l45.88-7.9v307.27H-.41v-277.39Z"/>
  <path class="cls-1" d="m-.41,326.85l45.88-4.27c45.88-4.27,137.63-12.8,228.96-10.67,91.54,2.13,182.44,14.94,273.98,32.43,91.33,17.28,183.08,39.48,274.41,44.38,91.54,4.91,182.44-7.04,273.98-21.98,91.33-14.94,183.08-32.86,274.41-25.61,91.54,7.04,182.44,39.05,273.98,40.76,91.33,1.92,183.08-26.67,228.96-40.76l45.88-14.3v211.25H-.41v-211.25Z"/>
  <path class="cls-3" d="m-.41,390.87l45.88-.64c45.88-.85,137.63-2.13,228.96-4.05,91.54-1.71,182.44-3.84,273.98-5.55,91.33-1.92,183.08-3.2,274.41-1.92,91.54,1.49,182.44,5.76,273.98,13.23,91.33,7.47,183.08,18.14,274.41,29.87,91.54,11.74,182.44,24.54,273.98,26.25,91.33,1.92,183.08-7.47,228.96-11.95l45.88-4.69v106.69H-.41v-147.23Z"/>
</svg>