<?xml version="1.0" encoding="UTF-8"?>
<svg id="Layer_1" data-name="Layer 1" xmlns="http://www.w3.org/2000/svg" viewBox="0 0 1920 465">
  <defs>
    <style>
      .cls-1 {
        fill: #aa8de5;
      }

      .cls-2 {
        fill: #5c3cab;
      }

      .cls-3 {
        fill: #c4a9f9;
      }

      .cls-4 {
        fill: #9071d2;
      }

      .cls-5 {
        fill: #7656be;
      }
    </style>
  </defs>
  <path class="cls-2" d="m1921,455.86l-45.86-8.53c-45.86-8.53-137.58-25.6-228.87-25.17-91.51.21-182.37,18.13-273.88,19.41-91.29,1.49-183.01-13.44-274.3-33.27-91.51-20.05-182.37-44.79-273.88-38.18-91.29,6.83-183.01,45.22-274.3,62.28-91.51,17.06-182.37,12.8-273.88,14.5-91.29,1.92-183.01,9.6-228.87,13.65l-45.86,3.84V-.6s45.86,0,45.86,0c45.86,0,137.58,0,228.87,0,91.51,0,182.37,0,273.88,0,91.29,0,183.01,0,274.3,0,91.51,0,182.37,0,273.88,0,91.29,0,183.01,0,274.3,0,91.51,0,182.37,0,273.88,0,91.29,0,183.01,0,228.87,0h45.86s0,456.46,0,456.46Z"/>
  <path class="cls-5" d="m1921,330.02l-45.86-3.84c-45.86-4.05-137.58-11.73-228.87-5.76-91.51,5.97-182.37,26.02-273.88,27.3-91.29,1.49-183.01-15.57-274.3-29.01-91.51-13.65-182.37-23.46-273.88-27.09-91.29-3.63-183.01-.64-274.3-1.71-91.51-1.07-182.37-6.19-273.88-2.56-91.29,3.63-183.01,15.57-228.87,21.76l-45.86,5.97V-.6s45.86,0,45.86,0c45.86,0,137.58,0,228.87,0,91.51,0,182.37,0,273.88,0,91.29,0,183.01,0,274.3,0,91.51,0,182.37,0,273.88,0,91.29,0,183.01,0,274.3,0,91.51,0,182.37,0,273.88,0,91.29,0,183.01,0,228.87,0h45.86s0,330.62,0,330.62Z"/>
  <path class="cls-4" d="m1921,219.1l-45.86-1.49c-45.86-1.28-137.58-4.27-228.87,16.85-91.51,20.9-182.37,65.7-273.88,68.9-91.29,3.2-183.01-35.19-274.3-47.99-91.51-12.8-182.37,0-273.88,10.03-91.29,9.81-183.01,17.06-274.3,4.91-91.51-12.16-182.37-43.3-273.88-40.1-91.29,3.2-183.01,40.74-228.87,59.72L1.29,308.69V-.6s45.86,0,45.86,0c45.86,0,137.58,0,228.87,0,91.51,0,182.37,0,273.88,0,91.29,0,183.01,0,274.3,0,91.51,0,182.37,0,273.88,0,91.29,0,183.01,0,274.3,0,91.51,0,182.37,0,273.88,0,91.29,0,183.01,0,228.87,0h45.86s0,219.7,0,219.7Z"/>
  <path class="cls-1" d="m1921,227.63l-45.86,1.71c-45.86,1.92-137.58,5.33-228.87-5.33-91.51-10.67-182.37-35.41-273.88-32.21-91.29,3.2-183.01,34.34-274.3,34.34-91.51,0-182.37-31.14-273.88-52.26-91.29-20.9-183.01-31.57-274.3-17.28-91.51,14.08-182.37,53.33-273.88,57.59-91.29,4.27-183.01-26.45-228.87-41.59L1.29,157.24V-.6s45.86,0,45.86,0c45.86,0,137.58,0,228.87,0,91.51,0,182.37,0,273.88,0,91.29,0,183.01,0,274.3,0,91.51,0,182.37,0,273.88,0,91.29,0,183.01,0,274.3,0,91.51,0,182.37,0,273.88,0,91.29,0,183.01,0,228.87,0h45.86s0,228.23,0,228.23Z"/>
  <path class="cls-3" d="m1921,84.72l-45.86,5.76c-45.86,5.55-137.58,17.06-228.87,26.66-91.51,9.6-182.37,17.28-273.88,23.68-91.29,6.4-183.01,11.52-274.3,12.8-91.51,1.49-182.37-.64-273.88-2.35-91.29-1.92-183.01-3.2-274.3-14.93-91.51-11.73-182.37-33.91-273.88-46.93-91.29-13.22-183.01-17.49-228.87-19.62l-45.86-2.13V-.6s45.86,0,45.86,0c45.86,0,137.58,0,228.87,0,91.51,0,182.37,0,273.88,0,91.29,0,183.01,0,274.3,0,91.51,0,182.37,0,273.88,0,91.29,0,183.01,0,274.3,0,91.51,0,182.37,0,273.88,0,91.29,0,183.01,0,228.87,0h45.86s0,85.32,0,85.32Z"/>
</svg>