<?xml version="1.0" encoding="UTF-8"?>
<svg id="Layer_1" data-name="Layer 1" xmlns="http://www.w3.org/2000/svg" viewBox="0 0 320 72">
  <defs>
    <style>
      .cls-1 {
        fill: #fff;
      }
    </style>
  </defs>
  <path class="cls-1" d="M3.18,64.31C9.21,54.93,35.53,23.48,46.96,8.08H7.04c-1.67,0-3.21-1.55-3.21-3.21,0-1.8,1.54-3.21,3.21-3.21H53.38c1.67,0,3.08,1.54,3.08,3.33,0,.51-.13,1.15-.51,1.67-7.32,10.9-34.28,43.26-44.55,57.25H54.79c1.8,0,3.21,1.41,3.21,3.21,0,1.67-1.41,3.21-3.21,3.21H5.36c-1.67,0-3.21-1.54-3.21-3.21,0-1.16,.64-2.31,1.02-2.82Z"/>
  <path class="cls-1" d="M91.69,4.87c0-1.67,1.28-3.21,2.82-3.21h35.95c1.79,0,3.21,1.41,3.21,3.21,0,1.66-1.42,3.21-3.21,3.21h-32.35V30.42h26.82c1.8,0,3.21,1.41,3.21,3.21,0,1.66-1.41,3.21-3.21,3.21h-26.82v27.08h32.6c1.8,0,3.21,1.41,3.21,3.21,0,1.67-1.41,3.21-3.21,3.21h-35.81c-1.67,0-3.21-1.54-3.21-3.21V4.87Z"/>
  <path class="cls-1" d="M173.51,13.34v53.79c0,1.8-1.41,3.21-3.21,3.21-1.67,0-3.21-1.54-3.21-3.21V4.87c0-1.8,1.54-3.21,3.07-3.21,1.93,0,2.82,.38,3.47,1.28,8.6,11.43,29.27,37.24,43.39,55.72V4.87c0-1.8,1.54-3.21,3.21-3.21,1.8,0,3.21,1.41,3.21,3.21v62.26c0,1.8-1.41,3.21-3.08,3.21-1.8,0-2.82-.39-3.46-1.29-11.81-15.78-31.84-40.82-43.39-55.72Z"/>
  <path class="cls-1" d="M267.91,13.34v53.79c0,1.8-1.41,3.21-3.21,3.21-1.67,0-3.21-1.54-3.21-3.21V4.87c0-1.8,1.54-3.21,3.07-3.21,1.93,0,2.83,.38,3.47,1.28,8.6,11.43,29.27,37.24,43.39,55.72V4.87c0-1.8,1.54-3.21,3.21-3.21,1.8,0,3.21,1.41,3.21,3.21v62.26c0,1.8-1.41,3.21-3.08,3.21-1.8,0-2.82-.39-3.46-1.29-11.81-15.78-31.84-40.82-43.39-55.72Z"/>
</svg>