<?xml version="1.0" encoding="UTF-8"?>
<svg id="Layer_1" data-name="Layer 1" xmlns="http://www.w3.org/2000/svg" viewBox="0 0 600 500">
  <defs>
    <style>
      .cls-1 {
        fill: #9071d2;
      }

      .cls-2 {
        fill: #aa8de5;
      }

      .cls-3 {
        fill: #c4a9f9;
      }

      .cls-4 {
        fill: #5c3cab;
      }

      .cls-5 {
        fill: #2d2d2d;
      }

      .cls-6 {
        fill: #7656be;
      }
    </style>
  </defs>
  <rect class="cls-4" x="-12" y="-15" width="622" height="523"/>
  <g>
    <path class="cls-4" d="M-647.2,10.01l45.26,1.47c45.26,1.26,135.76,4.21,225.86,13.68,90.3,9.47,179.97,25.47,270.27,21.68C-15.73,43.05,74.77,19.05,164.87,27.9c90.3,8.84,179.97,50.09,270.27,67.78,90.09,17.47,180.6,11.16,270.69-6.31,90.3-17.68,179.97-46.3,270.27-64.62,90.09-18.31,180.6-25.89,225.86-29.89l45.26-3.79V515.18H-647.2V10.01Z"/>
    <path class="cls-6" d="M-647.2,191.02l45.26-14.31c45.26-14.52,135.76-43.15,225.86-56.83,90.3-13.68,179.97-12.42,270.27-14.74,90.09-2.53,180.6-8.84,270.69-9.89,90.3-1.06,179.97,3.16,270.27,25.89,90.09,22.94,180.6,64.2,270.69,86.72,90.3,22.52,179.97,25.89,270.27,8,90.09-17.89,180.6-57.05,225.86-76.82l45.26-19.57v395.71H-647.2V191.02Z"/>
    <path class="cls-1" d="M-647.2,241.55l45.26,8.84c45.26,8.63,135.76,26.31,225.86,23.37,90.3-2.73,179.97-25.89,270.27-26.94,90.09-1.06,180.6,20,270.69,29.47,90.3,9.47,179.97,7.37,270.27-2.73,90.09-10.32,180.6-28.42,270.69-32.41,90.3-3.79,179.97,6.74,270.27,4.21,90.09-2.32,180.6-17.89,225.86-25.47l45.26-7.79v303.1H-647.2V241.56h0Z"/>
    <path class="cls-2" d="M-647.2,306.79l45.26-4.21c45.26-4.21,135.76-12.63,225.86-10.53,90.3,2.1,179.97,14.74,270.27,31.99,90.09,17.05,180.6,38.94,270.69,43.78,90.3,4.84,179.97-6.94,270.27-21.68,90.09-14.74,180.6-32.41,270.69-25.26,90.3,6.94,179.97,38.52,270.27,40.21,90.09,1.89,180.6-26.31,225.86-40.21l45.26-14.11v208.39H-647.2v-208.37h0Z"/>
    <path class="cls-3" d="M-647.2,369.94l45.26-.63c45.26-.84,135.76-2.1,225.86-4,90.3-1.69,179.97-3.79,270.27-5.47,90.09-1.89,180.6-3.16,270.69-1.89,90.3,1.47,179.97,5.68,270.27,13.05,90.09,7.37,180.6,17.89,270.69,29.47,90.3,11.58,179.97,24.21,270.27,25.89,90.09,1.89,180.6-7.37,225.86-11.79l45.26-4.63v105.24H-647.2v-145.23h0Z"/>
  </g>
  <g>
    <path class="cls-5" d="M156.69,275.88c5.52-8.57,29.58-37.32,40.02-51.41h-36.5c-1.53,0-2.93-1.41-2.93-2.93,0-1.64,1.41-2.93,2.93-2.93h42.37c1.53,0,2.82,1.41,2.82,3.05,0,.47-.12,1.06-.47,1.53-6.69,9.98-31.34,39.55-40.73,52.35h39.67c1.64,0,2.93,1.29,2.93,2.93,0,1.53-1.29,2.93-2.93,2.93h-45.19c-1.53,0-2.93-1.41-2.93-2.93,0-1.06,.59-2.11,.94-2.58h0Z"/>
    <path class="cls-5" d="M237.56,221.54c0-1.53,1.17-2.93,2.58-2.93h32.86c1.64,0,2.93,1.29,2.93,2.93,0,1.53-1.29,2.93-2.93,2.93h-29.58v20.42h24.53c1.64,0,2.93,1.29,2.93,2.93,0,1.53-1.29,2.93-2.93,2.93h-24.53v24.77h29.81c1.64,0,2.93,1.29,2.93,2.93,0,1.53-1.29,2.93-2.93,2.93h-32.75c-1.53,0-2.93-1.41-2.93-2.93v-56.92h0Z"/>
    <path class="cls-5" d="M312.32,229.28v49.18c0,1.64-1.29,2.93-2.93,2.93-1.53,0-2.93-1.41-2.93-2.93v-56.92c0-1.64,1.41-2.93,2.82-2.93,1.76,0,2.58,.35,3.17,1.17,7.86,10.45,26.76,34.04,39.67,50.94v-49.18c0-1.64,1.41-2.93,2.93-2.93,1.64,0,2.93,1.29,2.93,2.93v56.92c0,1.64-1.29,2.93-2.82,2.93-1.64,0-2.58-.35-3.17-1.17-10.8-14.44-29.11-37.32-39.67-50.94Z"/>
    <path class="cls-5" d="M398.59,229.28v49.18c0,1.64-1.29,2.93-2.93,2.93-1.53,0-2.93-1.41-2.93-2.93v-56.92c0-1.64,1.41-2.93,2.82-2.93,1.76,0,2.58,.35,3.17,1.17,7.86,10.45,26.76,34.04,39.67,50.94v-49.18c0-1.64,1.41-2.93,2.93-2.93,1.64,0,2.93,1.29,2.93,2.93v56.92c0,1.64-1.29,2.93-2.82,2.93-1.64,0-2.58-.35-3.17-1.17-10.8-14.44-29.11-37.32-39.67-50.94h0Z"/>
  </g>
</svg>