<?xml version="1.0" encoding="UTF-8"?>
<svg id="Layer_3" data-name="Layer 3" xmlns="http://www.w3.org/2000/svg" viewBox="0 0 500 500">
  <defs>
    <style>
      .cls-1 {
        fill: #6ee960;
      }
    </style>
  </defs>
  <path class="cls-1" d="m342.11,184.61c-30.61.03-61.22.02-91.82.02,0,0,0,.02,0,.02-.61,0-1.23,0-1.84,0-29.89,0-59.78,0-89.67,0-.44,0-.88.08-1.31.1-.89.04-.82.59-.7,1.1.25,1.11.27,2.23.38,3.35.67,7.18,1.32,14.35,1.96,21.53.32,3.57.62,7.14.91,10.71.02.27.06.46.39.45.31,0,.61,0,.92,0,46.53,0,93.05.01,139.58.02.2,0,.41.02.61,0,.67-.1.85.27.78.84-.13.93-.16,1.88-.26,2.81-.23,2.27-.52,4.53-.63,6.82-.04.83-.06,1.68-.18,2.51-.19,1.4-.39,2.79-.43,4.2-.05,1.67-.14,3.36-.41,5.01-.31,1.86-.42,3.74-.55,5.6-.18,2.47-.33,4.95-.58,7.42-.06.64-.31,1.27-.26,1.9.06.9-.29,1.04-1.1,1.03-16.23-.01-32.45.01-48.68.01-28.22,0-56.43,0-84.65-.01-.24,0-.48,0-.72,0-.18,0-.34.06-.35.28,0,.97-.09,1.95,0,2.91.12,1.27.39,2.53.58,3.79.2,1.34.14,2.7.29,4.06.29,2.58.49,5.18.76,7.76.16,1.53.05,3.09.27,4.59.31,2.1.29,4.22.58,6.3.15,1.07-.08,2.19.22,3.16.32,1.04.45,2.09.39,3.1-.07,1.06.24,1.23,1.2,1.23,27.77,0,55.54.03,83.3.04,14.45,0,28.9,0,43.35,0,.2,0,.41.01.61,0,.4-.03.53.1.66.53.22.72-.14,1.3-.2,1.95-.28,3.08-.49,6.17-.83,9.24-.18,1.62-.2,3.26-.41,4.88-.14,1.03.06,2.14-.14,3.07-.44,2.14-.34,4.32-.68,6.46-.13.83.02,1.83-.19,2.54-.36,1.19-.28,2.4-.36,3.52-.23,3.4-.81,6.77-.83,10.2-.01,1.61-.46,3.27-.51,4.93-.02.65-.21,1.03-.96,1.18-1.55.31-3.04.87-4.57,1.25-4.34,1.1-8.65,2.31-12.97,3.48-4.05,1.1-8.1,2.21-12.16,3.3-3.55.95-7.12,1.87-10.67,2.82-.3.08-.53.11-.86.02-7.64-2.09-15.28-4.15-22.92-6.22-5.76-1.56-11.52-3.12-17.28-4.67-.41-.11-.77-.17-.81-.73-.27-3.35-.65-6.69-.97-10.04-.18-1.89-.25-3.81-.43-5.71-.19-1.95-.54-3.9-.62-5.85-.1-2.28-.27-4.54-.58-6.8-.11-.82-.4-.8-.98-.8-11.75,0-23.5,0-35.25,0-.2,0-.41,0-.61,0-.36-.01-.51.16-.44.5.21,1.05-.04,2.15.2,3.16.6,2.56-.05,5.26.95,7.76-.52,1.04.15,2.05.12,3.11-.06,1.71.3,3.44.33,5.18.01.87.12,1.75.33,2.59.24.95.4,1.98.38,2.88-.06,2.11.26,4.18.37,6.26.12,2.19.6,4.35.58,6.57-.01,1.05.36,2.14.41,3.18.1,2.02.38,4.02.45,6.02.08,2.35.68,4.64.58,7.01-.04.85.19,1.73.17,2.62-.01.9.04,1.67,1.23,1.99.67.18,1.38.21,2.04.47,1.57.63,3.23.99,4.84,1.41,2.84.73,5.66,1.54,8.48,2.31,12.33,3.38,24.64,6.81,36.95,10.25,2.53.71,5.05,1.43,7.59,2.12,2.37.64,4.74,1.29,7.1,1.98,2.51.74,5.06,1.27,7.55,2.08.57.19,1.11.16,1.69,0,16.61-4.62,33.23-9.22,49.85-13.83,4.86-1.35,9.72-2.66,14.58-4.01,3.42-.95,6.84-1.92,10.26-2.88.49-.14.74-.31.78-.94.11-1.48.29-2.96.43-4.45.27-3.01.59-6.01.78-9.03.07-1.11.3-2.21.34-3.31.05-1.36.22-2.7.32-4.05.08-1.1.17-2.21.2-3.31.04-1.49.47-2.97.53-4.46.06-1.45.17-2.9.29-4.33.22-2.39.36-4.8.7-7.19.2-1.41.21-2.89.32-4.33.19-2.4.37-4.8.71-7.19.21-1.48.14-3.05.33-4.53.25-1.89,0-3.81.54-5.66.14-.48-.32-.97-.15-1.37.57-1.37.47-2.8.61-4.22.09-.94-.11-1.97.23-2.81.75-1.84.04-3.75.5-5.63.25-1.01.21-2.21.33-3.3.1-.87-.05-1.77.17-2.6.53-2,.59-4.02.57-6.06,0-1.02.03-2.1.3-3.01.58-1.96.1-3.95.48-5.91.2-1.04.15-2.2.26-3.25.12-1.09.35-2.26.39-3.34.08-1.95.3-3.89.49-5.82.25-2.59.37-5.2.7-7.79.13-1.05.18-2.15.3-3.21.28-2.4.51-4.81.77-7.21.34-3.12.42-6.27.83-9.39.49-3.73.54-7.49,1-11.23.39-3.16.52-6.34.88-9.5.35-3.1.37-6.22.79-9.32.45-3.33.59-6.7.86-10.05.07-.9.06-1.82.23-2.72.53-2.81.45-5.68.8-8.5.08-.69-.18-.97-.98-.97Z"/>
  <path class="cls-1" d="m343.82,0h-187.65C69.92,0,0,69.92,0,156.18v187.65c0,86.25,69.92,156.18,156.18,156.18h187.65c86.25,0,156.18-69.92,156.18-156.18v-187.65C500,69.92,430.08,0,343.82,0Zm-64.25,41.07c0-.79.18-1.02,1-1.01,7.21.04,14.41.02,21.62.02s14.34.01,21.51-.02c.79,0,1.01.18,1,.99-.04,4.85-.04,9.7,0,14.55,0,.72-.18.9-.89.89-8.09-.03-16.19,0-24.28-.04-.92,0-1.13.23-1.1,1.12.07,2.18.02,2.18,2.17,2.18,7.72,0,15.44.01,23.15-.02.74,0,.96.14.96.93-.03,11.96-.03,23.91,0,35.87,0,.73-.13.96-.93.96-14.41-.03-28.82-.03-43.23,0-.75,0-.98-.15-.97-.94.04-5.12.04-10.25,0-15.37,0-.78.2-.95.96-.95,8.09.03,16.19,0,24.28.04.88,0,1.06-.24,1.03-1.07-.06-2.23-.02-2.24-2.3-2.24-7.65,0-15.3-.01-22.95.02-.76,0-1.03-.14-1.03-.98.03-11.65.03-23.3,0-34.94Zm-30.04,35.91c-7.68,0-15.37-.01-23.05.02-.78,0-1.02-.16-1.02-.99.03-11.65.03-23.3,0-34.94,0-.8.2-1.01,1.01-1,7.21.03,14.41.02,21.62.02s14.34.01,21.51-.02c.8,0,1,.21.99,1-.04,4.85-.04,9.7,0,14.55,0,.73-.2.89-.9.89-8.09-.03-16.19,0-24.28-.04-.94,0-1.12.26-1.1,1.13.06,2.18.02,2.18,2.17,2.18,7.72,0,15.44.01,23.15-.02.76,0,.95.16.95.94-.03,11.96-.03,23.91,0,35.87,0,.75-.15.96-.94.95-14.41-.03-28.82-.03-43.23,0-.76,0-.97-.17-.96-.95.04-5.12.04-10.25,0-15.37,0-.79.22-.94.97-.94,8.06.03,16.12,0,24.18.04.83,0,1.18-.1,1.14-1.07-.09-2.23-.03-2.23-2.21-2.23Zm-78.16-8.6c0-9.09.01-18.18-.02-27.26,0-.86.22-1.06,1.06-1.05,14.35.03,28.69.03,43.04,0,.88,0,1.04.24,1.04,1.07-.04,5.6-.04,11.21,0,16.81,0,.89-.26,1.03-1.07,1.03-8.06-.03-16.12,0-24.18-.04-.77,0-1.03.15-1.02.99.04,5.64.04,11.27,0,16.91,0,.81.22,1,1.01,1,8.06-.03,16.12,0,24.18-.05.94,0,1.09.27,1.08,1.13-.04,5.57-.04,11.14,0,16.71,0,.81-.12,1.08-1.02,1.08-14.35-.03-28.69-.03-43.04,0-.83,0-1.08-.16-1.08-1.04.04-9.09.02-18.18.02-27.26Zm227.24,54.83c-.07,2.38-.45,4.74-.59,7.11-.2,3.19-.56,6.37-.83,9.55-.31,3.72-.57,7.45-1.04,11.16-.3,2.31-.34,4.66-.55,6.99-.35,3.84-.84,7.67-1.09,11.52-.29,4.5-.74,8.98-1.14,13.47-.42,4.65-.73,9.31-1.32,13.95-.3,2.31-.33,4.66-.55,6.98-.36,3.77-.7,7.53-1.06,11.3-.31,3.22-.55,6.46-.82,9.69-.29,3.45-.61,6.9-.88,10.36-.11,1.46-.22,2.94-.35,4.39-.18,1.86-.4,3.75-.64,5.62-.29,2.28-.26,4.6-.54,6.89-.22,1.82-.33,3.65-.5,5.48-.28,3.08-.52,6.16-.84,9.24-.19,1.83-.33,3.65-.46,5.48-.14,2-.37,3.99-.55,5.98-.17,1.86-.31,3.73-.47,5.59-.18,1.96-.38,3.92-.55,5.88-.17,1.86-.3,3.73-.48,5.59-.24,2.45-.6,4.9-.74,7.35-.14,2.28-.41,4.54-.55,6.81-.22,3.53-.75,7.03-.94,10.56-.13,2.44-.41,4.88-.63,7.32-.18,2.02-.34,4.05-.58,6.07-.2,1.71-.28,3.44-.46,5.15-.28,2.6-.4,5.21-.75,7.81-.3,2.25-.41,4.53-.53,6.79-.03.51-.53.75-.44,1.27.2,1.11.2,2.2.05,3.35-.48,3.77-.91,7.56-1.11,11.35-.14,2.57-.66,5.1-.7,7.68-.01.89.13,1.89-.06,2.65-.39,1.57-.29,3.13-.49,4.66-.23,1.82-.52,3.66-.58,5.48-.05,1.68-.24,3.34-.42,5-.25,2.41-.59,4.81-.62,7.24-.03,1.75-.18,3.52-.41,5.22-.27,1.95-.46,3.91-.62,5.86-.06.7.16,1.36-.17,2.11-.15.36-.53.82-.39,1.35.41,1.51-.15,2.99-.2,4.49-.05,1.34-.49,2.67-.25,4.02.19,1.03-.03,1.32-1.05,1.53-1.54.32-3.06.74-4.57,1.15-1.77.48-3.52,1.01-5.28,1.5-1.97.55-3.94,1.09-5.91,1.64-1.7.47-3.39,1.04-5.12,1.4-1.35.29-2.63.78-4,1.05-2.05.4-4.02,1.18-6.03,1.76-2.44.7-4.88,1.4-7.34,2.02-2.41.6-4.75,1.47-7.22,1.89-1.27.22-2.58.6-3.77,1.04-1.98.74-4.04,1.11-6.02,1.79-2.13.73-4.32,1.27-6.48,1.85-1.47.39-3.03.72-4.48,1.13-2.06.58-4.14,1.14-6.2,1.74-5.2,1.5-10.43,2.92-15.65,4.36-4.53,1.26-9.07,2.5-13.6,3.76-6.37,1.77-12.73,3.55-19.1,5.32h-1.64c-.1-.45-.54-.52-.85-.63-1.79-.62-3.64-1.05-5.47-1.54-6.05-1.63-12.03-3.49-18.12-4.95-1.69-.41-3.42-.9-5.11-1.47-2.28-.78-4.65-1.28-6.97-1.92-.8-.22-1.57-.58-2.37-.74-1.91-.4-3.77-.98-5.63-1.55-1.12-.34-2.3-.9-3.35-.96-1.08-.06-1.97-.56-2.88-.81-.96-.26-2.11-.09-3.03-.86-.32-.27-1.15-.62-1.64-.5-1.18.29-1.92-.68-2.97-.8-1.01-.12-2.05-.35-3.04-.8-.37-.17-.92-.65-1.37-.44-.67.3-1.05-.12-1.55-.34-.68-.3-1.46-.6-2.13-.63-.63-.03-1.11-.14-1.62-.43-.22-.13-.67-.14-.77-.2-.87-.55-1.99-.11-2.81-.75-.21-.16-.51-.38-.71-.33-.85.22-1.56-.28-2.29-.46-1.19-.28-2.39-.59-3.55-.95-1.27-.39-2.52-.83-3.84-1.03-.53-.08-.84-.63-1.34-.64-1.2-.03-2.3-.52-3.45-.7-.88-.13-1.68-.54-2.51-.77-1.79-.51-3.61-.92-5.38-1.49-1.63-.53-3.28-1.01-4.95-1.38-1.71-.38-3.39-.87-5.07-1.36-1.1-.32-2.25-.52-3.32-.92-.93-.34-1.91-.43-2.84-.83-.68-.3-1.45-.78-2.21-.72-.59.05-.99-.06-1.44-.36-.26-.17-.61-.22-.91-.32-.81-.26-1.67-.21-2.45-.49-.5-.18-.86-.56-1.52-.47-.54.08-.71-.49-.65-1.04.11-.96.02-1.91-.14-2.85-.07-.42-.46-.83-.41-1.21.27-1.72-.12-3.39-.23-5.09-.16-2.4-.57-4.77-.64-7.17-.08-2.79-.65-5.53-.69-8.32-.01-1.15-.34-2.32-.37-3.5,0-.37.32-.65.12-1.06-.5-1.02-.39-2.17-.5-3.26-.19-1.88-.21-3.78-.47-5.65-.12-.84.15-1.75-.09-2.44-.37-1.09-.39-2.19-.43-3.25-.07-1.97-.77-3.9-.36-5.89.02-.12.06-.27,0-.37-.72-1.48-.53-3.13-.69-4.68-.25-2.44-.43-4.89-.61-7.34-.18-2.43-.42-4.85-.64-7.28-.21-2.28-.34-4.56-.51-6.85,0-.03-.01-.07-.02-.1-.31-2.85-.77-5.7-.88-8.57-.16-4.14-.7-8.24-1.04-12.36-.18-2.17-.22-4.36-.61-6.52-.29-1.63-.18-3.32-.4-4.96-.29-2.14-.23-4.31-.65-6.43-.31-1.55.02-3.15-.39-4.7-.12-.45.26-1.05.1-1.46-.65-1.67-.4-3.45-.69-5.16-.27-1.61-.3-3.27-.43-4.9-.14-1.76-.09-3.53-.45-5.26-.42-2.01-.18-4.07-.55-6.11-.28-1.51-.32-3.09-.4-4.63-.1-1.94-.37-3.85-.5-5.79-.06-.89.1-1.85-.12-2.65-.26-.95-.33-1.95-.38-2.85-.11-2.14-.45-4.26-.53-6.4-.07-1.6-.55-3.2-.54-4.8.02-2.63-.44-5.21-.61-7.82-.2-3-.59-6-.86-9-.22-2.43-.36-4.86-.58-7.29-.19-2.12-.46-4.22-.65-6.34-.21-2.43-.31-4.87-.58-7.29-.25-2.22-.32-4.46-.63-6.68-.32-2.34-.38-4.73-.59-7.09-.2-2.26-.55-4.5-.65-6.76-.22-4.66-.9-9.27-1.19-13.92-.14-2.21-.49-4.41-.63-6.6-.28-4.66-.83-9.3-1.21-13.94-.19-2.29-.34-4.59-.65-6.88-.31-2.29-.35-4.61-.56-6.91-.21-2.33-.5-4.65-.69-6.98-.14-1.71-.24-3.43-.46-5.12-.34-2.66-.45-5.34-.73-8.01-.2-1.91-.29-3.84-.47-5.76v-.41c.75-.04,1.49-.12,2.24-.12,97.59,0,195.17,0,292.76,0,.61,0,1.22.11,1.83.11.42,0,.41.12.4.51Z"/>
</svg>