<?xml version="1.0" encoding="UTF-8"?>
<svg id="Layer_1" data-name="Layer 1" xmlns="http://www.w3.org/2000/svg" viewBox="0 0 500 500">
  <defs>
    <style>
      .cls-1 {
        fill: #6ee960;
      }
    </style>
  </defs>
  <path class="cls-1" d="m295.45,298.15c0,1.76.1,3.08-.02,4.38-1.24,13.4-2.66,26.78-3.68,40.19-.25,3.27-1.64,4.1-4.43,4.81-11.64,2.96-23.2,6.25-34.84,9.24-1.82.47-3.96.44-5.79-.02-11.86-3.03-23.66-6.3-35.52-9.34-2.44-.62-3.39-1.8-3.57-4.26-.57-8.04-1.4-16.06-1.96-24.1-.15-2.19-1.04-2.81-3.08-2.8-10.84.06-21.67.07-32.51-.01-2.36-.02-2.98.68-2.74,3.09,1.67,17.37,3.33,34.74,4.61,52.13.26,3.57,1.47,4.81,4.72,5.69,23.52,6.43,46.97,13.09,70.48,19.54,1.88.52,4.17.41,6.07-.11,23.38-6.41,46.7-13.04,70.1-19.36,3.39-.91,4.29-2.55,4.5-5.69.56-8.7,1.32-17.38,2.11-26.06,1.22-13.51,2.58-27.01,3.8-40.52,1.21-13.51,2.28-27.04,3.5-40.55.42-4.69.55-4.69-4.17-4.69-42.79.03-85.58.07-128.37.1-1.39,0-2.78,0-4.23,0-1.17-12.84-2.29-25.14-3.48-38.1,1.76,0,3.06,0,4.36,0,18.35.1,36.7.24,55.05.28,20.34.05,40.69.01,61.03.01,6.3,0,12.61.01,18.91,0,4.62-.01,4.75-.01,5.21-4.58,1.02-10.1,1.79-20.22,2.87-30.31.37-3.43-1.23-3.73-3.98-3.72-60.48.09-120.96.12-181.44.17-1.17,0-2.34.14-3.86.24,3.46,38.25,6.88,76.1,10.34,114.33h130.02Z"/>
  <path class="cls-1" d="m343.82,0h-187.65C69.92,0,0,69.92,0,156.18v187.65c0,86.25,69.92,156.18,156.18,156.18h187.65c86.25,0,156.18-69.92,156.18-156.18v-187.65C500,69.92,430.08,0,343.82,0Zm-16.94,37.68h19.24v38.29h26.48v18.62h-45.72v-56.91Zm-53.75,0c3.87,6.59,7.73,13.18,11.96,20.4,4.27-7.31,8.1-13.85,11.92-20.4h20.57c-.07,9.16-.16,18.32-.2,27.48-.03,8.61,0,17.23,0,25.84v3.7h-18.94v-26.92c-.26-.09-.52-.18-.77-.27-4.17,6.39-8.33,12.77-12.76,19.56-4.33-6.65-8.44-12.94-12.54-19.24-.23.04-.45.09-.68.13v26.7h-18.93v-3.98c0-16.35,0-32.69,0-49.04,0-1.32-.13-2.64-.19-3.96h20.57Zm-81.62,0h53.08v18.94h-16.97v37.96h-19.02v-37.66h-17.09v-19.24Zm-45.12,0v18.7h17.92v-18.7h19.24c-.11,1.31-.31,2.62-.32,3.92-.02,16.34-.01,32.69-.01,49.03v4.06h-18.94v-18.59h-17.54v18.59h-19.27v-4.06c0-16.34,0-32.69-.01-49.03,0-1.31-.21-2.62-.32-3.92h19.24Zm252.61,95.86c-1.45,16.05-2.97,32.1-4.4,48.15-1.22,13.64-2.33,27.28-3.55,40.92-1.22,13.64-2.53,27.26-3.74,40.9-1.22,13.64-2.34,27.28-3.55,40.92-1.21,13.64-2.52,27.26-3.74,40.9-1.21,13.53-2.37,27.06-3.54,40.59-1.14,13.09-2.3,26.18-3.4,39.27-.17,2.04-1.1,3.05-3.11,3.61-38.7,10.65-77.38,21.36-116.06,32.08-1.36.38-2.66.96-3.99,1.45-.22,0-.44,0-.66,0-6.73-2.02-13.42-4.16-20.18-6.04-32.92-9.14-65.86-18.24-98.82-27.27-2.39-.66-3.37-1.82-3.57-4.26-1.98-23.65-4.04-47.3-6.11-70.95-1.95-22.22-3.93-44.43-5.94-66.64-2.13-23.53-4.34-47.05-6.44-70.59-1.67-18.7-3.2-37.4-4.85-56.1-.98-11.11-2.11-22.2-3.11-33.31-.16-1.74-.02-3.5-.02-5.49h299.65c-.28,4.03-.49,7.95-.84,11.86Z"/>
</svg>