<?xml version="1.0" encoding="UTF-8"?>
<svg id="Layer_4" data-name="Layer 4" xmlns="http://www.w3.org/2000/svg" viewBox="0 0 500 500">
  <defs>
    <style>
      .cls-1 {
        fill: #6ee960;
      }
    </style>
  </defs>
  <path class="cls-1" d="m343.82,0h-187.65C69.92,0,0,69.92,0,156.18v187.65c0,86.25,69.92,156.18,156.18,156.18h187.65c86.25,0,156.18-69.92,156.18-156.18v-187.65C500,69.92,430.08,0,343.82,0Zm-75.03,374.31c-5.96,14.86-17.11,23.7-32.47,27.2-14.97,3.41-29.78,2.83-44-3.49-12.32-5.48-20.94-14.8-26.83-26.79-.11-.22-.15-.46-.29-.88,9.79-5.92,19.47-11.78,29.28-17.71,1.1,1.83,2.1,3.55,3.15,5.24,2.29,3.7,4.73,7.32,8.42,9.73,7.4,4.83,15.23,4.75,22.93,1.03,4.79-2.31,6.53-7.06,7.3-12.02.48-3.11.68-6.3.69-9.45.04-39.46.03-78.93.03-118.39v-2.78h36.01c.04.73.11,1.43.11,2.14,0,39.77,0,79.54,0,119.31,0,9.19-.88,18.24-4.34,26.87Zm143.33,3.26c-5.99,10.56-15.07,17.58-26.42,21.3-23.5,7.68-46.46,6.34-68.31-5.78-10.64-5.9-20.31-16.63-24.71-26.58,9.75-5.65,19.43-11.25,29.28-16.95.47.69.88,1.26,1.27,1.85,4.82,7.36,10.57,13.74,18.95,17.1,8.96,3.6,18.15,4.06,27.33.94,5.93-2.02,10.57-5.72,12.01-12.18,1.28-5.75.22-11.16-4.2-15.3-2.5-2.34-5.38-4.47-8.45-5.97-7.93-3.87-16.13-7.15-24.07-11-6.34-3.08-12.71-6.23-18.59-10.07-15.69-10.26-23.02-25.08-22.76-43.77.31-22.2,13.87-39.56,35.82-45.16,14.4-3.68,28.77-3.18,42.66,2.48,11.56,4.71,19.48,13.43,25.64,24.25-9.36,6.01-18.61,11.95-28.02,18-.4-.58-.71-1.08-1.05-1.54-1.7-2.3-3.2-4.78-5.14-6.84-6.4-6.77-14.43-8.44-23.13-6.08-13.68,3.71-13.62,19.83-6.72,26.03,2.82,2.53,6.08,4.73,9.47,6.41,6.42,3.19,13.08,5.91,19.65,8.82,9.64,4.29,19.06,8.96,27.35,15.62,11.71,9.4,17.47,21.7,18.08,36.59.4,9.8-1.03,19.2-5.93,27.84Z"/>
</svg>