<?xml version="1.0" encoding="UTF-8"?>
<svg id="Layer_5" data-name="Layer 5" xmlns="http://www.w3.org/2000/svg" viewBox="0 0 500 500">
  <defs>
    <style>
      .cls-1 {
        fill: #6ee960;
      }
    </style>
  </defs>
  <path class="cls-1" d="m303.06,417.25c9.43.76,17.93-8.1,17.76-17.88-.16-9.42-7.17-17.77-17.64-17.81-10.55-.04-17.84,8.02-17.86,17.82-.01,9.24,6.64,18.18,17.73,17.86Z"/>
  <path class="cls-1" d="m343.82,0h-187.65C69.92,0,0,69.92,0,156.18v187.65c0,86.25,69.92,156.18,156.18,156.18h187.65c86.25,0,156.18-69.92,156.18-156.18v-187.65C500,69.92,430.08,0,343.82,0Zm-200.41,342.17v3.08c-12.34,0-24.24.02-36.14-.02-1.85,0-3.71-.25-5.54-.55-17.35-2.86-28.42-13.62-35.34-28.99-3.05-6.77-5.41-13.95-7.18-21.17-2.11-8.61-3.26-17.45-4.81-26.19-.41-2.32-.76-4.65-1.14-6.98v-24.95c.38-2.24.73-4.47,1.13-6.7,1.73-9.74,3-19.6,5.31-29.2,3.65-15.11,10.97-28.18,24.03-37.31,9.39-6.57,19.83-10.6,31.37-10.64,43.65-.14,87.3-.05,130.95-.05h3.23v-11.96h-94.26c-.14-.48-.23-.66-.23-.83.17-16.21.05-32.44.72-48.63.2-4.71,2.11-9.59,4.2-13.93,4-8.33,11.5-13.09,19.77-16.32,15.71-6.14,32.27-8.12,48.96-9.26.96-.07,1.9-.36,2.85-.55h35.72c3.09.38,6.17.78,9.26,1.13,6.93.78,13.95,1.1,20.78,2.4,14.78,2.81,27.77,9.1,37.44,21.13,6.23,7.75,10.08,16.52,10.13,26.49.16,31.75.17,63.49-.06,95.24-.03,4.61-1.29,9.36-2.76,13.79-2.86,8.65-7.96,15.85-15.23,21.55-8.23,6.46-17.52,10.3-27.89,10.38-32.78.24-65.57.04-98.36.15-3.68.01-7.44.57-11.02,1.44-12.82,3.14-23.48,9.82-31.99,19.99-8.83,10.56-13.83,22.52-13.89,36.37-.06,13.7-.01,27.4-.01,41.1Zm303.32-79.13c-.39,3.18-.47,6.44-1.22,9.54-2.3,9.5-4.53,19.05-7.39,28.39-3.09,10.1-7.2,19.83-13.5,28.47-7.47,10.24-17.58,15.72-30.19,15.76-46.95.14-93.9.06-140.86.06-1.11,0-2.21,0-3.39,0v12.02h94.5c0,13.24.21,26.18-.1,39.11-.14,5.83-1.76,11.55-4.64,16.71-4.76,8.54-11.86,14.78-20.3,19.45-16.23,8.97-33.91,13.11-52.15,15.33-2.62.32-5.24.75-7.85,1.12h-20.41c-.39-.18-.76-.47-1.16-.54-8.7-1.35-17.51-2.19-26.08-4.11-14.61-3.27-28.62-8.16-40.5-17.87-10.28-8.4-16.62-18.81-16.68-32.3-.14-30.71-.06-61.41-.02-92.12,0-2.42.11-4.9.62-7.25,2.58-11.77,8.08-21.76,17.64-29.46,9-7.25,19.25-10.72,30.61-10.77,32.41-.13,64.81-.03,97.22-.08,2.22,0,4.49-.23,6.66-.71,14.98-3.3,27.26-10.92,36.46-23.26,7.56-10.14,12.05-21.41,12.03-34.24-.01-13.51,0-27.02,0-40.53v-3.27c12.37,0,24.44-.03,36.51.03,2.32.01,4.66.24,6.97.55,11.53,1.55,20.35,7.46,27.02,16.85,5.76,8.11,9.39,17.17,11.93,26.7,3.26,12.27,6.01,24.64,7.18,37.32.25,2.72.73,5.42,1.11,8.14v20.98Z"/>
  <path class="cls-1" d="m196.83,80.42c-10.98-.09-18.04,8.44-18.11,17.61-.07,10.24,7.25,17.78,17.61,18.05,9.38.25,17.74-7.82,17.39-17.92.55-9.41-7.96-17.66-16.89-17.74Z"/>
</svg>