<?xml version="1.0" encoding="UTF-8"?>
<svg id="Layer_1" data-name="Layer 1" xmlns="http://www.w3.org/2000/svg" viewBox="0 0 500 500">
  <defs>
    <style>
      .cls-1 {
        fill: #fff;
      }

      .cls-2 {
        fill: #27b9ad;
      }
    </style>
  </defs>
  <path class="cls-2" d="m500,250C500,111.93,388.07,0,250,0S0,111.93,0,250c0,91.46,49.14,171.41,122.43,214.99-.11-2.05-.17-4.12-.17-6.2,0-65.24,56.58-184.07,126.37-184.07s126.37,118.82,126.37,184.07c0,2.64-.13,5.26-.31,7.86,74.87-43.19,125.31-124,125.31-216.65Zm-251.37,8.24c-44,0-79.67-35.67-79.67-79.67s35.67-79.67,79.67-79.67,79.67,35.67,79.67,79.67-35.67,79.67-79.67,79.67Z"/>
  <circle class="cls-1" cx="248.63" cy="178.57" r="79.67"/>
  <path class="cls-1" d="m248.63,274.73c-69.79,0-126.37,118.82-126.37,184.07,0,2.08.06,4.15.17,6.2,37.35,22.21,80.96,35.01,127.57,35.01s87.98-12.18,124.69-33.35c.18-2.6.31-5.21.31-7.86,0-65.24-56.58-184.07-126.37-184.07Z"/>
</svg>