<?xml version="1.0" encoding="UTF-8"?>
<svg id="Layer_1" data-name="Layer 1" xmlns="http://www.w3.org/2000/svg" viewBox="0 0 500 500">
  <defs>
    <style>
      .cls-1 {
        fill: #fff;
        fill-rule: evenodd;
      }
    </style>
  </defs>
  <path class="cls-1" d="m237.47,398.88c1.71,4.76,2.67,9.91,2.67,15.24,0,24.86-20.1,44.96-44.96,44.96s-44.87-20.1-44.87-44.96c0-14.96,7.24-28.2,18.48-36.39l-.29-.76L66.2,72.16H15.62C7.05,72.16,0,65.21,0,56.54H0C0,47.96,7.05,40.91,15.62,40.91h60.68c4.29,0,8.19,1.71,11.05,4.57,1.62,1.43,3.05,3.24,4.29,5.81l26.86,79.16,368.16-.48c13.91,0,14.86,10,12.1,17.34l-12.38,38.77c-5.72,17.91-11.72,34.96-17.43,52.2l-25.81,77.73c-2.76,8.29-4.19,18-14,20.19-1.62.38-7.24.76-15.43.76l-225.18-.1,9.34,32.39h193.08c24.77,0,44.87,20.1,44.87,44.87s-20.1,44.96-44.87,44.96c-31.34,0-52.77-31.24-42.29-60.2h-111.16Z"/>
</svg>