<?xml version="1.0" encoding="UTF-8"?>
<svg id="Layer_1" data-name="Layer 1" xmlns="http://www.w3.org/2000/svg" viewBox="0 0 500 155.75">
  <defs>
    <style>
      .cls-1 {
        fill: #fff;
      }

      .cls-2 {
        fill: #c5434e;
      }
    </style>
  </defs>
  <g>
    <path class="cls-2" d="m70.24,74.41c-17.52-12.26-41.69-10.43-57.18,5.06C4.86,87.68.24,98.53,0,110.13c7.37,7.07,16.83,11.37,26.94,12.27.59-12.71,5.83-24.57,14.88-33.62,7.77-7.77,17.7-12.76,28.43-14.37Z"/>
    <path class="cls-2" d="m44.67,60.09c10.99,0,21.54,3.5,30.26,9.94-3.72-21.06-22.1-36.86-44.01-36.86C19.31,33.17,8.37,37.59,0,45.62c.21,10.21,3.86,19.94,10.38,27.72,9.4-8.56,21.49-13.25,34.29-13.25Z"/>
    <path class="cls-2" d="m85.72,74.93c21.06-3.72,36.86-22.1,36.86-44.01C122.58,19.31,118.16,8.37,110.13,0c-10.21.21-19.94,3.86-27.72,10.38,8.56,9.4,13.25,21.49,13.25,34.29,0,10.99-3.5,21.54-9.94,30.26Z"/>
    <path class="cls-2" d="m81.34,70.24c12.26-17.52,10.43-41.69-5.06-57.18C68.07,4.86,57.22.24,45.62,0c-7.07,7.37-11.37,16.83-12.27,26.94,12.71.59,24.57,5.83,33.62,14.88,7.77,7.77,12.76,17.7,14.37,28.43Z"/>
    <path class="cls-2" d="m70.03,80.82c-21.06,3.72-36.86,22.1-36.86,44.01,0,11.6,4.41,22.54,12.44,30.91,10.21-.21,19.94-3.86,27.72-10.38-8.56-9.4-13.25-21.49-13.25-34.29,0-10.99,3.5-21.54,9.94-30.26Z"/>
    <path class="cls-2" d="m74.41,85.51c-12.26,17.52-10.43,41.69,5.06,57.18,8.21,8.21,19.06,12.82,30.66,13.06,7.07-7.37,11.37-16.83,12.27-26.94-12.71-.59-24.57-5.83-33.62-14.88-7.77-7.77-12.76-17.7-14.37-28.43Z"/>
    <path class="cls-2" d="m113.93,66.97c-7.77,7.77-17.7,12.76-28.43,14.37,17.52,12.26,41.69,10.43,57.18-5.06,8.21-8.21,12.82-19.06,13.06-30.66-7.37-7.07-16.83-11.37-26.94-12.27-.59,12.71-5.83,24.57-14.88,33.62Z"/>
    <path class="cls-2" d="m111.08,95.66c-10.99,0-21.54-3.5-30.26-9.94,3.72,21.06,22.1,36.86,44.01,36.86,11.6,0,22.54-4.41,30.91-12.44-.21-10.21-3.86-19.94-10.38-27.72-9.4,8.56-21.49,13.25-34.29,13.25Z"/>
  </g>
  <g>
    <path class="cls-1" d="m212.65,70.72c.58-2.91.87-5.81.87-8.7v-26.48c0-2.93-.29-5.85-.87-8.76h23.23v5.94c-2.91-.58-5.82-.87-8.73-.87h-4.31c-.19,1.19-.29,2.41-.29,3.67v10.62h4.6c2.91,0,5.82-.29,8.73-.87v6.81c-2.91-.58-5.82-.87-8.73-.87h-4.6v10.8c0,1.26.08,2.48.23,3.67h7.86c3.07,0,5.98-.29,8.73-.87v5.94h-26.72Z"/>
    <path class="cls-1" d="m249.99,70.72c.58-2.91.87-5.82.87-8.73v-26.49c0-2.91-.29-5.82-.87-8.73h9.02c1.47,2.95,2.99,5.46,4.56,7.52l16.05,20.95v-19.74c0-2.76-.29-5.67-.87-8.73h8.5c-.58,2.91-.87,5.82-.87,8.73v26.49c0,2.91.29,5.82.87,8.73h-8.67c-1.44-2.87-2.96-5.37-4.57-7.51l-16.09-21.31v20.08c0,2.91.29,5.82.87,8.73h-8.79Z"/>
    <path class="cls-1" d="m300.77,70.72c.58-2.91.87-5.82.87-8.73v-26.49c0-2.91-.29-5.82-.87-8.73h10.77c-.58,2.91-.87,5.82-.87,8.73v26.49c0,2.91.29,5.82.87,8.73h-10.77Z"/>
    <path class="cls-1" d="m348.44,71.3c-7.64,0-13.8-2.07-18.45-6.22-4.64-4.11-6.96-9.55-6.96-16.33s2.34-12.25,7.01-16.42c4.6-4.09,10.73-6.14,18.39-6.14,6.15,0,11.51,1.4,16.07,4.2v10.65h-.32c-4.42-6.52-9.68-9.78-15.77-9.78-4.44,0-8.19,1.76-11.23,5.29-2.74,3.16-4.1,7.23-4.1,12.21s1.36,9.03,4.07,12.15c3.1,3.56,6.78,5.34,11.03,5.34,3.24,0,6.21-.77,8.91-2.3h-.12v-12.74h-1.69c-2.91,0-5.82.3-8.73.9v-5.97l19.73.03v18.13c-5.3,4.68-11.24,7.02-17.84,7.02Z"/>
    <path class="cls-1" d="m377.77,70.72c.83-2.81,1.38-5.68,1.63-8.61l2.36-26.57c.1-1.09.15-2.28.15-3.58,0-1.61-.09-3.34-.26-5.18h8.73c.56,2.52,1.57,5.29,3.03,8.3l11.38,24.33,11.47-24.33c1.15-2.52,2.09-5.29,2.82-8.3h8.59c-.18,1.81-.27,3.53-.27,5.18,0,1.3.01,2.49.04,3.58l2.36,26.57c.27,2.97.81,5.84,1.63,8.61h-10.51c.2-1.67.3-3.33.3-4.98,0-1.16-.05-2.43-.14-3.78l-1.62-18.59-8.68,19.04c-1.28,2.8-2.24,5.56-2.9,8.3h-8.23c-.52-2.51-1.49-5.28-2.9-8.32l-8.61-18.34-1.62,17.9c-.12,1.3-.17,2.56-.17,3.78,0,1.73.06,3.38.19,4.97h-8.75Z"/>
    <path class="cls-1" d="m437.87,70.72c1.8-2.46,3.3-4.98,4.48-7.54l12.95-28.12c1.12-2.45,2.09-5.21,2.9-8.3h9.05c.81,3.09,1.78,5.86,2.9,8.32l12.95,28.12c1.09,2.36,2.58,4.87,4.48,7.52h-11.55c-.75-2.97-1.72-5.73-2.9-8.29l-3.83-8.32h-15.39l-3.78,8.32c-1.26,2.74-2.23,5.5-2.9,8.3h-9.36Zm23.69-33.44l-5.46,12.02h11l-5.54-12.02Z"/>
    <path class="cls-1" d="m212.65,142.25c.58-2.91.87-5.82.87-8.73v-26.49c0-2.91-.29-5.82-.87-8.73h10.77c-.58,2.91-.87,5.82-.87,8.73v8.88l10.24-10.71c1.95-2.04,3.76-4.33,5.46-6.9h10.92c-2.7,1.93-4.93,3.83-6.69,5.7l-14.61,15.28,18.26,17.53c2.15,2.07,4.45,3.89,6.9,5.44h-15.22c-1.46-2.23-3.35-4.46-5.67-6.7l-9.58-9.2v7.16c0,2.83.29,5.74.87,8.73h-10.77Z"/>
    <path class="cls-1" d="m261.46,142.25c.58-2.91.87-5.82.87-8.73v-26.49c0-2.91-.29-5.82-.87-8.73h10.77c-.58,2.91-.87,5.82-.87,8.73v26.49c0,2.91.29,5.82.87,8.73h-10.77Z"/>
    <path class="cls-1" d="m292.59,142.25c.58-2.91.87-5.82.87-8.73v-26.49c0-1.24-.1-2.46-.29-3.67h-3.64c-2.83,0-5.74.29-8.73.87v-5.94h34.34v5.94c-2.85-.58-5.76-.87-8.73-.87h-3.64c-.19,1.2-.29,2.43-.29,3.67v26.49c0,2.91.29,5.82.87,8.73h-10.77Z"/>
    <path class="cls-1" d="m344.77,142.83c-7.64,0-13.76-2.07-18.36-6.22-4.51-4.11-6.76-9.55-6.76-16.34s2.27-12.26,6.82-16.42c4.54-4.09,10.64-6.13,18.3-6.13,6.15,0,11.51,1.4,16.07,4.2v10.65h-.32c-4.42-6.52-9.68-9.78-15.77-9.78-4.33,0-8.02,1.76-11.09,5.28-2.64,3.05-3.96,7.12-3.96,12.22s1.31,9.14,3.93,12.16c3.1,3.56,6.73,5.33,10.89,5.33,6.69,0,12.22-3.26,16.59-9.78h.32v8.88c-4.6,3.98-10.15,5.97-16.65,5.97Z"/>
    <path class="cls-1" d="m373.2,142.25c.58-2.91.87-5.82.87-8.73v-26.49c0-2.91-.29-5.82-.87-8.73h10.77c-.58,2.92-.87,5.83-.87,8.75v10.61h18.92v-10.61c0-2.93-.29-5.85-.87-8.75h10.77c-.58,2.91-.87,5.82-.87,8.73v26.49c0,2.91.29,5.82.87,8.73h-10.77c.58-2.91.87-5.82.87-8.73v-10.8h-18.92v10.8c0,2.91.29,5.82.87,8.73h-10.77Z"/>
    <path class="cls-1" d="m425.41,142.25c.58-2.91.87-5.81.87-8.7v-26.48c0-2.93-.29-5.85-.87-8.76h23.23v5.94c-2.91-.58-5.82-.87-8.73-.87h-4.31c-.19,1.19-.29,2.41-.29,3.67v10.62h4.6c2.91,0,5.82-.29,8.73-.87v6.81c-2.91-.58-5.82-.87-8.73-.87h-4.6v10.8c0,1.26.08,2.48.23,3.67h7.86c3.07,0,5.98-.29,8.73-.87v5.94h-26.72Z"/>
    <path class="cls-1" d="m462.75,142.25c.58-2.91.87-5.82.87-8.73v-26.49c0-2.91-.29-5.82-.87-8.73h9.02c1.47,2.95,2.99,5.46,4.56,7.52l16.05,20.95v-19.74c0-2.76-.29-5.67-.87-8.73h8.5c-.58,2.91-.87,5.82-.87,8.73v26.49c0,2.91.29,5.82.87,8.73h-8.67c-1.44-2.87-2.96-5.37-4.57-7.51l-16.09-21.31v20.08c0,2.91.29,5.82.87,8.73h-8.79Z"/>
  </g>
</svg>