<?xml version="1.0" encoding="UTF-8"?>
<svg id="Layer_1" data-name="Layer 1" xmlns="http://www.w3.org/2000/svg" viewBox="0 0 600 500">
  <defs>
    <style>
      .cls-1 {
        fill: #f2fbfb;
      }

      .cls-2 {
        fill: #e96770;
      }

      .cls-3 {
        fill: #212120;
      }

      .cls-4 {
        fill: #313435;
      }
    </style>
  </defs>
  <path class="cls-4" d="M39.93,661.26h-6.14c.38-2.1,.79-4.2,1.12-6.31,.32-2.11,1.03-4.3,.75-6.35-2.52-18.25-6.15-36.25-14.19-53-3.93-8.18-8.37-16.17-16.86-20.74-4.71-2.53-4.73-2.4-7.42,2.09-6.28,10.49-12.67,20.93-19.08,31.34-5.15,8.36-10.41,16.65-15.62,24.99,3.79,2.2,7.11,3.93,10.22,5.98,8.97,5.92,16.81,13.05,22.89,22H-12.58c-7.43-9.42-16.55-16.67-28.16-21.96-2.73,7.53-5.36,14.74-7.98,21.96h-42.28c0-7.04,0-14.09,0-21.14,2.04-1.97,4.11-3.92,6.11-5.92,19.93-19.92,39.08-40.45,53.99-64.62,7.54-12.22,14.18-24.81,18.67-38.45,1.92-5.84,3.36-11.85,5.23-18.56-2.4,.79-3.79,1.19-5.14,1.71-10.05,3.9-19.03,9.58-27.19,16.57-16.01,13.73-27.83,30.67-37.56,49.21-4.77,9.08-8.75,18.36-10.27,28.65-.69,4.65-2.52,9.12-3.83,13.68,0-15.23,0-30.46,0-45.69,.57,.85,1.13,1.7,1.7,2.55,.37-.05,.73-.1,1.1-.15,.14-15.13,.46-30.26,.31-45.39-.06-5.3,.32-10.93-3.1-15.66,0-18.64,0-37.28,0-55.92,1.36,6.63,2.78,13.25,4.07,19.89,.63,3.23,1.04,6.5,1.52,9.75,.48,3.23,.93,6.46,1.52,10.57,10.94-35.45,25.58-67.17,60.35-85.26-12.6-20.19-25.11-40.24-37.92-60.76-2.25,1.32-5.05,2.61-7.42,4.44-6.27,4.83-10.48,11.34-13.48,18.52-3.14,7.5-5.78,15.22-8.63,22.84,0-6.82,0-13.64,0-20.46,.73-1.4,1.49-2.78,2.19-4.19,5.56-11.41,12.08-21.95,25.03-27.03-9.67-19.33-17.77-39.12-23.11-60.17-1.57,1.31-2.84,2.36-4.11,3.42,0-3.18,0-6.36,0-9.55,.66-1.02,1.98-2.11,1.87-3.04-.33-2.88-1.21-5.7-1.87-8.55,0-25.23,0-50.46,0-75.69,5.17-5.1,10.41-10.13,15.49-15.31,16.78-17.14,32.3-35.3,45.14-55.64,8.04-12.73,14.03-26.4,19-40.54,1.74-4.95,2.73-10.16,4.25-15.95-2.15,.71-3.44,1.08-4.68,1.56-16.41,6.28-29.54,17.05-41.03,30.05-9.67,10.95-17.45,23.17-24.21,36.08-4.65,8.88-8.55,17.96-10.09,28.01-.73,4.76-2.55,9.35-3.88,14.01,0-15.23,0-30.46,0-45.69,.56,.87,1.13,1.75,1.69,2.62,.37-.05,.74-.1,1.11-.16,.14-15.14,.46-30.28,.31-45.41-.05-5.32,.24-10.93-3.11-15.7,0-18.64,0-37.28,0-55.92,1.16,5.4,2.49,10.76,3.44,16.2,1.35,7.71,2.42,15.47,3.66,23.52,2.48-7.08,4.65-13.86,7.21-20.5,6.75-17.54,15.87-33.64,29.22-47.09,6.85-6.9,14.7-12.41,24.02-16.93-12.65-20.34-25.15-40.42-37.81-60.78-1.49,.71-3.42,1.42-5.12,2.49-8.06,5.04-12.79,12.79-16.42,21.19-3.09,7.15-5.49,14.59-8.2,21.9,0-6.82,0-13.64,0-20.46,.6-1.07,1.28-2.1,1.79-3.21,3.68-8,7.94-15.66,14.76-21.43,3.14-2.66,6.84-4.66,10.46-7.08-9.63-18.86-17.45-38.64-22.98-59.8-1.57,1.65-2.8,2.94-4.03,4.23,0-3.41,0-6.82,0-10.23,.65-1.08,1.93-2.22,1.83-3.22-.3-2.82-1.18-5.59-1.83-8.37,0-18.12,0-36.24,0-54.55H-49.4c-.52,2.19-.97,4.4-1.57,6.57-4.53,16.24-6.08,32.73-4.53,49.54,.3,3.3,1.63,4.83,4.81,5.78,12.11,3.64,22.89,9.96,32.39,18.14,14.04,12.1,25.37,26.53,34.66,42.57,1.33,2.29,2.67,4.58,4.32,7.41,0-2.86,.02-4.99,0-7.11-.12-11.24-.3-22.47-.36-33.71-.02-3.51,.92-7.13,.34-10.52-3.86-22.64-11.05-44.17-22.76-64.03-2.98-5.05-6.51-9.77-9.78-14.64,2.73,0,5.46,0,8.18,0,.32,.6,.57,1.24,.96,1.78,9.22,12.78,16,26.79,21.07,41.66,1.47,4.3,2.85,8.64,4.49,13.61,.3-1.11,.46-1.51,.52-1.93,1.64-10.4,3.14-20.82,4.96-31.19,1.4-8.01,3.2-15.96,4.83-23.93,2.27,0,4.55,0,6.82,0-.07,.56-.12,1.12-.22,1.67-3.25,17.36-6.52,34.72-9.74,52.09-.27,1.46-.27,2.96-.4,4.45,13.08-18.63,29.57-33.15,48.22-45.36,6.82-4.46,13.85-8.58,20.79-12.86,4.77,0,9.55,0,14.32,0-9.44,5.39-19.09,10.45-28.29,16.23-18.41,11.56-35.01,25.25-47.43,43.38-4.56,6.65-9.3,13.54-9.79,21.81-.69,11.55-.57,23.15-.52,34.73,.03,5.92,.65,11.84,1.01,17.76,1.07-.71,1.47-1.47,1.81-2.26,7.55-17.59,19.18-31.48,36.38-40.4,1.16-.6,2.13-1.97,2.7-3.21,9.4-20.36,20.77-39.58,33.05-58.32,6.33-9.67,11.95-19.8,17.89-29.73,34.78,0,69.56,0,104.34,0-6.45,18.77-8.31,38.03-6.27,57.74,.21,2.07,.97,2.83,2.89,3.37,11.97,3.41,22.53,9.61,32.06,17.41,16.28,13.34,28.73,29.88,38.96,48.16,.56,1,1.19,1.96,1.83,3.02,0-14.74,0-29.15,0-43.55,0-3.06,.36-6.2-.16-9.17-2.67-15.13-7.09-29.76-13.06-43.93-5.01-11.89-11.66-22.79-19.42-33.05h8.18c11.92,16.44,20.07,34.68,25.71,54.11,.19,.65,.61,1.24,.97,1.93,2.27-12.98,4.45-25.7,6.72-38.41,1.05-5.89,2.28-11.76,3.42-17.63,2.27,0,4.55,0,6.82,0-.07,.78-.08,1.58-.23,2.35-2.76,14.25-5.6,28.49-8.27,42.76-.81,4.3-1.17,8.69-1.74,13.04,14.41-20.56,33.06-35.91,53.84-48.92,4.99-3.12,10.03-6.15,15.04-9.22,4.77,0,9.55,0,14.32,0-.62,.46-1.2,.98-1.86,1.36-11.05,6.47-22.41,12.47-33.11,19.48-16.25,10.66-30.55,23.57-41.35,39.94-4.89,7.41-9.36,15.11-9.4,24.41-.06,12.15-.12,24.3,0,36.44,.04,4.17,.67,8.34,1.03,12.51,.87-.52,1.08-1.04,1.29-1.55,7.32-17.51,18.6-31.54,35.49-40.75,1.64-.89,3.25-2.5,4.04-4.17,10.08-21.54,22.21-41.86,35.39-61.63,5.58-8.37,10.23-17.35,15.31-26.06,34.78,0,69.56,0,104.34,0-2.09,9.97-4.93,19.85-6.06,29.93-1,8.95,0,18.11-.08,27.17-.02,2.48,.76,3.64,3.16,4.29,9.53,2.58,18.02,7.36,26.03,12.99,18.1,12.72,31.39,29.69,42.53,48.53,1.37,2.31,2.72,4.64,4.05,6.9,0-15.61,.03-31.04-.02-46.47,0-2.82,0-5.7-.54-8.44-5.45-27.23-14.77-52.82-32.24-74.89,2.96,0,5.91,0,8.87,0,.26,.7,.39,1.51,.81,2.1,8.29,11.49,14.64,23.99,19.42,37.31,2.01,5.61,3.86,11.29,5.55,16.25,3.61-18.21,7.32-36.93,11.04-55.66,2.27,0,4.55,0,6.82,0-.2,.53-.49,1.04-.59,1.59-2.76,13.9-5.57,27.79-8.19,41.72-.94,5-1.4,10.08-2.19,15.95,3.37-4.47,6.03-8.27,8.97-11.85,13.05-15.9,29.07-28.29,46.46-39.03,4.51-2.78,9-5.58,13.51-8.38,4.77,0,9.55,0,14.32,0-.8,.58-1.55,1.23-2.4,1.72-9.82,5.67-19.93,10.88-29.42,17.05-17.45,11.34-33.01,24.82-44.62,42.38-5.73,8.66-9.76,17.81-9.4,28.57,.33,9.87-.03,19.76,.15,29.63,.09,4.9,.72,9.79,1.1,14.68,1-.75,1.41-1.52,1.75-2.33,7.47-17.64,19.14-31.48,36.32-40.42,1.09-.57,2.07-1.77,2.59-2.92,10.91-23.81,24.59-45.98,39.24-67.63,4.42-6.52,7.71-13.81,11.51-20.75,20.85,0,41.7,0,62.74,0v50.46c-.22-.62-.59-1.24-.62-1.88-.52-9.84-1.23-19.68-1.4-29.52-.09-5.47,.74-10.95,1.15-16.42-16.1,30.91-20.78,64.21-21.23,98.13,4.46-7.96,8.73-16.15,13.57-23.98,2.27-3.67,5.65-6.66,8.52-9.97v10.23c-.77,.83-1.58,1.62-2.29,2.5-6.61,8.25-10.79,17.78-14.14,27.68-2.57,7.61-5.52,15.33-4.5,23.51,2.21,17.76,4.79,35.47,7.38,53.18,.69,4.69,1.99,9.3,3,13.94,1.28-2.42,1.64-4.78,2.34-7.03,2.68-8.62,5.46-17.21,8.2-25.81v21.14c-6.48,18.18-7.28,36.37,0,54.55V53.65c-.18-.4-.47-.79-.54-1.21-1.9-10.95-3.57-21.95-5.74-32.85-1.86-9.34-3.77-18.72-6.61-27.78-3.37-10.74-10.03-19.81-17.04-28.49-14.24-17.65-31.4-32.09-50.2-44.63-6.39-4.26-12.98-8.23-19.73-12.49-.46,1.48-.82,2.42-1.05,3.4-6.07,25.65-4.6,50.87,4.06,75.75,.93,2.67,2.34,4.25,4.9,5.49,9.9,4.79,19.87,9.5,29.45,14.88,21.03,11.81,40.18,26.05,55.43,45.03,2.39,2.98,4.71,6.02,7.06,9.03v13.64c-.28-.33-.65-.63-.83-1.01-6.51-13.25-15.94-24.22-26.79-34.03-18.54-16.75-39.87-29.14-62.42-39.58-.29-.13-.7-.02-1.89-.02,4.99,8.53,9.27,16.8,14.44,24.47,14.48,21.48,28.06,43.45,38.79,67.1,.58,1.28,2.02,2.37,3.32,3.09,10.06,5.56,19.05,12.42,25.55,22.01,3.6,5.32,6.57,11.06,9.83,16.61v49.1c-3.13,8.02-6.25,16.03-9.68,24.82,2.11-1.99,3.53-3.43,5.06-4.75,1.49-1.29,3.08-2.47,4.63-3.7v70.92c-.19-.4-.48-.79-.54-1.21-2.03-13.99-2.21-28.02-.71-42.08,.17-1.59,.44-3.17,.66-4.76-16.37,30.96-21.13,64.28-21.12,98.6,.68-.74,.99-1.57,1.33-2.39,4.91-11.81,11.05-22.83,20.39-31.8v10.23c-.78,.77-1.67,1.46-2.33,2.33-8.89,11.68-14.07,25.07-17.28,39.2-1.11,4.87-1.5,10.16-.93,15.11,1.8,15.86,4.09,31.68,6.44,47.47,.84,5.63,2.36,11.16,3.57,16.74,1.26-2.42,1.64-4.84,2.36-7.15,2.67-8.59,5.45-17.15,8.18-25.73v21.14c-6.64,18.18-7.15,36.37,0,54.55v38.19c-.18-.41-.46-.79-.54-1.22-2.58-14.05-5.31-28.08-7.66-42.18-2.83-16.97-9.61-32.01-20.39-45.42-13.21-16.43-28.75-30.29-45.92-42.36-8.14-5.72-16.69-10.87-25.33-16.46-.49,1.48-.83,2.3-1.04,3.16-6.01,25.52-4.77,50.65,3.8,75.46,1.04,3.01,2.5,4.88,5.44,6.29,9.92,4.74,19.85,9.53,29.44,14.9,19.13,10.71,36.67,23.57,51.18,40.2,3.86,4.42,7.34,9.16,11,13.75v13.64c-.39-.53-.88-1.02-1.16-1.61-6.04-12.31-14.72-22.57-24.67-31.84-17.53-16.33-37.79-28.52-59.23-38.92-1.93-.94-3.93-1.75-5.9-2.62-.26,.28-.53,.56-.79,.83,5.11,8.56,9.84,17.37,15.4,25.62,14.1,20.93,27.16,42.41,37.68,65.39,.55,1.19,1.79,2.29,2.99,2.93,11.55,6.17,21.05,14.58,28.07,25.66,2.71,4.29,5.1,8.79,7.63,13.19v49.1c-3.14,8-6.29,15.99-9.75,24.8,3.67-3.43,6.71-6.27,9.75-9.11v21.14h-62.06c.3-1.04,.6-2.08,1.1-3.84-2.76,1.47-5,2.65-7.24,3.84h-14.32c7.7-3.85,15.44-7.6,23.05-11.62,1.5-.79,3.01-2.4,3.6-3.98,4.44-11.75,7.06-23.95,7.94-36.47,1.02-14.58-.31-28.99-4.18-43.19-.45,.12-.81,.14-1.09,.3-26.61,15.44-51.1,33.5-70.31,57.88-8.68,11.02-16.38,22.67-18.34,37.08h-6.82c.69-4.44,2.28-8.96,1.9-13.31-1.21-13.83-4.44-27.33-8.96-40.46-3.64-10.56-8.11-20.75-16.31-28.78-2.95-2.89-6.32-5.02-9.91-5.86-12.68,20.36-25.12,40.35-37.74,60.63,13.97,6.65,24.67,16.12,33.52,27.77h-8.18c-7.87-9.01-16.68-16.8-28.38-21.83-2.9,7.5-5.67,14.66-8.44,21.83h-103.65c.22-1.03,.43-2.07,.8-3.82-2.63,1.45-4.78,2.64-6.94,3.82h-14.32c.82-.57,1.59-1.26,2.48-1.7,6.63-3.24,13.23-6.54,19.95-9.57,2.15-.97,3.39-2.22,4.18-4.42,7.04-19.68,9.61-39.9,7.19-60.66-.74-6.34-2.11-12.6-3.35-19.85-9.58,6.25-18.39,11.62-26.8,17.56-20.16,14.25-38.28,30.64-51.94,51.48-5.45,8.32-9.98,17.03-11.04,27.15h-6.82c.36-1.77,.92-3.52,1.05-5.31,.28-3.69,.99-7.51,.35-11.07-1.83-10.26-3.88-20.5-6.52-30.57-2.83-10.79-6.99-21.14-13.7-30.22-3.86-5.23-8.38-9.77-14.66-11.22-12.66,20.36-25.13,40.41-37.18,59.79,7.17,5.16,13.94,9.37,19.9,14.53,4.71,4.08,8.41,9.33,12.57,14.06h-8.18c-2.7-3-5.2-6.21-8.14-8.94-5.7-5.29-12.06-9.67-19.74-12.96-2.86,7.57-5.56,14.74-8.27,21.9H119.72c.44-1.02,.88-2.05,1.7-3.96-3.27,1.65-5.55,2.8-7.84,3.96h-13.64c1.01-.68,1.95-1.5,3.03-2.03,6.52-3.19,13.13-6.21,19.58-9.55,1.51-.78,3.06-2.35,3.64-3.92,7.65-20.61,9.98-41.87,7.08-63.65-.72-5.42-2.04-10.75-3.15-16.5-21.14,12.16-40.42,25.53-57.03,42.38-15.02,15.23-28.62,31.46-33.16,53.26Zm42.36-312.43c-.53,1.74-.71,2.26-.84,2.79-6.59,26.69-4.95,52.92,4.55,78.67,.44,1.2,1.68,2.4,2.85,2.99,8.8,4.47,17.83,8.51,26.51,13.21,21.11,11.42,40.47,25.2,56.33,43.44,3.68,4.24,6.95,8.84,10.75,13.71-.09-1.47-.06-2.45-.23-3.39-3.14-17.3-6.16-34.63-9.51-51.89-1.84-9.49-4.75-18.62-9.96-26.99-12.15-19.47-28.09-35.36-46.28-49.02-10.86-8.15-22.36-15.45-34.16-23.53Zm273.3,.56c-.77,.92-1,1.06-1.05,1.26-6.65,26.75-5.3,53.11,4.12,79,.57,1.56,2.23,3.05,3.76,3.87,13.17,7.1,26.77,13.47,39.59,21.15,19.93,11.93,37.51,26.73,50.93,46,.65,.93,1.33,1.84,2.53,3.48-.17-2.01-.16-3.04-.34-4.03-3.23-17.62-6.47-35.24-9.73-52.86-2.1-11.32-6.58-21.59-13.14-31.09-13.41-19.41-30.39-35.17-49.46-48.75-8.85-6.3-18.1-12.02-27.2-18.03ZM675.91,122.79c-.48,.14-.84,.16-1.12,.32-25.02,14.46-48.1,31.39-66.85,53.63-8.29,9.83-16.54,20.06-19.61,32.74-4.56,18.81-7.87,37.93-11.68,56.92-.33,1.67-.48,3.37-.69,5.06-.21,1.66-.39,3.32-.59,4.98,7.88-11.24,16.95-21.03,27.15-29.8,19.28-16.59,41.17-28.94,64.29-39.22,3.32-1.47,5.03-3.47,6.15-6.88,3.57-10.84,6.07-21.87,7-33.23,1.23-15.04-.13-29.87-4.04-44.52ZM182.69,60.16c-1.04-6.9-1.78-13.44-3.05-19.88-3.07-15.46-5.92-30.99-9.76-46.26-3.1-12.34-10.86-22.4-18.82-32.06-15.76-19.11-34.83-34.41-55.67-47.61-4.28-2.71-8.66-5.27-13.06-7.94-.4,.68-.63,.94-.71,1.23-6.72,27-5.24,53.56,4.47,79.63,.41,1.1,1.54,2.21,2.62,2.75,6.19,3.09,12.53,5.88,18.69,9.02,21.36,10.89,41.37,23.77,58.15,41.08,5.96,6.15,11.19,13.02,17.15,20.03ZM355.44-93.66c-.64,.81-.86,.96-.91,1.16-6.69,27.1-5.28,53.76,4.56,79.91,.41,1.08,1.59,2.09,2.67,2.66,12.24,6.42,24.8,12.27,36.75,19.2,18.68,10.83,35.46,24.15,49.12,41.07,2.52,3.13,4.81,6.44,7.49,10.05,0-1.66,.16-2.8-.02-3.87-2.68-15.19-5.75-30.32-8.03-45.57-3.24-21.66-13.87-39.32-28.32-55.13-12.86-14.06-27.4-26.15-43.21-36.71-6.58-4.39-13.35-8.5-20.08-12.77Zm-53.27,369.71c.29,.07,.59,.13,.88,.2,.6-.79,1.25-1.56,1.81-2.38,8.26-12.12,18.47-22.41,29.88-31.54,17.93-14.34,37.8-25.44,58.72-34.72,3.2-1.42,5.31-3.16,6.48-6.65,6.44-19.23,8.93-38.88,6.62-59.04-.73-6.36-2.13-12.64-3.24-19.04-1.02,.22-1.38,.21-1.65,.37-25.81,14.97-49.63,32.44-68.56,55.83-8.16,10.08-15.71,20.66-18.76,33.61-2.42,10.27-4.78,20.57-6.76,30.93-2.06,10.77-3.63,21.63-5.41,32.45ZM130.55,122.97c-.45-.14-.9-.28-1.35-.42-8.35,5.45-16.86,10.68-25.03,16.39-18.52,12.94-35.27,27.82-48.65,46.19-5.56,7.63-11.2,15.43-13.34,24.73-4.01,17.46-7.37,35.07-10.85,52.64-.88,4.42-1.22,8.94-1.81,13.41,10.25-14.07,22.23-25.89,35.75-36.25,17.58-13.46,36.89-23.91,57.02-32.99,1.33-.6,2.77-1.62,3.44-2.85,1.07-1.95,1.55-4.22,2.26-6.37,5.61-17.06,7.61-34.56,5.92-52.41-.7-7.4-2.21-14.72-3.36-22.08Zm333.57,451.3c.86-1.16,1.2-1.57,1.49-2.01,5.38-8.14,10.31-16.61,16.21-24.36,14.59-19.14,32.21-34.5,55.76-41.75,1.96-.6,2.27-1.77,2.47-3.43,1.72-14.11,.93-28.11-1.96-42-2.69-12.94-7.06-25.3-13.01-37.37-1.8,.88-3.46,1.61-5.03,2.47-11.19,6.12-20,14.86-27.37,25.12-11.81,16.45-19.46,34.83-24.38,54.34-1.9,7.54-3.56,15.3-3.92,23.02-.65,13.93-.23,27.92-.26,41.88,0,1.07,0,2.14,0,4.08ZM-40.02,196.47c-.49,.8-1.03,1.41-1.28,2.11-3.8,10.78-8.16,21.42-11.18,32.42-3.81,13.89-4.39,28.22-3.05,42.59,.29,3.15,1.15,5.02,4.66,6.25,6.39,2.23,12.7,5.02,18.52,8.45,19.45,11.45,33.58,28.21,45.49,47.03,2.49,3.93,4.82,7.96,7.69,12.72,0-1.67,0-2.34,0-3.01,0-15.43,0-30.87-.03-46.3,0-1.13-.05-2.29-.32-3.37-2.35-9.46-4.32-19.04-7.24-28.32-6.06-19.21-14.73-37.13-28.45-52.21-7.01-7.7-15.03-14.09-24.82-18.35Zm545.81-.02c-.46,.72-.74,1.06-.92,1.46-11.74,24.73-17.21,50.59-14.22,78.02,.21,1.92,1.09,2.54,2.71,3.26,7.45,3.29,15.23,6.11,22.13,10.34,19.51,11.97,33.51,29.33,45.32,48.6,1.92,3.14,3.74,6.34,5.42,9.19,0-12.95,0-25.99,0-39.03,0-4.87,.9-9.97-.22-14.57-2.98-12.31-6.22-24.62-10.46-36.54-6.45-18.15-16.03-34.58-30.33-47.85-5.68-5.27-11.98-9.65-19.42-12.88Zm19.38-216.32c-1.4,.64-2.55,1.11-3.64,1.69-11.73,6.12-20.96,15.06-28.66,25.66-11.77,16.21-19.28,34.42-24.33,53.63-2.08,7.94-3.73,16.16-4.16,24.32-.63,11.88,.02,23.84,.12,35.76,.02,3.19,0,6.37,0,9.24,4.88-7.41,9.65-15.22,14.99-22.63,14.77-20.52,32.99-36.73,57.55-44.68,2-.65,2.79-1.57,3.04-3.7,3.29-27.84-2.83-53.88-14.9-79.29ZM252.75,423.28c-1.35,.53-1.99,.74-2.6,1.03-11.33,5.39-20.39,13.56-27.95,23.4-16.36,21.28-25.14,45.85-30.05,71.87-1.26,6.67-.27,13.77-.28,20.68-.02,11.4,0,22.79,0,33.66,.05-.08,.54-.81,1-1.56,3.59-5.79,6.92-11.75,10.8-17.33,15.59-22.36,34.55-40.6,61.29-49.13,.91-.29,1.91-1.78,2.03-2.82,2.27-18.41,.66-36.54-4.85-54.21-2.68-8.61-6.2-16.96-9.4-25.58Zm-273.51,.06c-14.36,6.44-24.89,16.73-33.51,29.11-12.02,17.28-19.5,36.58-24.41,56.93-1.33,5.49-2.81,11.1-2.96,16.69-.32,12.13,.24,24.29,.3,36.44,.02,4.03-.4,8.06-.67,12.97,.83-1.35,1.2-1.99,1.61-2.62,5.52-8.44,10.6-17.23,16.67-25.26,14.38-19.04,31.96-34.08,55.22-41.38,1.93-.6,2.6-1.64,2.81-3.63,1.36-13.32,.94-26.56-1.61-39.69-2.65-13.65-7.2-26.67-13.45-39.55Zm314.44-75.49c0-2.06,0-3.13,0-4.19-.04-13.39-.07-26.78-.15-40.18-.02-3.17,.18-6.4-.37-9.49-2.46-14-6.46-27.59-11.9-40.72-6.76-16.29-15.45-31.36-28.52-43.52-5.91-5.49-12.35-10.21-20.05-13.32-12.32,25.44-18.14,51.77-14.75,79.78,.13,1.05,1.45,2.45,2.51,2.8,9.21,3.08,17.85,7.25,25.83,12.8,16.23,11.27,28.67,26.04,39.23,42.52,2.66,4.15,5.11,8.44,8.17,13.52ZM-20.78-19.87c-1.85,.91-3.39,1.6-4.87,2.4-10.68,5.79-19.23,14-26.41,23.67-13.34,17.96-21.35,38.34-26.59,59.9-1.38,5.69-2.75,11.54-2.94,17.35-.33,10.65,.34,21.33,.37,31.99,.02,5.32-.45,10.65-.66,15.14,6.97-9.92,13.81-20.63,21.63-30.57,13.6-17.27,30.4-30.43,51.8-36.92,1.92-.58,2.54-1.72,2.73-3.69,1.09-11.58,1-23.12-.77-34.63-2.38-15.48-7.31-30.12-14.31-44.63ZM191.26,131.58c.6-.83,1.04-1.32,1.35-1.88,7.88-14.49,17.18-27.92,28.91-39.65,12.29-12.29,26.05-22.08,42.91-27.01,1.67-.49,2.51-1.28,2.72-3.25,1.66-15.15,.89-30.16-2.53-45-2.75-11.93-6.86-23.41-12.48-34.64-1.82,.9-3.45,1.64-5.03,2.51-9.81,5.38-17.85,12.82-24.69,21.59-13.35,17.11-21.51,36.71-26.98,57.5-1.84,6.98-3.73,14.16-4,21.31-.6,15.96-.19,31.97-.19,48.53ZM461.89,57.69c.2,0,.41,0,.61,0,1.19-3.77,2.28-7.59,3.6-11.32,10.71-30.1,25.73-56.9,56.25-72.4-12.53-20.16-25.02-40.24-37.61-60.49,.02,0-.31,0-.62,.11-8.68,2.95-13.77,9.74-17.98,17.27-8.7,15.57-12.79,32.66-15.63,50.06-.79,4.83-1.23,9.99-.39,14.75,2.52,14.28,5.84,28.42,8.65,42.65,1.27,6.41,2.09,12.91,3.11,19.37Zm84.18,71.93c-12.65,20.34-25.13,40.38-37.45,60.19,5.81,3.81,11.21,6.79,15.94,10.6,4.83,3.89,9.34,8.31,13.4,13.01,14.13,16.36,22.67,35.68,28.93,56.14,.5,1.63,1.03,3.24,1.3,4.08,3.95-19.54,8.06-39.52,11.97-59.52,.75-3.82,1.4-7.9,.88-11.69-1.12-8.17-2.7-16.32-4.71-24.33-3.29-13.13-7.51-25.97-15.61-37.09-3.8-5.22-8.33-9.59-14.66-11.38ZM249.49,417.24c-12.64-20.32-25.14-40.4-37.92-60.94-2.37,1.35-5.26,2.53-7.57,4.41-5.43,4.43-9.33,10.13-12.45,16.39-7.26,14.58-11.08,30.19-13.87,46.1-.96,5.46-1.84,10.81-.54,16.5,3.24,14.14,6.05,28.38,8.86,42.62,1.21,6.15,2,12.39,3.13,19.6,.53-1.46,.71-1.94,.88-2.42,3.13-8.63,5.76-17.48,9.47-25.86,10.53-23.78,25.12-44.18,50-56.4ZM211.76-86.62c-8.73,2.81-14.05,9.52-18.35,17.16-8.63,15.36-12.76,32.21-15.66,49.38-.81,4.84-1.5,10.01-.67,14.76,2.41,13.84,5.73,27.52,8.44,41.31,1.41,7.15,2.3,14.41,3.42,21.62,5.58-16.85,12.01-33.12,21.63-47.97,9.78-15.1,22.03-27.56,38.94-35.55-12.68-20.38-25.13-40.39-37.77-60.71ZM22.99,274.23c.16-.76,.34-1.53,.48-2.29,3.18-17.39,6.3-34.8,9.58-52.18,1.23-6.53,3.76-12.82,2.01-19.72-1.42-5.6-2.08-11.39-3.38-17.02-3.03-13.09-6.87-25.91-13.84-37.54-4.32-7.2-9.51-13.51-17.65-15.87-12.67,20.37-25.15,40.44-37.75,60.7,17.08,8.11,29.28,20.52,39.01,35.57,9.7,14.99,16.16,31.41,21.54,48.35Zm250.15-144.57c-12.64,20.31-25.12,40.36-37.74,60.65,14.33,6.84,25.22,16.59,34.17,28.61,11.18,15.02,18.61,31.86,24.11,49.65,.56,1.8,1.22,3.57,1.61,4.69,4.13-20.13,8.37-40.54,12.47-60.97,.57-2.84,1.06-5.93,.55-8.72-1.97-10.7-3.92-21.43-6.71-31.93-2.93-11.08-7.11-21.78-14.13-31.08-3.81-5.05-8.28-9.26-14.32-10.89Zm188.69,371.3c.2,0,.4,0,.6,0,.32-.93,.62-1.86,.97-2.78,3.65-9.65,6.83-19.5,11.07-28.88,7.28-16.11,17.23-30.45,31.24-41.52,5.02-3.97,10.66-7.16,16.29-10.88-1.75-3.05-3.52-6.34-5.48-9.51-9.71-15.75-19.51-31.44-29.19-47.21-2.59-4.22-2.55-4.32-6.83-1.69-7.73,4.75-12.73,11.79-16.58,19.76-7.02,14.55-10.86,30.06-13.43,45.9-.7,4.3-1.41,8.89-.65,13.09,2.97,16.41,6.59,32.69,9.82,49.05,.96,4.84,1.46,9.78,2.17,14.67ZM629.7-100.18c30.74,17.54,58.35,38.36,79.5,66.91,.11-.72,0-1.26-.08-1.81-2.79-18.72-6.3-37.38-8.17-56.19-2.02-20.29-7.52-39.14-18.46-56.32-4.45-6.98-9.75-13.29-16.51-18.64-15.67,20.17-28.55,41.49-36.28,66.05Zm-236.77-66.2c-3.95,5.52-7.76,10.6-11.32,15.86-10.04,14.81-18.32,30.51-24.01,47.54-.74,2.2-.36,3.23,1.62,4.28,3.2,1.71,6.26,3.67,9.35,5.57,25.41,15.67,48.3,34.21,66.24,58.36,.26,.35,.72,.55,1.44,1.08-.21-1.38-.34-2.27-.47-3.16-2.71-18.74-5.94-37.42-7.96-56.24-1.69-15.68-5.56-30.53-12.57-44.57-5.42-10.85-12.47-20.5-22.31-28.72Zm-36.15,509.4c30.7,17.6,58.43,38.32,79.74,67.73-.36-2.02-.6-3.22-.78-4.44-2.65-18.18-5.9-36.3-7.76-54.56-1.82-17.91-6.28-34.78-15.02-50.48-5.11-9.17-11.47-17.36-19.92-24.33-15.73,20.17-28.65,41.54-36.27,66.07Zm-35.32,283.49c1.48-1.86,2.34-2.97,3.24-4.06,3.32-4.03,6.5-8.19,9.99-12.05,18.15-20.1,39.84-35.72,63.11-49.24,2.86-1.66,3.08-3.08,2.1-5.88-5.38-15.3-12.64-29.65-21.56-43.15-4.24-6.41-8.8-12.61-13.34-19.09-1.02,.81-1.65,1.26-2.21,1.78-19.64,18.45-29.16,41.72-32.33,67.99-1.52,12.62-2.84,25.26-4.56,37.86-1.13,8.3-2.81,16.52-4.43,25.84Zm316.04-133.69c-3.53,3.7-6.85,6.79-9.72,10.25-13.37,16.17-20.91,34.97-23.89,55.57-2.17,15.04-3.49,30.2-5.48,45.27-.97,7.35-2.63,14.61-3.97,21.9,21.32-28.53,49.19-49.07,79.59-66.65-7.75-24.52-20.63-45.82-36.53-66.34ZM48.5,182.98c4.72-5.65,8.69-10.71,12.97-15.47,18.35-20.38,40.32-36.18,63.92-49.83,2.49-1.44,2.58-2.73,1.76-5.09-5.17-14.87-12.08-28.88-20.69-42.04-4.57-6.98-9.5-13.73-14.41-20.78-1.45,1.2-2.45,1.92-3.32,2.78-18.29,17.91-27.63,40.13-31.02,65.12-2.17,15.96-3.92,31.98-6.03,47.95-.73,5.53-2,11-3.18,17.37ZM637.39,50.19c-.84,.7-1.75,1.36-2.54,2.14-19.18,18.79-28.58,42.1-31.62,68.38-1.63,14.08-3.43,28.14-5.22,42.2-.43,3.37-1.08,6.72-1.69,10.07-.6,3.22-1.28,6.42-1.93,9.63,21.39-28.59,49.33-49.07,79.54-66.6-6.7-24.03-25.9-54.34-36.53-65.81ZM120.18-166.28c-14.81,18.92-27.01,38.87-34.79,61.31-1.91,5.51-2.38,4.28,2.67,7.24,24.42,14.32,46.93,31.02,65.51,52.59,3.24,3.75,6.25,7.7,9.76,12.03-.12-1.32-.16-2.05-.26-2.77-2.67-17.93-5.87-35.8-7.86-53.8-1.49-13.52-3.77-26.69-8.91-39.3-5.82-14.27-13.98-26.9-26.11-37.31ZM48.65,625.32c21.48-28.2,49.15-48.62,79.22-66.01-2.73-15.14-26.16-57.56-36.39-65.86-.83,.68-1.75,1.33-2.55,2.11-18.57,18.15-27.99,40.64-31.29,66.03-2.2,16.98-4.38,33.96-6.68,50.93-.58,4.29-1.54,8.53-2.32,12.8Zm114.6-215.56c-.15-1.35-.23-2.2-.35-3.04-2.79-19.53-6.04-39-8.25-58.59-2.47-21.84-9.5-41.71-22.89-59.17-3.32-4.33-7.4-8.09-11.14-12.13-.91,.86-1.29,1.13-1.56,1.48-14.13,18.35-26.09,37.93-33.66,59.95-1.92,5.57-2.26,4.31,2.73,7.23,22.73,13.33,43.85,28.72,61.68,48.28,4.56,5,8.73,10.36,13.44,15.98ZM365.22,49.67c-20.13,16.12-32.27,45.83-34.82,69.4-1.83,16.9-4.31,33.73-6.59,50.58-.58,4.28-1.52,8.5-2.33,12.96,6.15-7.02,11.79-13.97,17.96-20.41,17.18-17.92,37.29-32.06,58.68-44.43,2.58-1.49,2.77-2.82,1.87-5.39-4.29-12.25-9.6-24.03-16.46-35.03-5.81-9.31-12.09-18.32-18.31-27.69Zm344.27,360.56c-.88-4.53-1.78-8.4-2.37-12.31-2.04-13.46-4.05-26.93-5.9-40.42-.95-6.96-1.03-14.06-2.36-20.93-2.79-14.37-7.93-27.94-15.92-40.29-4.62-7.14-9.96-13.72-16.91-19.31-15.75,20.19-28.69,41.56-36.26,65.86,35.69,21.7,52.4,33.61,79.72,67.38Zm-135.02-58.13c.73-1.64,1.44-3.3,2.19-4.93,7.52-16.41,18.84-29.28,34.93-37.81,1.34-.71,2.47-2.22,3.2-3.62,4.73-9.04,8.87-18.43,14.07-27.19,8.58-14.42,17.92-28.39,26.74-42.66,4.14-6.7,7.82-13.68,11.71-20.53-.24-.2-.48-.4-.73-.6-.7,.27-1.42,.5-2.09,.81-16.5,7.68-32.32,16.55-46.95,27.43-13.93,10.36-26.71,21.96-35.87,36.88-3.51,5.72-7.42,12.08-8.14,18.48-2.02,17.83-1.53,35.82,.94,53.76ZM121.71,215.53c-.41-.35-.82-.69-1.23-1.04-6.71,3.43-13.59,6.58-20.1,10.35-8.63,4.99-17.22,10.13-25.39,15.82-15.66,10.9-29.75,23.58-39.77,40.05-3.31,5.44-7.03,11.57-7.5,17.62-1.15,14.65-.54,29.43-.52,44.16,0,3.11,.53,6.21,.89,10.19,.7-1.21,1-1.62,1.19-2.08,7.56-18.1,19.31-32.45,37.03-41.51,.98-.5,1.79-1.69,2.28-2.74,10.24-22.08,22.66-42.89,36.19-63.09,6.02-8.99,11.32-18.47,16.94-27.73Zm335.06-79.14c.23-1.78,.47-2.84,.49-3.91,.24-14.52,.44-29.04,.68-43.56,.11-7-1.97-13.37-5.28-19.47-8.68-15.99-21.12-28.68-35.44-39.49-8.83-6.67-18.21-12.68-27.69-18.41-8.09-4.88-16.68-8.93-25.06-13.35-.24,1.48-.06,2.34,.36,3.08,4.14,7.29,7.88,14.87,12.58,21.79,14.55,21.45,28.01,43.49,38.88,67.07,.68,1.47,2.25,2.79,3.73,3.58,12.88,6.88,22.84,16.71,29.95,29.41,2.3,4.11,4.31,8.38,6.8,13.27ZM91.76-2.08c-.46,.5-.92,1-1.38,1.5,5.29,8.82,10.19,17.91,15.93,26.42,13.81,20.45,26.5,41.5,36.83,63.94,.73,1.57,2.35,3.04,3.91,3.88,11.59,6.2,20.92,14.82,27.83,25.94,3.21,5.16,5.85,10.66,8.91,16.32,.22-1.35,.55-2.44,.56-3.54,.21-15.43,.45-30.87,.51-46.3,0-2.56-.22-5.41-1.33-7.63-3.54-7.07-6.9-14.36-11.49-20.75-12.03-16.76-27.99-29.39-45.39-40.11-11.36-7-23.26-13.13-34.91-19.66Zm209.11,354.1c.24,0,.48,.02,.71,.02,.22-.5,.46-1,.67-1.51,7.63-18.04,19.28-32.47,37.06-41.47,.97-.49,1.71-1.75,2.21-2.81,8.19-17.49,17.61-34.29,28-50.57,7.74-12.13,15.18-24.46,22.7-36.73,.76-1.25,1.2-2.7,1.78-4.05-.26-.22-.53-.44-.79-.66-9.85,5.34-19.88,10.37-29.52,16.08-20.56,12.19-39.25,26.66-53.08,46.54-5.52,7.94-10.62,16.2-10.7,26.38-.08,11.58-.16,23.16-.04,34.74,.05,4.68,.64,9.36,.99,14.03Zm63.79,89.22c-.38,.41-.76,.82-1.14,1.23,3.66,6.49,6.93,13.25,11.06,19.44,15.34,22.95,30.21,46.15,41.7,71.35,.68,1.49,2.28,2.83,3.78,3.63,15.29,8.2,26.1,20.51,33.43,36.07,.94,1.99,1.87,3.97,3.13,6.63,.3-1.27,.51-1.79,.52-2.31,.2-16.8,.42-33.59,.5-50.39,0-1.87-.59-3.81-1.22-5.62-3.07-8.79-8.01-16.52-13.82-23.7-12.65-15.64-28.21-27.95-45.31-38.28-10.63-6.42-21.74-12.06-32.63-18.05Zm-273.01,.43c-.26,.19-.53,.38-.79,.58,1.76,3.49,3.26,7.15,5.33,10.45,7.58,12.09,15.73,23.83,22.93,36.13,8.24,14.08,15.78,28.59,23.42,43.01,1.29,2.43,2.71,4.17,5.16,5.47,10.09,5.35,18.61,12.65,24.93,22.18,4.1,6.19,7.53,12.82,11.24,19.23,.15-.85,.48-1.94,.5-3.03,.23-15.2,.49-30.41,.54-45.61,0-2.9-.47-5.92-1.38-8.67-2.96-8.94-8.05-16.74-13.98-23.96-20.98-25.56-48.66-41.77-77.89-55.77Zm400.7-156c.33,1.88,.49,3.09,.76,4.29,4.4,19.1,12.44,36.65,22.86,53.15,16.37,25.9,37.17,48.04,59.08,69.22,1.63,1.58,3.28,3.13,4.93,4.69,1.65,1.56,3.3,3.11,4.96,4.66-5.6-13.13-10.28-26.41-12.87-40.24-1.82-9.74-5.25-18.71-9.78-27.4-10.76-20.63-23.92-39.36-42.5-53.8-8.12-6.31-16.98-11.24-27.45-14.57Zm.62-442.68c0,1.14-.15,1.94,.02,2.67,.89,3.75,1.7,7.52,2.82,11.2,6.58,21.79,17.82,41.12,31.31,59.26,14.81,19.93,32.02,37.69,49.85,54.88,1.31,1.26,2.62,2.52,3.96,3.74,1.33,1.21,2.69,2.38,4.04,3.57-6.14-13.91-10.47-28.18-13.65-42.83-.77-3.53-1.05-7.34-2.61-10.5-5.3-10.77-10.5-21.67-16.8-31.86-10.36-16.75-23.37-31.25-40.3-41.76-5.74-3.57-11.67-6.86-18.63-8.39ZM39.55-20.93c-.18-1.06-.16-1.39-.29-1.66-5.48-11.51-9.5-23.53-12.44-35.93-1.41-5.94-2.05-12.27-4.6-17.69-5.3-11.25-11.03-22.4-17.7-32.89-11.91-18.73-27.17-34.25-47.4-44.22-3.28-1.62-6.79-2.8-10.72-4.4,.26,1.54,.36,2.29,.52,3.04,4.13,19.31,12.15,36.99,22.56,53.64C-15.18-76.51,4.18-55.37,24.72-35.21c4.74,4.65,9.57,9.22,14.84,14.28ZM445.7,205.59c1.03-.92,1.73-1.47,2.35-2.11,14.5-15.02,29.49-29.6,43.35-45.18,17.75-19.96,32.24-42.19,41.26-67.57,2.4-6.75,4.11-13.75,6.36-21.41-2.41,.81-3.79,1.05-4.96,1.69-7.22,3.98-14.67,7.62-21.5,12.18-11.45,7.64-20.53,17.82-28.25,29.15-4.7,6.91-9.42,13.86-13.44,21.17-4.73,8.6-9.49,17.23-11.18,27.22-1.17,6.9-3.06,13.73-5.18,20.41-2.56,8.06-5.71,15.94-8.81,24.45ZM39.1,421.92c-5.03-12.24-9.3-24.39-12.21-37.03-1.42-6.17-2.4-12.56-4.77-18.36-7.01-17.21-16.67-32.89-28.64-47.19-9.36-11.17-19.9-20.82-32.82-27.64-4.41-2.33-9.1-4.13-14.53-6.56,1.11,4.61,1.84,8.04,2.76,11.4,6.53,23.9,18.56,45.07,33.73,64.31,11.15,14.13,23.5,27.34,35.66,40.64,6.56,7.16,13.86,13.65,20.82,20.44Zm134.23,226.72c.18,.35,.37,.69,.55,1.04,9.2-9.7,18.44-19.35,27.57-29.11,11.15-11.92,21.97-24.09,31.43-37.47,8.94-12.63,17.15-25.6,23.25-39.84,4.14-9.67,7.45-19.6,9.35-30.24-.78,.1-1.22,.1-1.63,.22-.87,.25-1.74,.52-2.58,.85-14.78,5.76-27.41,14.78-37.82,26.57-18.44,20.88-33.15,43.71-38.7,71.82-2.43,12.33-7.53,24.13-11.42,36.16Zm138.13-227.37c.21-.2,.41-.41,.62-.61-.18-.51-.31-1.05-.54-1.54-5.7-12.19-9.67-24.94-12.57-38.05-.95-4.31-1.55-8.78-3.16-12.84-6.57-16.57-15.51-31.82-26.62-45.76-11.77-14.77-25.56-27.06-43.22-34.46-2.02-.84-4.12-1.49-6.55-2.36,1.98,11.89,5.95,22.48,10.41,32.91,6.52,15.23,15.64,28.92,25.46,42.15,12.35,16.64,26.51,31.69,41.31,46.15,4.94,4.83,9.91,9.61,14.87,14.41Zm227.03,91.4c-10.11,3.15-18.69,7.93-26.62,13.91-18.12,13.69-31.26,31.5-41.66,51.39-3.96,7.58-7.8,15.52-9.82,23.75-3.22,13.12-6.43,26.18-11.53,38.71-1.04,2.55-2.17,5.06-3.26,7.59,1.36-.43,2.25-1.12,3.04-1.9,9.01-8.95,18.21-17.73,26.97-26.92,21.17-22.19,40.12-46.01,52.69-74.31,4.51-10.16,8.07-20.64,10.19-32.22ZM172.71,205.42c1.18-.95,1.89-1.41,2.48-2,9.27-9.19,18.72-18.2,27.73-27.63,20.23-21.19,38.37-43.94,50.95-70.66,5.27-11.19,9.29-22.81,11.69-35.43-1.34,.36-2.31,.53-3.21,.87-13.92,5.26-25.77,13.7-36.22,24.12-12.54,12.51-22.39,27.04-30.3,42.83-3.28,6.55-6.18,13.38-8.36,20.36-2.91,9.28-4.68,18.92-7.46,28.25-1.89,6.35-4.66,12.43-7.3,19.31Zm47.21-362.51c.1,1.25,.07,2.16,.27,3.02,.85,3.64,1.58,7.32,2.68,10.88,6.21,20.16,16.23,38.38,28.51,55.43,16.19,22.49,35.41,42.25,55.39,61.31,1.58,1.51,3.2,2.96,5.22,4.82-.05-1.04,.03-1.41-.09-1.68-7.24-15.4-11.2-31.75-15.08-48.24-1.85-7.88-6.22-15.29-10.13-22.55-11.21-20.81-25.38-39.23-45.19-52.66-6.54-4.44-13.65-7.9-21.57-10.34Zm-10.78,64.12c-9.78-19.16-17.62-39-23.2-60.23-1.29,1.43-2.15,2.32-2.94,3.27-8.7,10.33-14.62,22.16-18.3,35.05-1.73,6.06-3.98,12.5-3.48,18.56,1.34,16.36,3.9,32.64,6.26,48.9,1.01,6.96,2.72,13.81,4.18,21.08,2.54-9.13,4.52-17.88,7.44-26.31,5.7-16.45,12.38-32.38,30.04-40.33Zm.05,443.26c-9.97-19.27-17.62-39.14-23.16-60.02-1.02,.92-1.68,1.39-2.19,1.98-9.06,10.48-15.02,22.61-19.14,35.75-2.71,8.62-4.57,17.27-3.18,26.41,1.06,6.95,1.51,14,2.64,20.94,2.22,13.76,4.72,27.47,7.11,41.2,1.02-.88,1.32-1.71,1.56-2.55,2.78-9.81,4.91-19.86,8.47-29.37,5.35-14.26,12.18-27.76,27.9-34.34Zm377.18-161.69c-.12,.34,.1-.07,.17-.5,3.02-18,6.25-35.98,8.92-54.04,.99-6.67,1.56-13.64,.73-20.28-1.34-10.73-5.23-20.88-10.18-30.54-3.68-7.19-8.03-13.92-14.15-20.2-5.51,21.3-13.49,41.12-22.9,59.73,4.01,2.85,8.05,5.19,11.46,8.23,6.65,5.93,11.17,13.55,14.17,21.79,4.38,12,8.02,24.27,11.77,35.8Zm-37.77,378.1c9.25,3.34,15.54,9.7,19.93,17.72,3.9,7.13,7.43,14.56,10.16,22.2,3.02,8.44,4.95,17.27,7.38,26.03,.23-.74,.54-1.47,.67-2.24,2.94-17.56,6.07-35.09,8.68-52.69,.99-6.68,1.75-13.67,.84-20.28-1.86-13.48-6.79-26.12-14-37.71-2.88-4.63-6.4-8.87-9.63-13.29-6.29,21.11-14.22,40.83-24.02,60.27Zm-545.87,0c8.91,3.3,14.71,9.4,19.41,16.69,8.1,12.59,12.39,26.67,15.84,41.06,.61,2.55,1.16,5.12,1.74,7.67,.71-.45,.87-.76,.93-1.09,2.95-17.1,6.09-34.17,8.72-51.32,1.06-6.92,2.1-14.16,1.2-21-2.1-15.94-8.15-30.63-17.39-43.88-2.03-2.91-4.45-5.56-7.11-8.85-5.57,21.59-13.56,41.29-23.32,60.7ZM444.35-26.97c.22,0,.45-.01,.67-.02,.2-.61,.43-1.2,.59-1.82,1.6-6.37,2.81-12.87,4.85-19.1,5.94-18.1,12.26-36.07,31.52-45.11-9.6-19.22-17.69-38.92-23.1-60.11-1.07,1.12-1.71,1.74-2.3,2.41-9.25,10.76-15.28,23.21-19.3,36.73-2.17,7.31-4.15,14.62-3.08,22.39,1.72,12.58,3.18,25.21,5.1,37.76,1.38,9,3.34,17.91,5.05,26.86Zm-131.15,216.55c.25-.93,.48-1.58,.59-2.24,2.79-16.2,5.76-32.37,8.26-48.61,1.1-7.15,2.51-14.61,1.62-21.65-2.42-19.01-9.6-36.31-22.04-51.16-.74-.88-1.65-1.63-2.77-2.72-5.41,21.37-13.52,41.04-23.15,60.3,8.78,3.19,15.02,9.18,19.35,16.78,4.12,7.26,7.75,14.91,10.59,22.76,3.1,8.57,5.05,17.55,7.55,26.55ZM26.1,62.47c-5.53,21.95-13.64,41.68-23.35,61,9.87,3.67,15.95,10.86,20.95,19.2,5.64,9.42,9.2,19.68,12.13,30.18,1.48,5.29,2.65,10.67,3.96,16.01,1.01-1.85,1.6-3.65,1.91-5.49,2.58-15.21,5.38-30.38,7.54-45.65,1.08-7.6,2.09-15.51,1.15-23.03-1.77-14.2-7.11-27.43-14.91-39.51-2.67-4.13-5.84-7.94-9.38-12.71ZM313.05,633.03c.29-.95,.55-1.54,.65-2.16,3.05-18.34,6.23-36.66,9.03-55.03,.85-5.56,1.47-11.39,.78-16.92-1.56-12.6-5.78-24.52-12.11-35.53-3.4-5.92-7.61-11.37-11.45-17.04-.38,.13-.76,.25-1.14,.38-5.35,20.8-13.27,40.6-22.66,58.98,4.61,3.57,9.33,6.4,13,10.24,9.91,10.37,14.72,23.55,18.71,36.99,1.93,6.5,3.4,13.13,5.18,20.09Zm131.09-216.68c.33-.07,.66-.13,.99-.2,.17-.64,.38-1.26,.52-1.91,2.87-13.2,6.07-26.31,12.26-38.45,4.51-8.84,9.42-17.38,18.43-22.55,1.82-1.05,3.72-1.96,5.72-3.01-9.84-19.22-17.57-38.99-23.17-60.25-1.38,1.5-2.4,2.51-3.31,3.62-8.47,10.33-14.13,22.12-18.1,34.81-2.84,9.09-4.46,18.21-2.77,27.8,1.3,7.37,1.76,14.88,2.94,22.28,2.02,12.64,4.32,25.24,6.5,37.86ZM87.12,487.26c-14.14-17.5-30.48-33.66-47.56-49.2,13.21,29.08,18,59.84,18.91,91.17,4.11-7.39,7.72-15.11,12.46-22.05,4.75-6.96,10.62-13.15,16.2-19.92Zm611.95-174.19c1.26-31.48,6.07-62.04,19.65-91.54-9.97,7.43-42.52,41.49-48.34,50.43,12.99,11.2,22.01,25.3,28.69,41.1Zm-253.35-91.4c-8.67,5.98-43.17,42.04-48.28,50.36,13.23,11.35,22.23,25.7,28.84,41.74,.94-31.81,5.85-62.65,19.44-92.1Zm-133.68,216.05c7.06,15.03,11.9,29.92,14.39,45.42,2.45,15.3,3.95,30.76,5.81,45.75,6.11-15.37,15.09-29.49,28.14-40.71-4.72-7.85-38.7-43.42-48.34-50.45ZM172.87-221.65c-10.16,7.62-43.18,42.13-48.38,50.43,13.19,11.31,22.18,25.63,28.85,41.62,.98-31.69,5.83-62.39,19.53-92.05Zm253.35,92.08c1.01-31.67,5.88-62.49,19.62-92.24-11.88,9.46-43.48,42.58-48.43,50.64,13.2,11.28,22.2,25.53,28.81,41.6ZM312.73-4.88c12.93,28.99,17.79,59.62,18.93,91.11,6.75-15.89,15.65-30.09,28.96-41.47-14.6-18.02-30.88-34.1-47.89-49.64ZM88.41,44.14C72.15,27.27,56.26,10.79,40.38-5.69c-.35,.24-.7,.47-1.04,.71,13.44,28.93,18.2,59.68,19.43,91.25,6.71-15.9,15.6-30.11,29.65-42.13Zm545.18,.63c-14.69-18.11-30.9-34.19-47.93-49.63,12.92,28.91,17.84,59.43,18.98,90.84,6.88-15.68,15.6-29.84,28.96-41.21ZM124.26,271.79c13.41,11.44,22.38,25.8,29.09,41.82,.89-31.57,5.86-62.19,18.72-91.28-17.06,15.34-33.14,31.48-47.81,49.46Zm509.22,216.09c-14.54-18.06-30.9-34.11-47.92-49.66,13.18,28.91,17.79,59.55,19.03,90.91,12.08-23.85,13.81-26.36,28.89-41.25Zm85.24-709.61c-11.18,8.55-45.05,44.25-48.19,50.67,13.02,11.15,21.9,25.31,28.56,41.09,.94-31.58,6.2-62.09,19.63-91.76Zm-7.91,427.11c.51-.95,1.07-1.89,1.54-2.86,6.89-14.18,11.36-29.14,14.24-44.6,.42-2.28,.62-4.76,.18-7-2.23-11.17-6.89-21.37-13.4-30.68-4.89-7-10.84-12.98-18.97-18.09,13.44,33.7,20.88,67.45,16.4,103.22Zm-.49,443.52c.69-.84,.96-1.07,1.1-1.35,8.06-15.57,12.47-32.31,15.82-49.39,.19-.97,.11-2.07-.11-3.04-3.55-15.32-10.06-29.15-21.16-40.49-3.23-3.3-7.02-6.04-10.56-9.03l-.65,.68c12.94,32.83,20.7,66.45,15.56,102.63ZM149.24,102.99c12.43,32.84,20.32,66.3,15.65,101.79,.83-.91,1.38-1.84,1.85-2.82,6.52-13.47,10.62-27.72,13.75-42.3,.96-4.47,1-8.72-.62-13.01-1.68-4.45-2.98-9.08-4.96-13.39-5.7-12.39-13.73-22.91-25.67-30.28Zm288.82,101.9c.45-.76,.95-1.49,1.33-2.28,6.49-13.57,10.95-27.81,13.85-42.54,.54-2.73,1.2-5.69,.68-8.33-2.81-14.3-9-27.09-18.74-37.95-3.75-4.18-8.32-7.63-12.52-11.42-.27,.25-.54,.49-.81,.74,12.76,32.73,20.6,66.21,16.21,101.78ZM63.42-124.73c-1.54,.94-2.23,1.3-2.85,1.75-15.06,10.97-23.89,26.06-28.78,43.71-.65,2.36-1.59,5.06-1.04,7.27,2.93,11.86,6.07,23.69,9.6,35.39,1.54,5.1,4.19,9.87,6.33,14.79-4.16-35.68,3.44-69.21,16.74-102.92Zm545.83-.01c-1.36,.82-1.76,1.02-2.11,1.28-16.03,11.42-25.23,27.3-29.9,46.07-.58,2.35-.87,5.06-.31,7.36,2.5,10.22,5.07,20.44,8.2,30.48,1.88,6.05,4.83,11.77,7.3,17.63,.28-.09,.57-.18,.85-.27-5.01-35.45,2.88-68.94,15.97-102.55ZM149.32,546.3c5.96,16.29,11.09,32.68,14.03,49.71,2.95,17.12,3.8,34.3,1.57,51.64,.61-.3,.92-.61,1.11-.99,5.86-11.98,10.11-24.52,13.02-37.53,1.33-5.94,3.65-11.89,1.23-18.01-2.94-7.47-5.66-15.1-9.39-22.17-4.97-9.43-12.23-17.05-21.57-22.65Zm273.46-.93c-.33,.28-.67,.55-1,.83,6.31,16.17,11.52,32.64,14.47,49.78,2.98,17.3,3.79,34.62,1.47,52.12,.8-.79,1.34-1.61,1.77-2.49,6.36-13.15,10.63-27,13.42-41.3,.68-3.49,1.49-7.3,.77-10.64-2.76-12.94-8.24-24.78-16.9-34.84-4.21-4.88-9.3-9-13.99-13.46Zm169.96-123.54c-2.16-17.7-1.23-35.08,1.68-52.4,2.89-17.25,8.15-33.85,14.27-50.31-1.36,.54-2.48,1.24-3.52,2.03-13.2,10.07-21.55,23.48-26.38,39.14-1.21,3.93-2.6,8.44-1.8,12.24,2.32,11.06,5.45,21.98,8.79,32.8,1.75,5.68,4.61,11.01,6.96,16.5Zm-546.63-.34c.43-.14,.86-.28,1.29-.42-4.9-35.48,2.83-69.06,16.02-102.58-1.38,.79-1.97,1.06-2.49,1.44-15.09,10.9-24.07,25.91-29.03,43.55-.72,2.57-1.53,5.42-1.1,7.94,1.16,6.8,2.54,13.62,4.63,20.18,3.21,10.07,7.08,19.94,10.68,29.89Zm289.25-102.5c-1.19,.83-2.41,1.6-3.55,2.49-12.93,10.02-21.17,23.25-25.87,38.71-1.26,4.13-2.66,8.91-1.75,12.88,2.84,12.34,6.62,24.48,10.33,36.6,1.22,3.99,3.37,7.69,5.09,11.52-4.24-35.58,3.54-69,15.75-102.19Zm.98-443.75c-1.34,.81-1.83,1.08-2.29,1.4-14.22,10.03-22.87,23.95-28.19,40.22-1.74,5.33-2.97,10.64-1.34,16.27,2.77,9.58,5.37,19.21,8.2,28.77,.87,2.92,2.2,5.71,3.43,8.52,1.17,2.68,2.47,5.31,3.71,7.96-4.53-35.76,3.26-69.38,16.49-103.13ZM51.68,534.72c4.43-17.38-10.56-87.96-21.19-98.21,.42,3.84,.97,7.66,1.23,11.49,1.13,16.19-.15,32.23-3.54,48.09-.42,1.97,.16,3.07,1.38,4.47,3.57,4.1,7.39,8.1,10.25,12.68,4.42,7.08,8.11,14.61,11.87,21.5ZM30.38-6.81c.25,1.78,.53,3.56,.73,5.34,2.08,18.31,.78,36.43-2.8,54.46-.24,1.19,.11,3.01,.9,3.81,8.41,8.51,14.71,18.39,19.52,29.28,.92,2.08,1.81,4.18,2.72,6.27,.05-34.62-4.61-68.14-21.07-99.16ZM454.51,219.94c-11.62,14.2-25.39,79.36-21.09,99.14,.09-.07,.23-.11,.27-.2,5.23-13.22,12.16-25.36,22.38-35.44,.61-.6,.72-2.02,.59-2.99-.87-6.18-2.08-12.31-2.81-18.5-1.64-13.93-1.44-27.86,.66-42Zm-294.21,99.99c.57-1.28,.82-1.78,1.02-2.3,4.76-12.05,11.15-23.13,20.25-32.42,2.02-2.06,2.47-3.83,1.94-6.55-3.05-15.66-4.72-31.44-3.16-47.42,.36-3.71,.73-7.41,1.14-11.55-12.36,18.27-23.65,71.57-21.19,100.25ZM324.82,92.28c1.02-33.64-9.73-83.91-21.27-99.27,.52,6.24,1.26,12.4,1.5,18.58,.54,13.66-1.08,27.16-3.73,40.54-.47,2.38,.09,3.9,1.68,5.73,3.86,4.43,7.8,8.91,10.87,13.89,4.07,6.6,7.35,13.7,10.94,20.53ZM453.6-222.2c-10.77,13.52-25.13,81.71-20.1,97.96,.15-.16,.37-.3,.44-.49,4.99-13.09,12.03-24.88,21.95-34.88,.68-.68,.86-2.21,.73-3.27-1.09-9-2.92-17.95-3.33-26.98-.5-11.05,.16-22.16,.3-32.34Zm-272.32-.91c-16.16,31.04-20.83,64.56-20.98,99.05,1.01-1.56,1.72-3.21,2.41-4.86,4.63-10.98,10.81-20.98,19.25-29.45,1.78-1.78,2.05-3.4,1.6-5.72-3.82-19.51-5.19-39.13-2.28-59.02Zm143.7,758.91c-.69-34.96-5.09-68.63-21.35-99.76,.14,3.54,.57,7.02,.91,10.51,1.58,16.53-.03,32.85-3.29,49.05-.45,2.25,.22,3.68,1.68,5.4,4.03,4.73,8.16,9.47,11.44,14.72,3.88,6.22,6.91,12.97,10.62,20.08ZM597.81,92.9c-.33-34.47-4.91-67.21-20.31-97.78-.55,.87-.8,1.72-.69,2.52,2.59,18.57,.85,36.92-2.57,55.22-.25,1.36,.48,3.21,1.34,4.42,4.68,6.54,9.87,12.73,14.22,19.46,3.09,4.78,5.13,10.24,8.01,16.16Zm-20.5,344.07c-.3,.07-.61,.13-.91,.2,.32,2.11,.74,4.22,.93,6.34,1.6,17.3,.44,34.47-3.01,51.46-.55,2.7,.21,4.29,1.79,6.3,4.69,5.95,9.4,11.94,13.46,18.32,3.16,4.96,5.34,10.54,8.23,16.39-.29-34.8-5.04-68.03-20.49-99.01Z"/>
  <g>
    <path class="cls-3" d="M82.29,348.82c11.8,8.08,23.31,15.37,34.16,23.53,18.19,13.66,34.13,29.54,46.28,49.02,5.22,8.36,8.12,17.49,9.96,26.99,3.35,17.26,6.37,34.59,9.51,51.89,.17,.94,.14,1.92,.23,3.39-3.8-4.88-7.07-9.48-10.75-13.71-15.86-18.24-35.22-32.02-56.33-43.44-8.68-4.69-17.7-8.74-26.51-13.21-1.17-.59-2.4-1.79-2.85-2.99-9.5-25.75-11.14-51.98-4.55-78.67,.13-.53,.32-1.05,.84-2.79Z"/>
    <path class="cls-3" d="M355.6,349.38c9.1,6,18.36,11.73,27.2,18.03,19.08,13.59,36.06,29.34,49.46,48.75,6.56,9.5,11.04,19.77,13.14,31.09,3.26,17.62,6.5,35.24,9.73,52.86,.18,.99,.18,2.02,.34,4.03-1.2-1.65-1.88-2.55-2.53-3.48-13.43-19.26-31.01-34.07-50.93-46-12.82-7.67-26.41-14.05-39.59-21.15-1.53-.82-3.19-2.31-3.76-3.87-9.41-25.89-10.77-52.25-4.12-79,.05-.19,.28-.34,1.05-1.26Z"/>
    <path class="cls-3" d="M675.91,122.79c3.91,14.66,5.27,29.48,4.04,44.52-.93,11.36-3.42,22.39-7,33.23-1.13,3.41-2.83,5.41-6.15,6.88-23.12,10.27-45.01,22.63-64.29,39.22-10.19,8.77-19.27,18.56-27.15,29.8,.19-1.66,.38-3.32,.59-4.98,.21-1.69,.36-3.39,.69-5.06,3.81-18.99,7.12-38.11,11.68-56.92,3.07-12.68,11.33-22.91,19.61-32.74,18.76-22.24,41.83-39.17,66.85-53.63,.28-.16,.63-.19,1.12-.32Z"/>
    <path class="cls-3" d="M182.69,60.16c-5.96-7.01-11.19-13.88-17.15-20.03C148.76,22.82,128.75,9.93,107.38-.95c-6.16-3.14-12.5-5.93-18.69-9.02-1.08-.54-2.2-1.65-2.62-2.75-9.7-26.07-11.18-52.63-4.47-79.63,.07-.3,.31-.55,.71-1.23,4.4,2.67,8.78,5.23,13.06,7.94,20.84,13.2,39.91,28.51,55.67,47.61,7.97,9.66,15.73,19.73,18.82,32.06,3.84,15.27,6.69,30.8,9.76,46.26,1.28,6.44,2.01,12.98,3.05,19.88Z"/>
    <path class="cls-3" d="M355.44-93.66c6.73,4.27,13.5,8.37,20.08,12.77,15.81,10.56,30.35,22.65,43.21,36.71,14.46,15.81,25.09,33.46,28.32,55.13,2.28,15.25,5.35,30.38,8.03,45.57,.19,1.07,.02,2.2,.02,3.87-2.68-3.61-4.96-6.92-7.49-10.05-13.66-16.93-30.45-30.24-49.12-41.07-11.94-6.93-24.51-12.78-36.75-19.2-1.08-.56-2.26-1.58-2.67-2.66-9.84-26.15-11.25-52.81-4.56-79.91,.05-.2,.27-.35,.91-1.16Z"/>
    <path class="cls-3" d="M302.17,276.05c1.78-10.82,3.35-21.68,5.41-32.45,1.98-10.36,4.34-20.66,6.76-30.93,3.05-12.95,10.6-23.53,18.76-33.61,18.93-23.39,42.75-40.86,68.56-55.83,.27-.16,.63-.15,1.65-.37,1.11,6.4,2.51,12.68,3.24,19.04,2.31,20.16-.19,39.81-6.62,59.04-1.17,3.49-3.28,5.23-6.48,6.65-20.92,9.28-40.78,20.38-58.72,34.72-11.41,9.13-21.62,19.42-29.88,31.54-.56,.82-1.2,1.59-1.81,2.38-.29-.07-.59-.13-.88-.2Z"/>
    <path class="cls-3" d="M130.55,122.97c1.14,7.36,2.66,14.68,3.36,22.08,1.68,17.84-.32,35.35-5.92,52.41-.71,2.14-1.19,4.42-2.26,6.37-.67,1.22-2.11,2.25-3.44,2.85-20.12,9.07-39.43,19.52-57.02,32.99-13.52,10.35-25.5,22.17-35.75,36.25,.59-4.47,.94-8.99,1.81-13.41,3.49-17.57,6.84-35.18,10.85-52.64,2.14-9.3,7.78-17.1,13.34-24.73,13.37-18.37,30.12-33.25,48.65-46.19,8.17-5.71,16.68-10.94,25.03-16.39,.45,.14,.9,.28,1.35,.42Z"/>
    <path class="cls-3" d="M464.12,574.27c0-1.93,0-3.01,0-4.08,.03-13.96-.39-27.95,.26-41.88,.36-7.72,2.02-15.48,3.92-23.02,4.92-19.51,12.56-37.89,24.38-54.34,7.37-10.26,16.18-19,27.37-25.12,1.58-.86,3.23-1.59,5.03-2.47,5.95,12.07,10.32,24.43,13.01,37.37,2.89,13.9,3.67,27.89,1.96,42-.2,1.66-.5,2.83-2.47,3.43-23.56,7.24-41.18,22.6-55.76,41.75-5.9,7.74-10.83,16.22-16.21,24.36-.29,.44-.62,.85-1.49,2.01Z"/>
    <path class="cls-3" d="M-40.02,196.47c9.79,4.26,17.81,10.65,24.82,18.35,13.72,15.08,22.39,33,28.45,52.21,2.92,9.28,4.89,18.87,7.24,28.32,.27,1.08,.32,2.25,.32,3.37,.02,15.43,.02,30.87,.03,46.3,0,.67,0,1.34,0,3.01-2.87-4.75-5.21-8.78-7.69-12.72-11.91-18.82-26.04-35.57-45.49-47.03-5.83-3.43-12.14-6.22-18.52-8.45-3.52-1.23-4.37-3.11-4.66-6.25-1.34-14.38-.77-28.7,3.05-42.59,3.02-11,7.38-21.63,11.18-32.42,.25-.71,.78-1.31,1.28-2.11Z"/>
    <path class="cls-3" d="M505.79,196.46c7.45,3.22,13.74,7.6,19.42,12.88,14.31,13.28,23.89,29.7,30.33,47.85,4.23,11.92,7.48,24.23,10.46,36.54,1.11,4.61,.21,9.7,.22,14.57,0,13.04,0,26.08,0,39.03-1.68-2.85-3.49-6.06-5.42-9.19-11.81-19.28-25.81-36.63-45.32-48.6-6.9-4.23-14.67-7.06-22.13-10.34-1.62-.72-2.5-1.34-2.71-3.26-2.99-27.43,2.48-53.29,14.22-78.02,.19-.39,.46-.74,.92-1.46Z"/>
    <path class="cls-3" d="M525.17-19.86c12.07,25.42,18.19,51.46,14.9,79.29-.25,2.13-1.04,3.05-3.04,3.7-24.56,7.94-42.79,24.16-57.55,44.68-5.33,7.41-10.1,15.22-14.99,22.63,0-2.86,.02-6.05,0-9.24-.09-11.92-.75-23.87-.12-35.76,.43-8.17,2.07-16.39,4.16-24.32,5.05-19.21,12.56-37.43,24.33-53.63,7.7-10.6,16.94-19.54,28.66-25.66,1.1-.57,2.25-1.04,3.64-1.69Z"/>
    <path class="cls-3" d="M252.75,423.28c3.2,8.62,6.72,16.97,9.4,25.58,5.51,17.68,7.12,35.8,4.85,54.21-.13,1.03-1.12,2.53-2.03,2.82-26.74,8.54-45.7,26.77-61.29,49.13-3.89,5.58-7.22,11.55-10.8,17.33-.46,.75-.95,1.48-1,1.56,0-10.86-.01-22.26,0-33.66,0-6.9-.98-14,.28-20.68,4.91-26.02,13.69-50.59,30.05-71.87,7.56-9.84,16.62-18,27.95-23.4,.6-.29,1.24-.5,2.6-1.03Z"/>
    <path class="cls-3" d="M293.68,347.85c-3.06-5.08-5.51-9.37-8.17-13.52-10.56-16.48-23-31.25-39.23-42.52-7.98-5.55-16.62-9.72-25.83-12.8-1.06-.35-2.38-1.76-2.51-2.8-3.39-28.01,2.42-54.34,14.75-79.78,7.69,3.1,14.14,7.82,20.05,13.32,13.07,12.16,21.76,27.23,28.52,43.52,5.45,13.13,9.44,26.72,11.9,40.72,.54,3.09,.35,6.32,.37,9.49,.08,13.39,.1,26.78,.15,40.18,0,1.07,0,2.13,0,4.19Z"/>
    <path class="cls-3" d="M191.26,131.58c0-16.57-.41-32.57,.19-48.53,.27-7.15,2.16-14.32,4-21.31,5.47-20.79,13.62-40.39,26.98-57.5,6.84-8.77,14.87-16.21,24.69-21.59,1.57-.86,3.21-1.6,5.03-2.51,5.63,11.24,9.73,22.71,12.48,34.64,3.42,14.84,4.19,29.85,2.53,45-.22,1.98-1.05,2.77-2.72,3.25-16.87,4.93-30.63,14.72-42.91,27.01-11.73,11.73-21.02,25.15-28.91,39.65-.3,.56-.74,1.05-1.35,1.88Z"/>
    <path class="cls-3" d="M461.89,57.69c-1.02-6.46-1.84-12.96-3.11-19.37-2.82-14.23-6.14-28.37-8.65-42.65-.84-4.76-.4-9.92,.39-14.75,2.84-17.4,6.93-34.49,15.63-50.06,4.2-7.53,9.3-14.31,17.98-17.27,.3-.1,.64-.12,.62-.11,12.59,20.25,25.07,40.33,37.61,60.49-30.52,15.5-45.55,42.3-56.25,72.4-1.33,3.73-2.41,7.54-3.6,11.32-.2,0-.41,0-.61,0Z"/>
    <path class="cls-3" d="M546.07,129.62c6.33,1.78,10.86,6.16,14.66,11.38,8.1,11.13,12.32,23.96,15.61,37.09,2.01,8.01,3.59,16.16,4.71,24.33,.52,3.79-.14,7.86-.88,11.69-3.91,20.01-8.02,39.98-11.97,59.52-.27-.84-.81-2.46-1.3-4.08-6.26-20.46-14.8-39.78-28.93-56.14-4.06-4.7-8.57-9.11-13.4-13.01-4.73-3.81-10.13-6.79-15.94-10.6,12.33-19.81,24.8-39.85,37.45-60.19Z"/>
    <path class="cls-3" d="M249.49,417.24c-24.87,12.23-39.47,32.63-50,56.4-3.71,8.37-6.35,17.22-9.47,25.86-.17,.48-.35,.96-.88,2.42-1.14-7.21-1.92-13.45-3.13-19.6-2.81-14.23-5.62-28.48-8.86-42.62-1.3-5.69-.42-11.05,.54-16.5,2.79-15.91,6.61-31.52,13.87-46.1,3.12-6.26,7.01-11.96,12.45-16.39,2.31-1.88,5.2-3.06,7.57-4.41,12.78,20.54,25.28,40.62,37.92,60.94Z"/>
    <path class="cls-3" d="M211.76-86.62c12.64,20.32,25.09,40.33,37.77,60.71-16.91,7.99-29.16,20.45-38.94,35.55-9.62,14.85-16.05,31.12-21.63,47.97-1.12-7.21-2.01-14.47-3.42-21.62-2.72-13.79-6.04-27.47-8.44-41.31-.83-4.75-.14-9.92,.67-14.76,2.89-17.18,7.03-34.03,15.66-49.38,4.29-7.64,9.62-14.35,18.35-17.16Z"/>
    <path class="cls-3" d="M22.99,274.23c-5.38-16.94-11.84-33.36-21.54-48.35-9.74-15.05-21.93-27.46-39.01-35.57C-24.97,170.05-12.48,149.97,.18,129.6c8.14,2.36,13.34,8.67,17.65,15.87,6.97,11.63,10.81,24.45,13.84,37.54,1.3,5.63,1.97,11.42,3.38,17.02,1.75,6.91-.78,13.2-2.01,19.72-3.28,17.38-6.39,34.78-9.58,52.18-.14,.77-.32,1.53-.48,2.29Z"/>
    <path class="cls-3" d="M273.14,129.65c6.04,1.63,10.52,5.84,14.32,10.89,7.01,9.3,11.19,20,14.13,31.08,2.78,10.5,4.74,21.24,6.71,31.93,.51,2.79,.02,5.88-.55,8.72-4.1,20.44-8.34,40.84-12.47,60.97-.38-1.12-1.05-2.89-1.61-4.69-5.49-17.78-12.93-34.63-24.11-49.65-8.95-12.02-19.84-21.77-34.17-28.61,12.62-20.28,25.1-40.34,37.74-60.65Z"/>
    <path class="cls-3" d="M461.83,500.95c-.71-4.89-1.21-9.83-2.17-14.67-3.24-16.36-6.85-32.65-9.82-49.05-.76-4.19-.05-8.79,.65-13.09,2.57-15.84,6.4-31.35,13.43-45.9,3.85-7.98,8.85-15.02,16.58-19.76,4.27-2.63,4.24-2.53,6.83,1.69,9.67,15.77,19.47,31.46,29.19,47.21,1.96,3.17,3.73,6.46,5.48,9.51-5.62,3.72-11.26,6.91-16.29,10.88-14.01,11.08-23.96,25.42-31.24,41.52-4.24,9.38-7.42,19.24-11.07,28.88-.35,.92-.64,1.85-.97,2.78-.2,0-.4,0-.6,0Z"/>
    <path class="cls-3" d="M356.77,343.03c7.62-24.53,20.54-45.9,36.27-66.07,8.44,6.97,14.81,15.16,19.92,24.33,8.74,15.7,13.21,32.57,15.02,50.48,1.85,18.26,5.11,36.38,7.76,54.56,.18,1.22,.42,2.42,.78,4.44-21.31-29.41-49.04-50.13-79.74-67.73Z"/>
    <path class="cls-3" d="M321.46,626.51c1.62-9.33,3.3-17.55,4.43-25.84,1.72-12.59,3.04-25.24,4.56-37.86,3.17-26.28,12.69-49.55,32.33-67.99,.56-.52,1.2-.97,2.21-1.78,4.54,6.47,9.1,12.67,13.34,19.09,8.93,13.5,16.18,27.85,21.56,43.15,.98,2.8,.76,4.22-2.1,5.88-23.27,13.53-44.96,29.14-63.11,49.24-3.49,3.87-6.67,8.02-9.99,12.05-.9,1.09-1.76,2.21-3.24,4.06Z"/>
    <path class="cls-3" d="M637.5,492.82c15.9,20.52,28.78,41.82,36.53,66.34-30.4,17.59-58.27,38.13-79.59,66.65,1.34-7.3,3-14.56,3.97-21.9,1.99-15.07,3.31-30.23,5.48-45.27,2.98-20.59,10.52-39.39,23.89-55.57,2.87-3.47,6.19-6.56,9.72-10.25Z"/>
    <path class="cls-3" d="M48.5,182.98c1.19-6.38,2.45-11.84,3.18-17.37,2.11-15.97,3.87-31.98,6.03-47.95,3.39-24.98,12.73-47.2,31.02-65.12,.87-.85,1.88-1.58,3.32-2.78,4.9,7.05,9.84,13.79,14.41,20.78,8.6,13.16,15.51,27.17,20.69,42.04,.82,2.37,.74,3.65-1.76,5.09-23.6,13.65-45.56,29.45-63.92,49.83-4.29,4.76-8.25,9.82-12.97,15.47Z"/>
    <path class="cls-3" d="M637.39,50.19c10.63,11.47,29.84,41.79,36.53,65.81-30.22,17.53-58.15,38-79.54,66.6,.65-3.21,1.34-6.41,1.93-9.63,.62-3.35,1.26-6.69,1.69-10.07,1.79-14.06,3.59-28.12,5.22-42.2,3.04-26.28,12.44-49.59,31.62-68.38,.79-.78,1.7-1.43,2.54-2.14Z"/>
    <path class="cls-3" d="M48.65,625.32c.78-4.26,1.74-8.51,2.32-12.8,2.29-16.97,4.47-33.95,6.68-50.93,3.29-25.4,12.72-47.88,31.29-66.03,.8-.78,1.72-1.43,2.55-2.11,10.22,8.3,33.65,50.71,36.39,65.86-30.07,17.39-57.75,37.81-79.22,66.01Z"/>
    <path class="cls-3" d="M163.25,409.76c-4.71-5.63-8.88-10.98-13.44-15.98-17.83-19.56-38.95-34.95-61.68-48.28-4.98-2.92-4.64-1.66-2.73-7.23,7.57-22.02,19.52-41.6,33.66-59.95,.27-.35,.65-.63,1.56-1.48,3.75,4.04,7.82,7.8,11.14,12.13,13.39,17.46,20.42,37.33,22.89,59.17,2.21,19.59,5.46,39.06,8.25,58.59,.12,.84,.2,1.68,.35,3.04Z"/>
    <path class="cls-3" d="M365.22,49.67c6.22,9.36,12.5,18.38,18.31,27.69,6.86,11,12.18,22.78,16.46,35.03,.9,2.56,.71,3.89-1.87,5.39-21.39,12.38-41.51,26.51-58.68,44.43-6.17,6.44-11.81,13.38-17.96,20.41,.81-4.46,1.75-8.69,2.33-12.96,2.28-16.85,4.76-33.68,6.59-50.58,2.55-23.58,14.69-53.29,34.82-69.4Z"/>
    <path class="cls-3" d="M574.47,352.1c-2.48-17.94-2.96-35.93-.94-53.76,.73-6.41,4.63-12.76,8.14-18.48,9.16-14.92,21.94-26.52,35.87-36.88,14.63-10.88,30.45-19.75,46.95-27.43,.68-.31,1.39-.54,2.09-.81,.24,.2,.48,.4,.73,.6-3.89,6.85-7.57,13.83-11.71,20.53-8.82,14.28-18.16,28.24-26.74,42.66-5.21,8.76-9.34,18.15-14.07,27.19-.73,1.4-1.86,2.91-3.2,3.62-16.09,8.53-27.41,21.4-34.93,37.81-.75,1.63-1.46,3.29-2.19,4.93Z"/>
    <path class="cls-3" d="M121.71,215.53c-5.62,9.26-10.92,18.74-16.94,27.73-13.53,20.2-25.95,41.01-36.19,63.09-.49,1.05-1.3,2.24-2.28,2.74-17.72,9.06-29.47,23.41-37.03,41.51-.19,.45-.49,.86-1.19,2.08-.36-3.98-.88-7.08-.89-10.19-.02-14.73-.62-29.52,.52-44.16,.47-6.05,4.19-12.18,7.5-17.62,10.02-16.47,24.11-29.15,39.77-40.05,8.18-5.69,16.76-10.83,25.39-15.82,6.52-3.77,13.39-6.92,20.1-10.35,.41,.35,.82,.69,1.23,1.04Z"/>
    <path class="cls-3" d="M456.77,136.4c-2.5-4.9-4.51-9.17-6.8-13.27-7.11-12.7-17.07-22.53-29.95-29.41-1.48-.79-3.05-2.11-3.73-3.58-10.87-23.57-24.33-45.62-38.88-67.07-4.7-6.92-8.43-14.49-12.58-21.79-.42-.73-.6-1.6-.36-3.08,8.37,4.42,16.96,8.47,25.06,13.35,9.48,5.72,18.86,11.74,27.69,18.41,14.32,10.82,26.76,23.5,35.44,39.49,3.31,6.1,5.39,12.46,5.28,19.47-.24,14.52-.44,29.04-.68,43.56-.02,1.07-.26,2.14-.49,3.91Z"/>
    <path class="cls-3" d="M91.76-2.08c11.66,6.52,23.55,12.65,34.91,19.66,17.39,10.73,33.36,23.36,45.39,40.11,4.58,6.38,7.95,13.68,11.49,20.75,1.11,2.22,1.34,5.07,1.33,7.63-.06,15.44-.29,30.87-.51,46.3-.02,1.1-.34,2.19-.56,3.54-3.06-5.65-5.7-11.16-8.91-16.32-6.92-11.12-16.25-19.74-27.83-25.94-1.57-.84-3.19-2.3-3.91-3.88-10.33-22.44-23.03-43.49-36.83-63.94-5.75-8.51-10.65-17.59-15.93-26.42,.46-.5,.92-1,1.38-1.5Z"/>
    <path class="cls-3" d="M300.88,352.02c-.35-4.68-.94-9.35-.99-14.03-.12-11.58-.04-23.16,.04-34.74,.07-10.19,5.18-18.44,10.7-26.38,13.82-19.88,32.52-34.35,53.08-46.54,9.63-5.71,19.67-10.74,29.52-16.08,.26,.22,.53,.44,.79,.66-.59,1.36-1.02,2.81-1.78,4.05-7.52,12.27-14.96,24.6-22.7,36.73-10.39,16.28-19.8,33.08-28,50.57-.5,1.06-1.24,2.32-2.21,2.81-17.78,9-29.43,23.43-37.06,41.47-.21,.51-.45,1-.67,1.51-.24,0-.48-.02-.71-.02Z"/>
    <path class="cls-3" d="M364.67,441.24c10.89,5.99,22,11.63,32.63,18.05,17.1,10.32,32.65,22.63,45.31,38.28,5.81,7.18,10.75,14.92,13.82,23.7,.63,1.8,1.23,3.74,1.22,5.62-.08,16.8-.3,33.59-.5,50.39,0,.52-.23,1.04-.52,2.31-1.26-2.66-2.19-4.64-3.13-6.63-7.33-15.56-18.14-27.86-33.43-36.07-1.5-.8-3.1-2.14-3.78-3.63-11.49-25.2-26.35-48.4-41.7-71.35-4.13-6.18-7.4-12.94-11.06-19.44,.38-.41,.76-.82,1.14-1.23Z"/>
    <path class="cls-3" d="M91.65,441.67c29.23,14,56.91,30.21,77.89,55.77,5.93,7.22,11.01,15.02,13.98,23.96,.91,2.75,1.39,5.77,1.38,8.67-.05,15.2-.31,30.41-.54,45.61-.02,1.09-.35,2.18-.5,3.03-3.71-6.41-7.14-13.04-11.24-19.23-6.32-9.53-14.84-16.82-24.93-22.18-2.44-1.3-3.87-3.04-5.16-5.47-7.64-14.43-15.18-28.93-23.42-43.01-7.2-12.3-15.35-24.05-22.93-36.13-2.07-3.3-3.57-6.95-5.33-10.45,.26-.19,.53-.38,.79-.58Z"/>
    <path class="cls-3" d="M492.36,285.67c10.47,3.34,19.34,8.26,27.45,14.57,18.58,14.44,31.74,33.16,42.5,53.8,4.53,8.69,7.95,17.66,9.78,27.4,2.59,13.84,7.27,27.11,12.87,40.24-1.65-1.55-3.31-3.1-4.96-4.66-1.65-1.56-3.3-3.12-4.93-4.69-21.91-21.18-42.71-43.32-59.08-69.22-10.42-16.5-18.46-34.05-22.86-53.15-.27-1.19-.43-2.41-.76-4.29Z"/>
    <path class="cls-3" d="M445.7,205.59c3.1-8.51,6.24-16.39,8.81-24.45,2.12-6.68,4.01-13.51,5.18-20.41,1.69-9.99,6.45-18.62,11.18-27.22,4.02-7.31,8.74-14.26,13.44-21.17,7.72-11.33,16.79-21.51,28.25-29.15,6.83-4.56,14.28-8.2,21.5-12.18,1.17-.64,2.55-.89,4.96-1.69-2.25,7.66-3.96,14.65-6.36,21.41-9.02,25.38-23.51,47.61-41.26,67.57-13.86,15.59-28.85,30.17-43.35,45.18-.62,.64-1.32,1.19-2.35,2.11Z"/>
    <path class="cls-3" d="M39.1,421.92c-6.96-6.79-14.26-13.27-20.82-20.44-12.17-13.3-24.52-26.5-35.66-40.64-15.18-19.24-27.2-40.41-33.73-64.31-.92-3.37-1.65-6.79-2.76-11.4,5.43,2.43,10.12,4.23,14.53,6.56,12.92,6.83,23.47,16.47,32.82,27.64,11.97,14.3,21.63,29.98,28.64,47.19,2.37,5.81,3.35,12.2,4.77,18.36,2.91,12.64,7.19,24.79,12.21,37.03Z"/>
    <path class="cls-3" d="M311.46,421.28c-4.96-4.8-9.93-9.59-14.87-14.41-14.8-14.46-28.96-29.52-41.31-46.15-9.82-13.22-18.94-26.92-25.46-42.15-4.46-10.42-8.43-21.01-10.41-32.91,2.43,.87,4.54,1.52,6.55,2.36,17.66,7.39,31.45,19.69,43.22,34.46,11.11,13.94,20.05,29.2,26.62,45.76,1.61,4.06,2.21,8.53,3.16,12.84,2.9,13.11,6.88,25.87,12.57,38.05,.23,.49,.36,1.03,.54,1.54-.21,.2-.41,.41-.62,.61Z"/>
    <path class="cls-3" d="M172.71,205.42c2.64-6.88,5.41-12.96,7.3-19.31,2.78-9.33,4.55-18.96,7.46-28.25,2.19-6.98,5.09-13.81,8.36-20.36,7.9-15.79,17.75-30.32,30.3-42.83,10.44-10.42,22.3-18.86,36.22-24.12,.9-.34,1.87-.51,3.21-.87-2.4,12.63-6.42,24.24-11.69,35.43-12.57,26.73-30.72,49.47-50.95,70.66-9.01,9.44-18.47,18.44-27.73,27.63-.59,.59-1.3,1.05-2.48,2Z"/>
    <path class="cls-3" d="M209.19,350.3c-15.71,6.58-22.55,20.07-27.9,34.34-3.57,9.51-5.69,19.56-8.47,29.37-.24,.84-.53,1.67-1.56,2.55-2.39-13.73-4.89-27.44-7.11-41.2-1.12-6.94-1.58-13.99-2.64-20.94-1.39-9.14,.47-17.79,3.18-26.41,4.12-13.14,10.08-25.27,19.14-35.75,.51-.59,1.17-1.06,2.19-1.98,5.54,20.88,13.19,40.75,23.16,60.02Z"/>
    <path class="cls-3" d="M586.37,188.6c-3.75-11.53-7.39-23.81-11.77-35.8-3.01-8.24-7.52-15.86-14.17-21.79-3.41-3.04-7.45-5.39-11.46-8.23,9.41-18.62,17.39-38.44,22.9-59.73,6.12,6.28,10.47,13.01,14.15,20.2,4.95,9.66,8.84,19.81,10.18,30.54,.83,6.64,.26,13.61-.73,20.28-2.67,18.06-5.9,36.03-8.92,54.04-.07,.43-.29,.84-.17,.5Z"/>
    <path class="cls-3" d="M313.2,189.58c-2.51-9-4.45-17.98-7.55-26.55-2.84-7.84-6.47-15.5-10.59-22.76-4.32-7.61-10.57-13.59-19.35-16.78,9.63-19.26,17.74-38.93,23.15-60.3,1.12,1.09,2.03,1.84,2.77,2.72,12.45,14.85,19.62,32.15,22.04,51.16,.9,7.04-.51,14.5-1.62,21.65-2.51,16.24-5.47,32.42-8.26,48.61-.11,.66-.34,1.31-.59,2.24Z"/>
    <path class="cls-3" d="M26.1,62.47c3.55,4.77,6.71,8.58,9.38,12.71,7.8,12.08,13.14,25.31,14.91,39.51,.94,7.52-.07,15.43-1.15,23.03-2.16,15.27-4.96,30.44-7.54,45.65-.31,1.84-.9,3.64-1.91,5.49-1.31-5.34-2.49-10.72-3.96-16.01-2.93-10.5-6.49-20.76-12.13-30.18-4.99-8.34-11.07-15.53-20.95-19.2,9.71-19.31,17.82-39.05,23.35-61Z"/>
    <path class="cls-3" d="M444.14,416.35c-2.18-12.62-4.48-25.22-6.5-37.86-1.18-7.39-1.64-14.91-2.94-22.28-1.69-9.6-.07-18.72,2.77-27.8,3.97-12.69,9.63-24.48,18.1-34.81,.91-1.11,1.93-2.12,3.31-3.62,5.6,21.26,13.34,41.03,23.17,60.25-2,1.05-3.9,1.96-5.72,3.01-9.01,5.17-13.92,13.71-18.43,22.55-6.19,12.14-9.39,25.25-12.26,38.45-.14,.64-.34,1.27-.52,1.91-.33,.07-.66,.13-.99,.2Z"/>
    <path class="cls-3" d="M87.12,487.26c-5.58,6.77-11.45,12.96-16.2,19.92-4.74,6.95-8.35,14.67-12.46,22.05-.91-31.33-5.69-62.09-18.91-91.17,17.08,15.54,33.42,31.7,47.56,49.2Z"/>
    <path class="cls-3" d="M445.71,221.66c-13.59,29.45-18.5,60.29-19.44,92.1-6.61-16.04-15.61-30.4-28.84-41.74,5.11-8.31,39.61-44.37,48.28-50.36Z"/>
    <path class="cls-3" d="M312.03,437.72c9.64,7.03,43.62,42.61,48.34,50.45-13.05,11.22-22.03,25.34-28.14,40.71-1.87-14.99-3.36-30.44-5.81-45.75-2.48-15.49-7.33-30.39-14.39-45.42Z"/>
    <path class="cls-3" d="M312.73-4.88c17.02,15.54,33.29,31.62,47.89,49.64-13.31,11.38-22.21,25.58-28.96,41.47-1.14-31.49-6-62.12-18.93-91.11Z"/>
    <path class="cls-3" d="M88.41,44.14c-14.05,12.02-22.94,26.23-29.65,42.13-1.22-31.57-5.99-62.32-19.43-91.25,.35-.24,.7-.47,1.04-.71,15.89,16.48,31.77,32.96,48.04,49.84Z"/>
    <path class="cls-3" d="M633.59,44.78c-13.36,11.37-22.08,25.53-28.96,41.21-1.14-31.41-6.05-61.93-18.98-90.84,17.04,15.44,33.24,31.52,47.93,49.63Z"/>
    <path class="cls-3" d="M124.26,271.79c14.67-17.98,30.75-34.12,47.81-49.46-12.86,29.1-17.82,59.71-18.72,91.28-6.71-16.02-15.68-30.38-29.09-41.82Z"/>
    <path class="cls-3" d="M633.48,487.88c-15.08,14.89-16.81,17.39-28.89,41.25-1.23-31.36-5.85-62-19.03-90.91,17.02,15.55,33.38,31.6,47.92,49.66Z"/>
    <path class="cls-3" d="M149.24,102.99c11.94,7.37,19.97,17.89,25.67,30.28,1.98,4.31,3.28,8.93,4.96,13.39,1.62,4.29,1.58,8.54,.62,13.01-3.13,14.58-7.23,28.83-13.75,42.3-.47,.97-1.02,1.91-1.85,2.82,4.67-35.49-3.22-68.95-15.65-101.79Z"/>
    <path class="cls-3" d="M438.06,204.89c4.39-35.58-3.45-69.06-16.21-101.78,.27-.25,.54-.49,.81-.74,4.2,3.78,8.77,7.23,12.52,11.42,9.74,10.86,15.92,23.65,18.74,37.95,.52,2.64-.14,5.6-.68,8.33-2.91,14.73-7.36,28.97-13.85,42.54-.38,.79-.88,1.52-1.33,2.28Z"/>
    <path class="cls-3" d="M592.73,421.83c-2.36-5.49-5.21-10.83-6.96-16.5-3.34-10.81-6.47-21.73-8.79-32.8-.8-3.8,.58-8.31,1.8-12.24,4.84-15.66,13.18-29.07,26.38-39.14,1.04-.79,2.15-1.49,3.52-2.03-6.12,16.46-11.38,33.06-14.27,50.31-2.9,17.32-3.83,34.7-1.68,52.4Z"/>
    <path class="cls-3" d="M46.1,421.49c-3.59-9.95-7.47-19.81-10.68-29.89-2.09-6.56-3.47-13.39-4.63-20.18-.43-2.52,.38-5.37,1.1-7.94,4.96-17.64,13.94-32.65,29.03-43.55,.51-.37,1.1-.64,2.49-1.44-13.19,33.52-20.92,67.1-16.02,102.58-.43,.14-.86,.28-1.29,.42Z"/>
    <path class="cls-3" d="M335.35,318.99c-12.21,33.2-19.99,66.61-15.75,102.19-1.72-3.83-3.87-7.53-5.09-11.52-3.72-12.12-7.5-24.26-10.33-36.6-.91-3.97,.5-8.75,1.75-12.88,4.7-15.46,12.94-28.69,25.87-38.71,1.14-.88,2.37-1.66,3.55-2.49Z"/>
    <path class="cls-3" d="M51.68,534.72c-3.76-6.89-7.46-14.42-11.87-21.5-2.86-4.58-6.68-8.57-10.25-12.68-1.22-1.4-1.8-2.5-1.38-4.47,3.38-15.86,4.67-31.89,3.54-48.09-.27-3.83-.81-7.64-1.23-11.49,10.64,10.25,25.63,80.83,21.19,98.21Z"/>
    <path class="cls-3" d="M30.38-6.81c16.46,31.03,21.13,64.54,21.07,99.16-.9-2.09-1.8-4.18-2.72-6.27-4.81-10.89-11.1-20.77-19.52-29.28-.8-.81-1.14-2.62-.9-3.81,3.58-18.02,4.87-36.15,2.8-54.46-.2-1.79-.49-3.56-.73-5.34Z"/>
    <path class="cls-3" d="M454.51,219.94c-2.1,14.14-2.3,28.08-.66,42,.73,6.19,1.93,12.32,2.81,18.5,.14,.97,.02,2.39-.59,2.99-10.22,10.09-17.15,22.22-22.38,35.44-.04,.09-.18,.14-.27,.2-4.3-19.78,9.47-84.94,21.09-99.14Z"/>
    <path class="cls-3" d="M160.3,319.93c-2.45-28.68,8.84-81.98,21.19-100.25-.41,4.14-.78,7.85-1.14,11.55-1.56,15.98,.11,31.76,3.16,47.42,.53,2.72,.08,4.49-1.94,6.55-9.11,9.29-15.49,20.37-20.25,32.42-.21,.52-.45,1.02-1.02,2.3Z"/>
    <path class="cls-3" d="M324.82,92.28c-3.59-6.83-6.87-13.92-10.94-20.53-3.07-4.98-7.01-9.45-10.87-13.89-1.59-1.83-2.15-3.35-1.68-5.73,2.64-13.38,4.27-26.88,3.73-40.54-.24-6.18-.98-12.34-1.5-18.58,11.54,15.35,22.29,65.62,21.27,99.27Z"/>
    <path class="cls-3" d="M324.98,535.8c-3.71-7.11-6.74-13.86-10.62-20.08-3.28-5.25-7.41-9.99-11.44-14.72-1.46-1.72-2.13-3.15-1.68-5.4,3.26-16.2,4.87-32.53,3.29-49.05-.33-3.49-.77-6.97-.91-10.51,16.26,31.12,20.66,64.8,21.35,99.76Z"/>
    <path class="cls-3" d="M597.81,92.9c-2.88-5.92-4.92-11.38-8.01-16.16-4.35-6.74-9.55-12.93-14.22-19.46-.86-1.2-1.59-3.06-1.34-4.42,3.42-18.3,5.16-36.65,2.57-55.22-.11-.8,.14-1.66,.69-2.52,15.4,30.57,19.98,63.32,20.31,97.78Z"/>
    <path class="cls-3" d="M577.32,436.97c15.45,30.98,20.2,64.21,20.49,99.01-2.89-5.85-5.08-11.43-8.23-16.39-4.06-6.38-8.77-12.37-13.46-18.32-1.59-2.01-2.34-3.59-1.79-6.3,3.46-16.99,4.62-34.16,3.01-51.46-.2-2.12-.62-4.23-.93-6.34,.3-.07,.61-.13,.91-.2Z"/>
  </g>
  <g>
    <g>
      <path class="cls-2" d="M294.92,200.08c-11.66-8.16-27.74-6.94-38.05,3.37-5.46,5.46-8.53,12.68-8.69,20.4,4.9,4.7,11.2,7.57,17.93,8.16,.39-8.46,3.88-16.35,9.9-22.37,5.17-5.17,11.78-8.49,18.92-9.56h0Z"/>
      <path class="cls-2" d="M277.91,190.56c7.31,0,14.33,2.33,20.14,6.61-2.48-14.01-14.71-24.53-29.28-24.53-7.73,0-15,2.94-20.57,8.28,.14,6.79,2.57,13.27,6.91,18.44,6.25-5.7,14.3-8.82,22.82-8.82Z"/>
      <path class="cls-2" d="M305.22,200.43c14.01-2.48,24.53-14.71,24.53-29.28,0-7.73-2.94-15-8.28-20.57-6.79,.14-13.27,2.57-18.44,6.91,5.7,6.25,8.82,14.3,8.82,22.82,0,7.31-2.33,14.33-6.61,20.14Z"/>
      <path class="cls-2" d="M302.31,197.31c8.16-11.66,6.94-27.74-3.37-38.05-5.46-5.46-12.68-8.53-20.4-8.69-4.7,4.9-7.57,11.2-8.16,17.93,8.46,.39,16.35,3.88,22.37,9.9,5.17,5.17,8.49,11.78,9.56,18.92h0Z"/>
      <path class="cls-2" d="M294.78,204.35c-14.01,2.48-24.53,14.71-24.53,29.28,0,7.72,2.93,15,8.28,20.57,6.79-.14,13.27-2.57,18.44-6.91-5.7-6.25-8.82-14.3-8.82-22.82,0-7.31,2.33-14.33,6.61-20.14h0Z"/>
      <path class="cls-2" d="M297.7,207.47c-8.16,11.66-6.94,27.74,3.37,38.05,5.46,5.46,12.68,8.53,20.4,8.69,4.7-4.9,7.57-11.2,8.16-17.93-8.46-.39-16.35-3.88-22.37-9.9-5.17-5.17-8.49-11.78-9.56-18.92h0Z"/>
      <path class="cls-2" d="M323.99,195.13c-5.17,5.17-11.78,8.49-18.92,9.56,11.66,8.16,27.74,6.94,38.05-3.37,5.46-5.46,8.53-12.68,8.69-20.4-4.9-4.7-11.2-7.57-17.93-8.16-.39,8.46-3.88,16.35-9.9,22.37h0Z"/>
      <path class="cls-2" d="M322.1,214.22c-7.31,0-14.33-2.33-20.14-6.61,2.48,14.01,14.71,24.53,29.28,24.53,7.72,0,15-2.93,20.57-8.28-.14-6.79-2.57-13.27-6.91-18.44-6.25,5.7-14.3,8.82-22.82,8.82h0Z"/>
    </g>
    <g>
      <path class="cls-1" d="M208.53,301.43c.39-1.94,.58-3.87,.58-5.79v-17.62c0-1.95-.19-3.89-.58-5.83h15.46v3.95c-1.94-.39-3.87-.58-5.81-.58h-2.87c-.13,.79-.19,1.6-.19,2.44v7.07h3.06c1.94,0,3.87-.19,5.81-.58v4.53c-1.94-.39-3.87-.58-5.81-.58h-3.06v7.19c0,.84,.05,1.65,.15,2.44h5.23c2.04,0,3.98-.19,5.81-.58v3.95h-17.78v-.02Z"/>
      <path class="cls-1" d="M233.38,301.43c.39-1.94,.58-3.87,.58-5.81v-17.63c0-1.94-.19-3.87-.58-5.81h6c.98,1.96,1.99,3.63,3.03,5l10.68,13.94v-13.14c0-1.84-.19-3.77-.58-5.81h5.66c-.39,1.94-.58,3.87-.58,5.81v17.63c0,1.94,.19,3.87,.58,5.81h-5.77c-.96-1.91-1.97-3.57-3.04-5l-10.71-14.18v13.36c0,1.94,.19,3.87,.58,5.81h-5.86Z"/>
      <path class="cls-1" d="M267.17,301.43c.39-1.94,.58-3.87,.58-5.81v-17.63c0-1.94-.19-3.87-.58-5.81h7.17c-.39,1.94-.58,3.87-.58,5.81v17.63c0,1.94,.19,3.87,.58,5.81h-7.17Z"/>
      <path class="cls-1" d="M298.89,301.82c-5.08,0-9.18-1.38-12.28-4.14-3.09-2.73-4.63-6.35-4.63-10.87s1.56-8.15,4.66-10.93c3.06-2.72,7.14-4.09,12.24-4.09,4.09,0,7.66,.93,10.69,2.79v7.09h-.21c-2.94-4.34-6.44-6.51-10.49-6.51-2.95,0-5.45,1.17-7.47,3.52-1.82,2.1-2.73,4.81-2.73,8.12s.9,6.01,2.71,8.08c2.06,2.37,4.51,3.55,7.34,3.55,2.16,0,4.13-.51,5.93-1.53h-.08v-8.48h-1.12c-1.94,0-3.87,.2-5.81,.6v-3.97l13.13,.02v12.06c-3.53,3.11-7.48,4.67-11.87,4.67h0Z"/>
      <path class="cls-1" d="M318.4,301.43c.55-1.87,.92-3.78,1.08-5.73l1.57-17.68c.07-.73,.1-1.52,.1-2.38,0-1.07-.06-2.22-.17-3.45h5.81c.37,1.68,1.04,3.52,2.02,5.52l7.57,16.19,7.63-16.19c.77-1.68,1.39-3.52,1.88-5.52h5.72c-.12,1.2-.18,2.35-.18,3.45,0,.87,0,1.66,.03,2.38l1.57,17.68c.18,1.98,.54,3.89,1.08,5.73h-6.99c.13-1.11,.2-2.22,.2-3.31,0-.77-.03-1.62-.09-2.52l-1.08-12.37-5.78,12.67c-.85,1.86-1.49,3.7-1.93,5.52h-5.48c-.35-1.67-.99-3.51-1.93-5.54l-5.73-12.2-1.08,11.91c-.08,.87-.11,1.7-.11,2.52,0,1.15,.04,2.25,.13,3.31h-5.84Z"/>
      <path class="cls-1" d="M358.39,301.43c1.2-1.64,2.2-3.31,2.98-5.02l8.62-18.71c.75-1.63,1.39-3.47,1.93-5.52h6.02c.54,2.06,1.18,3.9,1.93,5.54l8.62,18.71c.73,1.57,1.72,3.24,2.98,5h-7.69c-.5-1.98-1.14-3.81-1.93-5.52l-2.55-5.54h-10.24l-2.52,5.54c-.84,1.82-1.48,3.66-1.93,5.52h-6.23Zm15.76-22.26l-3.63,8h7.32l-3.69-8Z"/>
    </g>
    <g>
      <path class="cls-1" d="M204.4,349.03c.39-1.94,.58-3.87,.58-5.81v-17.63c0-1.94-.19-3.87-.58-5.81h7.17c-.39,1.94-.58,3.87-.58,5.81v5.91l6.81-7.13c1.3-1.36,2.5-2.88,3.63-4.59h7.27c-1.8,1.28-3.28,2.55-4.45,3.79l-9.72,10.17,12.15,11.66c1.43,1.38,2.96,2.59,4.59,3.62h-10.13c-.97-1.48-2.23-2.97-3.77-4.46l-6.37-6.12v4.76c0,1.88,.19,3.82,.58,5.81h-7.17Z"/>
      <path class="cls-1" d="M236.87,349.03c.39-1.94,.58-3.87,.58-5.81v-17.63c0-1.94-.19-3.87-.58-5.81h7.17c-.39,1.94-.58,3.87-.58,5.81v17.63c0,1.94,.19,3.87,.58,5.81h-7.17Z"/>
      <path class="cls-1" d="M257.59,349.03c.39-1.94,.58-3.87,.58-5.81v-17.63c0-.83-.07-1.64-.19-2.44h-2.42c-1.88,0-3.82,.19-5.81,.58v-3.95h22.85v3.95c-1.9-.39-3.83-.58-5.81-.58h-2.42c-.13,.8-.19,1.62-.19,2.44v17.63c0,1.94,.19,3.87,.58,5.81h-7.16Z"/>
      <path class="cls-1" d="M292.31,349.41c-5.08,0-9.16-1.38-12.22-4.14-3-2.73-4.5-6.35-4.5-10.87s1.51-8.16,4.54-10.93c3.02-2.72,7.08-4.08,12.18-4.08,4.09,0,7.66,.93,10.69,2.79v7.09h-.21c-2.94-4.34-6.44-6.51-10.49-6.51-2.88,0-5.34,1.17-7.38,3.51-1.76,2.03-2.63,4.74-2.63,8.13s.87,6.08,2.62,8.09c2.06,2.37,4.48,3.55,7.25,3.55,4.45,0,8.13-2.17,11.04-6.51h.21v5.91c-3.06,2.65-6.75,3.97-11.08,3.97h0Z"/>
      <path class="cls-1" d="M311.23,349.03c.39-1.94,.58-3.87,.58-5.81v-17.63c0-1.94-.19-3.87-.58-5.81h7.17c-.39,1.94-.58,3.88-.58,5.82v7.06h12.59v-7.06c0-1.95-.19-3.89-.58-5.82h7.17c-.39,1.94-.58,3.87-.58,5.81v17.63c0,1.94,.19,3.87,.58,5.81h-7.17c.39-1.94,.58-3.87,.58-5.81v-7.19h-12.59v7.19c0,1.94,.19,3.87,.58,5.81h-7.17Z"/>
      <path class="cls-1" d="M345.97,349.03c.39-1.94,.58-3.87,.58-5.79v-17.62c0-1.95-.19-3.89-.58-5.83h15.46v3.95c-1.94-.39-3.87-.58-5.81-.58h-2.87c-.13,.79-.19,1.6-.19,2.44v7.07h3.06c1.94,0,3.87-.19,5.81-.58v4.53c-1.94-.39-3.87-.58-5.81-.58h-3.06v7.19c0,.84,.05,1.65,.15,2.44h5.23c2.04,0,3.98-.19,5.81-.58v3.95h-17.78v-.02Z"/>
      <path class="cls-1" d="M370.81,349.03c.39-1.94,.58-3.87,.58-5.81v-17.63c0-1.94-.19-3.87-.58-5.81h6c.98,1.96,1.99,3.63,3.03,5l10.68,13.94v-13.14c0-1.84-.19-3.77-.58-5.81h5.66c-.39,1.94-.58,3.87-.58,5.81v17.63c0,1.94,.19,3.87,.58,5.81h-5.77c-.96-1.91-1.97-3.57-3.04-5l-10.71-14.18v13.36c0,1.94,.19,3.87,.58,5.81h-5.86Z"/>
    </g>
  </g>
</svg>