<?xml version="1.0" encoding="UTF-8"?>
<svg id="Layer_1" data-name="Layer 1" xmlns="http://www.w3.org/2000/svg" viewBox="0 0 45.76 45.76">
  <defs>
    <style>
      .cls-1 {
        fill: #e96770;
      }

      .cls-2 {
        fill: #fff;
        fill-rule: evenodd;
      }
    </style>
  </defs>
  <circle class="cls-1" cx="22.88" cy="22.88" r="20.53"/>
  <path class="cls-2" d="m33.71,16.55c-1.26-.17-2.35-.86-3.27-1.89-1.09-1.2-1.72-2.81-1.66-4.36h-4.53v18.07c0,2.12-1.72,3.84-3.9,3.84-1.26,0-2.41-.63-3.16-1.61-.46-.63-.69-1.43-.69-2.24,0-2.12,1.72-3.84,3.84-3.84.4,0,.8.06,1.15.17v-4.59c-.34-.06-.75-.11-1.15-.11h-.17c-4.59.11-8.2,3.84-8.2,8.38,0,2.18.86,4.19,2.24,5.68,1.55,1.61,3.73,2.64,6.14,2.64,4.65,0,8.43-3.73,8.43-8.32v-9.41c1.72,1.55,3.96,2.29,6.25,2.12v-4.53c-.46.11-.92.11-1.32,0Z"/>
</svg>