<?xml version="1.0" encoding="UTF-8"?>
<svg id="Layer_1" data-name="Layer 1" xmlns="http://www.w3.org/2000/svg" viewBox="0 0 612 523.3">
  <defs>
    <style>
      .cls-1 {
        fill: rgba(255, 255, 255, 0.5);
      }
    </style>
  </defs>
  <path class="cls-1" d="M355.03,386.2c14.06-3.25,27.66-5.62,40.79-9.57,43.64-13.14,68.02-43.39,75.4-87.75,3.73-22.38,4.87-44.85-1.85-67.02-3.86-12.75-9.98-24.33-18.66-34.42-2.61-3.03-3.28-5.49-2.09-9.44,6.29-20.76,4.29-41.31-2.96-61.43-.73-2.01-4.29-4.58-6.18-4.32-8.81,1.25-18.04,2.12-26.11,5.53-12.81,5.4-24.73,12.86-37.21,19.1-2.67,1.33-6.33,2.21-9.11,1.55-40.55-9.69-81.02-9.69-121.59-.11-2.97,.7-7.05,.01-9.66-1.59-17.49-10.77-35.15-20.96-55.87-24.22-11.2-1.76-12.4-1.13-15.48,9.58-5.48,19.05-6.46,38.17-.69,57.41,.54,1.8,.1,4.7-1.08,6.1-23.62,28.06-27.66,60.77-23.01,95.59,2.97,22.27,9.39,43.23,23.59,61.13,17.97,22.65,42.67,33.42,70.09,39.14,7.66,1.6,15.42,2.68,23.89,4.12-8.81,9.53-13.22,20.35-15.5,32.26-.33,1.74-2.47,3.74-4.25,4.5-29.18,12.54-55.39,4.13-72.35-23.04-8.76-14.03-20.33-24.34-37.15-27.28-3.19-.56-6.69-.33-9.88,.35-6.72,1.44-7.58,4.96-2.63,9.94,1.75,1.77,3.67,3.49,5.81,4.73,13.24,7.71,22.72,19.23,27.36,33.22,10.19,30.67,40.22,43.89,72.38,40.79,6.17-.59,12.32-1.49,19.43-2.37,0,17.19,.44,33.87-.17,50.51-.35,9.32-9.16,13.59-19.33,10.15-22.87-7.75-44.42-18.29-63.96-32.46-77.95-56.55-116.56-133.32-113.92-229.43C46.5,133.82,138.23,28.81,259.86,6.92c141.44-25.46,277.36,68.69,304.4,210.83,24.62,129.45-48.13,257.25-171.22,300.81-14.71,5.2-21.99,.01-21.92-15.68,.1-21.94,.19-43.87,.37-65.81,.15-18.83-2.88-36.62-16.46-50.88Z"/>
</svg>