<?xml version="1.0" encoding="UTF-8"?>
<svg id="Layer_1" data-name="Layer 1" xmlns="http://www.w3.org/2000/svg" viewBox="0 0 1056 830">
  <defs>
    <style>
      .cls-1 {
        fill: white;
      }
    </style>
  </defs>
  <path class="cls-1" d="m946.75,194.17H109.25c-17.26,0-31.25-13.99-31.25-31.25s13.99-31.25,31.25-31.25h837.5c17.26,0,31.25,13.99,31.25,31.25s-13.99,31.25-31.25,31.25Z"/>
  <path class="cls-1" d="m946.75,446.25H109.25c-17.26,0-31.25-13.99-31.25-31.25s13.99-31.25,31.25-31.25h837.5c17.26,0,31.25,13.99,31.25,31.25s-13.99,31.25-31.25,31.25Z"/>
  <path class="cls-1" d="m946.75,698.33H109.25c-17.26,0-31.25-13.99-31.25-31.25s13.99-31.25,31.25-31.25h837.5c17.26,0,31.25,13.99,31.25,31.25s-13.99,31.25-31.25,31.25Z"/>
</svg>