<?xml version="1.0" encoding="utf-8"?>
<!-- Generator: Adobe Illustrator 27.2.0, SVG Export Plug-In . SVG Version: 6.00 Build 0)  -->
<svg version="1.1" id="Layer_1" xmlns="http://www.w3.org/2000/svg" xmlns:xlink="http://www.w3.org/1999/xlink" x="0px" y="0px"
	 viewBox="0 0 209 204" enable-background="new 0 0 209 204" xml:space="preserve">
<g>
	<path d="M21.55,43.97h18.48v6.96h-26.4v-42h7.92V43.97z"/>
	<path d="M93.4,15.65H74.08v10.56h18.06v6.6H74.08v11.4h19.86v6.72H66.16v-42H93.4V15.65z"/>
	<path d="M140.16,50.93h-10.2l-12.6-42h8.52l9.3,35.34l9.3-35.34h8.22L140.16,50.93z"/>
	<path d="M194.43,14.93h-5.46v30h5.46v6h-18.9v-6h5.46v-30h-5.46v-6h18.9V14.93z"/>
	<path d="M57.19,122.93h-7.68l-2.46-34.44l-8.1,34.44h-8.82l-8.04-34.44l-2.4,34.44h-7.62l3.3-42h12.12l7.2,32.76l7.14-32.76h12.12
		L57.19,122.93z"/>
	<path d="M117.02,115.91h-16.74l-2.1,7.02h-8.16l13.74-42h10.14l13.8,42h-8.58L117.02,115.91z M102.14,109.43h12.96l-6.42-22.2
		L102.14,109.43z"/>
	<path d="M158.85,116.09l5.34-4.8c3.3,3.6,7.2,6,13.14,6c5.1,0,9-2.22,9-5.88c0-3.6-1.68-5.4-11.16-6.96
		c-9.48-1.68-14.22-5.34-14.22-12.42c0-7.44,6.42-12.18,15.84-12.18c8.28,0,13.8,3.36,17.16,7.56l-5.64,4.44
		c-1.92-2.4-5.1-5.28-11.46-5.28c-4.86,0-7.8,1.92-7.8,5.28c0,3.06,1.68,4.56,10.68,6.12c10.32,1.74,14.82,5.58,14.82,12.96
		c0,7.86-6.3,13.14-17.4,13.14C170.07,124.07,163.23,121.49,158.85,116.09z"/>
	<path d="M42.43,159.71h-12v35.22h-7.98v-35.22h-12v-6.78h31.98V159.71z"/>
	<path d="M89.74,165.65c0,5.64-2.94,9.72-8.82,11.7l11.04,17.58h-9.3L73,178.55h-6.72v16.38h-7.92v-42h15.42
		C85.06,152.93,89.74,158.75,89.74,165.65z M66.28,159.59v12.6h7.92c3.96,0,7.26-1.44,7.26-6.48c0-4.08-2.64-6.12-7.08-6.12H66.28z"
		/>
	<path d="M140.28,179.87c0,8.28-4.38,16.2-16.74,16.2c-12.66,0-16.62-8.04-16.62-16.2v-26.94h7.92v26.76c0,6.72,2.88,9.6,8.76,9.6
		c5.82,0,8.7-3.12,8.7-9.6v-26.76h7.98V179.87z"/>
	<path d="M194.01,173.33c0,16.56-10.56,21.6-19.98,21.6h-14.94v-42h13.2C183.99,152.93,194.01,158.87,194.01,173.33z M167.01,159.71
		v28.44h7.02c5.58,0,11.7-2.64,11.7-14.76c0-7.98-3.66-13.68-13.14-13.68H167.01z"/>
</g>
</svg>
