<?xml version="1.0" encoding="UTF-8"?>
<svg id="Layer_1" data-name="Layer 1" xmlns="http://www.w3.org/2000/svg" viewBox="0 0 613.41 613.42">
  <defs>
    <style>
      .cls-1 {
        fill: rgba(255, 255, 255, 0.5);
      }
    </style>
  </defs>
  <path class="cls-1" d="m487.42,0H126.01C56.42,0,0,56.43,0,126.01v361.42c0,69.6,56.42,125.99,126.01,125.99h361.41c69.6,0,125.99-56.39,125.99-125.99V126.01c0-69.58-56.39-126.01-125.99-126.01ZM183.99,528.42h-92.07V232.23h92.07v296.19Zm-46.02-336.67c-29.51,0-53.35-23.87-53.35-53.33s23.85-53.41,53.35-53.41,53.34,23.94,53.34,53.41-23.92,53.33-53.34,53.33Zm390.86,336.67h-92.02v-144.03c0-34.35-.59-78.55-47.85-78.55s-55.21,37.46-55.21,76.09v146.5h-92.02V232.23h88.31v40.52h1.26c12.28-23.31,42.31-47.83,87.09-47.83,93.23,0,110.44,61.32,110.44,141.05v162.45Z"/>
</svg>