<?xml version="1.0" encoding="UTF-8"?>
<svg id="Layer_7" data-name="Layer 7" xmlns="http://www.w3.org/2000/svg" viewBox="0 0 500 500">
  <defs>
    <style>
      .cls-1 {
        fill: #6ee960;
      }
    </style>
  </defs>
  <path class="cls-1" d="m371.75,36.24l-242.26,2.41L6.45,250.04l126.57,213.67h241.36l119.04-211.41-121.68-216.06Zm-35.25,19.35l-38.35,27.77-67.51-26.72,105.86-1.05Zm-36.86,56.66l113.76,181.75h-223.61l109.85-181.75Zm-159.16-54.7l39.8-.4,105.28,41.67-116.77,193.21L31.5,244.78,140.48,57.54Zm-101.67,209.85l122.97,42.31-27.3,119.2-95.67-161.51Zm324.47,177.32h-212.92l30.16-131.71h243.02l4.92,15.96-65.18,115.75Zm69.41-155.71l-120.42-192.4,50.91-36.87,108.45,192.57-2.9,5.15-36.03,31.55Z"/>
</svg>