<?xml version="1.0" encoding="UTF-8"?>
<svg id="Layer_1" data-name="Layer 1" xmlns="http://www.w3.org/2000/svg" viewBox="0 0 612 612">
  <defs>
    <style>
      .cls-1 {
        fill: rgba(255, 255, 255, 0.5);
      }
    </style>
  </defs>
  <path class="cls-1" d="m306,0h0C137,0,0,137,0,306h0c0,169,137,306,306,306h0c169,0,306-137,306-306h0C612,137,475,0,306,0Zm-172.46,151.46h348.39c9.2,0,17.69,3.9,24.34,10.29l-147.66,124.51-11.82,9.95-40.05,33.76-40.61-33.18-11.96-9.79-148.44-121.53c7-8.63,16.91-14.02,27.81-14.02Zm-38.35,264.13v-219.17c0-6.06.99-11.78,2.9-17.01l145.05,118.79-141.08,142.93c-4.32-7.22-6.86-16.01-6.86-25.55Zm386.74,44.96H133.54c-7.85,0-15.21-2.82-21.37-7.71l142.92-144.84,47.69,38.99c1.2,1,2.62,1.49,4.03,1.49,1.49,0,2.9-.58,4.1-1.58l46.84-39.49,144.06,146.5c-5.8,4.23-12.59,6.64-19.88,6.64Zm38.28-44.96c0,10.2-2.9,19.58-7.85,27.13l-142.78-145.25,145.75-122.86c3.11,6.39,4.88,13.85,4.88,21.82v219.17Z"/>
</svg>