<?xml version="1.0" encoding="UTF-8"?>
<svg id="Layer_1" data-name="Layer 1" xmlns="http://www.w3.org/2000/svg" viewBox="0 0 612 523.3">
  <defs>
    <style>
      .cls-1 {
        fill: rgba(255, 255, 255, 0.5);
      }
    </style>
  </defs>
  <path class="cls-1" d="m558.49,84.36c-1.94-2.65-1.94-6.27-.25-8.92,5.55-8.19,12.05-15.43,18.32-22.42,8.2-9.4,16.15-18.32,22.18-29.4-1.45.72-2.65,1.93-4.1,2.4-20.24,9.4-41.22,20.01-70.62,20.01h-.48c-2.41,0-4.59-1.68-6.03-3.61C496.54,15.18,466.17,0,432.18,0c-36.16,0-72.07,16.87-96.17,45.08-26.04,30.37-36.4,71.59-29.17,115.94.49,2.41-.24,4.58-1.93,6.5-1.44,1.69-3.86,2.65-6.27,2.65-53.27-2.65-116.18-19.52-160.29-42.9-37.85-20.01-60.02-40.74-81.47-60.74-10.61-9.88-21.7-20.01-34.47-30.37-29.65,69.9-6.51,98.58,31.09,144.86,4.34,5.3,8.92,10.84,13.5,16.63,1.93,2.41,2.16,5.55.96,8.19-1.21,2.65-4.09,4.34-7.23,4.34-23.39-.49-33.75-3.86-45.8-7.71-2.41-.72-4.82-1.45-7.24-2.41,2.41,60.26,48.69,87.25,100.27,111.36,2.65,1.2,4.34,3.85,4.58,6.74.25,2.9-1.44,5.55-3.86,6.99-16.15,9.65-46.28,11.34-67.73,12.06,17.12,59.77,71.35,64.35,111.12,67.97,9.16.72,16.87,1.44,23.39,2.65,3.37.72,5.78,3.38,6.27,6.75.48,3.37-1.45,6.5-4.34,7.96-9.89,4.58-18.08,8.92-26.04,13.26-18.32,9.64-33.98,18.08-61.7,25.79-29.17,8.19-53.03,10.84-80.27,13.98-3.13.25-6.27.72-9.4,1.21,41.46,27.48,141.97,46.53,201.02,46.53,4.59,0,8.93,0,12.78-.25,216.69-12.3,328.29-197.9,342.75-376.26,2.17-27,14.95-36.4,28.21-46.03,8.43-6.27,17.83-13.02,27.23-26.04-14.71,4.34-29.64,8.44-44.35,12.77-3.85.73-7.23-.47-9.15-3.13Z"/>
</svg>